<?xml version="1.0" encoding="UTF-8"?>
<svg id="Layer_1" data-name="Layer 1" xmlns="http://www.w3.org/2000/svg" viewBox="0 0 1391.15 922.54">
  <defs>
    <style>
      .cls-1 {
        letter-spacing: -.01em;
      }

      .cls-2 {
        letter-spacing: -.02em;
      }

      .cls-3 {
        fill: #d1c359;
      }

      .cls-4 {
        fill: #de3c44;
      }

      .cls-5 {
        fill: #253659;
      }

      .cls-6 {
        fill: #2356e5;
      }

      .cls-7 {
        fill: #455959;
      }

      .cls-8 {
        letter-spacing: 0em;
      }

      .cls-9 {
        font-size: 44px;
      }

      .cls-9, .cls-10 {
        font-family: SourceSansPro-Regular, 'Source Sans Pro';
      }

      .cls-11 {
        letter-spacing: -.02em;
      }

      .cls-12 {
        letter-spacing: -.02em;
      }

      .cls-13 {
        fill: #f17457;
        stroke: #f17457;
      }

      .cls-13, .cls-14, .cls-15, .cls-16, .cls-17, .cls-18 {
        stroke-miterlimit: 10;
      }

      .cls-14 {
        fill: #b4c8d9;
        stroke: #b4c8d9;
      }

      .cls-15 {
        fill: #04bf9d;
        stroke: #04bf9d;
      }

      .cls-19 {
        letter-spacing: -.02em;
      }

      .cls-20 {
        letter-spacing: -.01em;
      }

      .cls-21 {
        letter-spacing: 0em;
      }

      .cls-16 {
        stroke: #253659;
      }

      .cls-16, .cls-17, .cls-18 {
        fill: none;
      }

      .cls-17 {
        stroke: #d1c359;
      }

      .cls-18 {
        stroke: #455959;
      }

      .cls-22 {
        letter-spacing: 0em;
      }

      .cls-23 {
        letter-spacing: 0em;
      }

      .cls-10 {
        fill: #011526;
        font-size: 28px;
      }
    </style>
  </defs>
  <rect class="cls-14" x="106.05" y="193.69" width="1068.61" height="469"/>
  <circle class="cls-13" cx="288.89" cy="263.64" r="47.5"/>
  <circle class="cls-13" cx="330.07" cy="404.64" r="47.5"/>
  <circle class="cls-13" cx="409.39" cy="291.64" r="47.5"/>
  <circle class="cls-13" cx="431.39" cy="470.69" r="47.5"/>
  <circle class="cls-15" cx="741.39" cy="357.14" r="47.5"/>
  <circle class="cls-15" cx="788.89" cy="491.19" r="47.5"/>
  <circle class="cls-15" cx="762.77" cy="594.69" r="47.5"/>
  <circle class="cls-15" cx="816.77" cy="250.14" r="47.5"/>
  <circle class="cls-15" cx="864.27" cy="386.64" r="47.5"/>
  <circle class="cls-15" cx="933.77" cy="291.64" r="47.5"/>
  <circle class="cls-15" cx="894.77" cy="518.19" r="47.5"/>
  <circle class="cls-15" cx="987.15" cy="423.19" r="47.5"/>
  <circle class="cls-15" cx="1000.65" cy="594.69" r="47.5"/>
  <circle class="cls-15" cx="1072.3" cy="499.64" r="47.5"/>
  <circle class="cls-15" cx="1056.3" cy="328.19" r="47.5"/>
  <circle class="cls-13" cx="241.39" cy="610.19" r="47.5"/>
  <circle class="cls-13" cx="254.27" cy="491.19" r="47.5"/>
  <circle class="cls-13" cx="336.39" cy="571.19" r="47.5"/>
  <circle class="cls-13" cx="482.39" cy="586.19" r="47.5"/>
  <circle class="cls-13" cx="520.39" cy="375.69" r="47.5"/>
  <circle class="cls-13" cx="567.89" cy="273.69" r="47.5"/>
  <circle class="cls-13" cx="548.39" cy="496.04" r="47.5"/>
  <g>
    <rect class="cls-5" x="88.05" y="170.62" width="171" height="505" rx="9" ry="9"/>
    <rect class="cls-16" x="88.05" y="170.62" width="171" height="505" rx="9" ry="9"/>
  </g>
  <g>
    <rect class="cls-7" x="1021.42" y="170.62" width="171" height="505" rx="9" ry="9"/>
    <rect class="cls-18" x="1021.42" y="170.62" width="171" height="505" rx="9" ry="9"/>
  </g>
  <g>
    <rect class="cls-3" x="564.42" y="170.62" width="171" height="505" rx="9" ry="9"/>
    <rect class="cls-17" x="564.42" y="170.62" width="171" height="505" rx="9" ry="9"/>
  </g>
  <path d="m114.8,394.19c-33.94,1.23-67.87,2.46-101.81,3.69C11.64,397.93-.02,404.56,0,405.38c1.32,69.63,2.64,139.26,3.97,208.89,1.32,69.63,2.64,139.26,3.97,208.89.03,1.81-.67,5.38.13,7s.17.65,2,1.18c.88.26,2.06.19,2.97.27,4.62.42,9.24.83,13.86,1.24,8.58.76,17.16,1.5,25.75,2.23,17.17,1.46,34.34,2.85,51.52,4.18,34.68,2.69,69.39,5.12,104.11,7.29,69.11,4.32,138.28,7.62,207.49,9.9,69.21,2.27,138.45,3.53,207.69,3.75,8.61.03,17.23.04,25.84.04,1.71,0,5.05-2.83,6.53-3.69s4.73-3.81,6.46-3.81c-69.25.02-138.49-.97-207.71-2.99-69.22-2.02-138.4-5.07-207.53-9.13-69.46-4.09-138.85-9.21-208.16-15.36-3.96-.35-7.92-.71-11.88-1.06-1.12-.1-5.16.18-5.94-.54-.86-.79-.12-6.53-.15-8-.16-8.66-.33-17.32-.49-25.99-.33-17.32-.66-34.65-.99-51.97-.66-34.98-1.33-69.96-1.99-104.94-1.32-69.63-2.64-139.26-3.97-208.89-.16-8.66-.33-17.32-.49-25.99L0,405.38c33.94-1.23,67.87-2.46,101.81-3.69,1.79-.06,4.98-2.79,6.53-3.69s4.65-3.75,6.46-3.81h0Z"/>
  <path d="m647.15,797.47c8.44,41.12,11.29,83.19,8.49,125.07.04-.64,5.81-3.27,6.53-3.69.84-.49,6.39-2.84,6.46-3.81,2.8-41.89-.05-83.95-8.49-125.07.3,1.44-13.33,5.85-12.99,7.5h0Z"/>
  <path d="m686.85,844.6c.07,10.94.14,21.87.21,32.81,0-.53,5.87-3.3,6.53-3.69.76-.44,6.46-2.97,6.46-3.81-.07-10.94-.14-21.87-.21-32.81,0,.53-5.87,3.3-6.53,3.69-.76.44-6.46,2.97-6.46,3.81h0Z"/>
  <path d="m704.58,854.59c71.81-5.27,143.61-10.53,215.42-15.8,71.47-5.24,142.95-10.48,214.42-15.72,17.06-1.25,34.17-2.22,51.2-3.84,13.66-1.3,27.55-3.54,39.82-10,11.05-5.82,22.51-12.01,30.27-22.06,7.91-10.24,11.93-22.89,14.08-35.5,2.36-13.8,2.53-27.85,2.68-41.82.19-17.7.15-35.4-.14-53.1-.57-35.39-2.09-70.77-4.56-106.09-2.45-34.99-5.83-69.91-10.14-104.71-2.18-17.57-4.59-35.1-7.24-52.6-.6-3.95-.61-8.86-1.95-12.63-.61-1.73.2-1.22-1.3-2.02-.98-.52-2.81-.22-3.95-.31-2.3-.18-4.61-.37-6.91-.55-8.89-.7-17.77-1.41-26.66-2.11-8.89-.7-17.77-1.41-26.66-2.11-1.53-.12-5.2,2.92-6.53,3.69s-4.91,3.94-6.46,3.81c17.11,1.36,34.23,2.71,51.34,4.07,1.97.16,3.95.31,5.92.47,1.63.13,5.44-.23,6.91.55s.68.29,1.3,2.02c.3.86.32,2.01.46,2.91.35,2.27.71,4.53,1.05,6.8,1.29,8.42,2.52,16.86,3.7,25.3,4.76,34.09,8.62,68.3,11.59,102.58,5.85,67.65,8.72,135.87,7.04,203.78-.6,24.25-3.03,52.28-21.24,70.36-1.02,1.01-2.08,1.98-3.18,2.91-1.81,1.53-9.32,6.18-1.2,1.52,7.75-4.45,1-.78-1.09.08-1.68.69-3.38,1.32-5.11,1.89-6.53,2.15-13.3,3.46-20.1,4.38-15.56,2.11-31.35,2.74-47,3.88-69.48,5.1-138.96,10.19-208.44,15.29s-138.96,10.19-208.44,15.29c-8.64.63-17.29,1.27-25.93,1.9-1.87.14-4.91,2.75-6.53,3.69s-4.58,3.68-6.46,3.81h0Z"/>
  <path class="cls-6" d="m1135.75,66.44c-1.27-.5-4.18-1.94-6.46-2.49-7.65-1.92-15.76-1.43-23.43.13.13-.58.26-1.16.37-1.74,1.07-5.67,1.43-11.46,1.2-17.22-.17-9.68-1.02-19.32-1.82-28.96-3.57,13.44-4.96,27.33-7.98,40.88-.84,3.48-1.97,6.87-2.98,10.3-.59,2.18-1.55,4.38-1.01,6.67.78,2.79,4.08,4.53,6.75,3.24.64-.18,1.13-.6,1.63-1.03.5-.33,1.79-1.21,2.38-1.48,4.43-2.55,15.21-5.1,21.13-5.44,4.48-.36,6.78.51,11.03.8,3.11.04,9.07-.95,10.3-2.47-3.69.74-7.58.04-11.09-1.18Z"/>
  <path class="cls-6" d="m1156.89,61.76c-.02-4.68-1.08-9.3-2.37-13.78-.89,5.72-1.01,11.58.18,17.27.24,1,.32,2.09.71,3.04.17.26.55.31.81.16.19-.11.31-.33.31-.55h0c.23-2.04.36-4.09.35-6.15Z"/>
  <path class="cls-6" d="m1153.13,29.22c-5.27.13-5.26,7.85,0,8,5.27-.13,5.26-7.86,0-8Z"/>
  <path class="cls-6" d="m1192.36,18.2c4-.83,7.83-2.38,11.73-3.44-4.02-.54-8.11-.48-12.15.05-.78-5.03-2.14-9.98-3.73-14.82-.56,5.12-.67,10.33-.08,15.45-4.26.87-8.43,2.23-12.38,3.92,4.29.12,8.61.02,12.87-.55.03.16.05.32.08.47.76,4.28,2.27,8.37,3.12,12.62.11.74.14-.06.23-.37.55-2.61.66-5.27.59-7.93,0-1.82-.1-3.63-.28-5.42Z"/>
  <path class="cls-4" d="m1301.67,46.27c-1.11-5.42-4.54-10.32-9.54-12.81-4.86-2.32-10.82-2.57-15.59.1-6.65,3.76-10.75,11.51-8.2,19.03,2.3,7.1,9.07,14.11,17.1,12.22,1.51-.34,2.95-.95,4.27-1.75,3.31-.25,6.47-1.65,8.8-4.43,2.95-3.34,4.31-8,3.16-12.35Z"/>
  <path class="cls-4" d="m1370.82,54.08c-2.09,1.6-4.28,3.17-6.77,4.08-4,1.02-6.52,1.79-9.34,1.81-8.85-.34-16.76-5.07-17.61-10.51-.28-4.12,1.94-8.06,3.41-9.94,3.91-4.05,5.65-6.65,8.46-8.04.16-.09.32-.16.49-.23.38-.12.86-.22,1.2-.28,3.46-.06,1.88-.2,5.63.79.05.02.1.04.14.05.22.11.54.27.8.43.1.09.18.18.25.25,2.09,3.43-5.19,9.59-15.1,12.81,6.95-.14,17.07-1.9,20.64-8.6,1.66-3.25,1.29-7.51-1.44-10.08-3.53-3.05-8.41-4.7-13.07-4.27-4.75.46-8.76,3.48-12.06,6.72-6.04,4.82-10.17,12.35-9.41,20.22,1.4,13.05,16.96,18.57,28.4,16.03,2.61-.61,4.99-1.88,7.32-3.16,3.02-1.34,5.39-3.72,7.35-6.33.68-.87,1.29-1.79,1.84-2.75-.37.33-.75.66-1.13.98Z"/>
  <path class="cls-6" d="m333.65,320.71c-2.3,1.94-3.47,5.15-5.18,7.31-.3.38-.61.76-.98,1.07-.02.01-.03.02-.04.03.13-.77.17-1.56.25-2.34.05-3.43.58-6.85.25-10.27-.42-5.58-2.24-11.16-5.78-15.55-4.53-5.08-11.02-8.57-17.78-9.51.12-.25.23-.49.34-.76,3.15-6.19-.61-13.3-6.73-15.79-3.88-2.25-8.32-1.23-11.37,1.9-2.82,2.98-4.87,7.37-3.73,11.5.05.16.14.4.24.64.37,2.62,2.81,5.07,7.99,6.66,5.4,1.46,10.3,1.47,13-3.62,5.62,2.67,11.11,7.46,14.28,11.66,2.64,4.11,4.4,7.67,5.66,12.15,1.07,3.23,1.38,6.64,2.33,9.9.3,1.17.64,2.35.85,3.55-.1.05-.16.06-.38.11-.04,0-.06.01-.06.01-3.56.34-6.34-2.21-9.06-4.13,1.66,2.27,3.23,4.97,5.99,6.02,1.88.87,4.37,1.25,5.97-.35,3.14-3.02,3.31-7.83,6.2-11.07.39-.47.85-.87,1.3-1.28-1.34.43-2.53,1.2-3.56,2.16Zm-35.09-34.63s0,.03,0,.05c-.18,1.02-.47,2.02-.77,3.01-.13.24-.29.49-.42.68-.09.11-.19.21-.29.3-.06.03-.13.07-.22.13-.03.01-.05.02-.07.04-.23.08-.45.14-.69.19-4.18.12-5.8.34-9-1.43-.15-.13-.29-.28-.42-.43-.09-.11-.38-.58-.45-.77-.42-1.29.68-3.26,1.69-4.58,1.08-1.55,2.41-2.88,3.86-4.07.07-.01.14-.02.21-.04.23-.02.47-.02.7,0,.22.05.44.11.66.19.38.21,1.09.59,1.35.82,2.35,1.64,3.17,2.61,3.86,5.03.02.29.02.63,0,.9Z"/>
  <path class="cls-6" d="m345.11,497.88c-1.64,1.64-2.71,3.77-2.93,6.09-.15.97-.04,1.96-.02,2.93.19-.56.36-1.13.57-1.69.97-2.8,3.33-4.67,5.8-5.68-3.18,5.15-2.97,12.79,1.44,17.17,3.17,2.74,8.11,2.21,11.37-.09,3.26-2.25,5.29-5.94,6.09-9.76,3.46-13.59-14.53-17.69-22.32-8.97Zm10.09,15.28c-1.65.17-1.91.71-3.8-1.14-2.61-2.8-3.89-8.18-2.71-12.55,1.37-.54,2.76-.82,3.96-.84,3.01-.28,6.07,1.42,6.98,2.19.23.2.47.46.63.63.11.17.22.34.32.51.04.11.08.22.11.34.16,5.56-2.27,9.94-5.49,10.86Z"/>
  <path class="cls-6" d="m418.47,537.91c-.48-3.47-2.13-6.91-5.1-8.8,1.74,2.2,2.32,4.96,2.68,7.68.03.23.05.46.07.68-3.41-.61-6.83-1.24-10.02-2.64-1.85-.7-5.01-2.95-7.47-4.15-3.66-1.85-8.89-3.61-10.31-4.36-7.75-4.12-15.35-8.6-22.54-13.63,5.07,7.55,11.68,14.19,19.3,19.18,3.37,1.98,7.16,3.02,10.81,4.33,2.94.97,5.72,2.49,8.81,2.96,3.84.79,7.69.31,11.51-.32.13,3.4-.62,6.77-2.4,9.73-.12.32-.66,1.11-.6,1.13.27-.17.5-.38.73-.59,2.71-2.27,4.64-5.51,4.68-9.12,0-.51-.03-1.02-.08-1.53.13-.02.26-.04.39-.07.2.03.53-.07.6.18.06-.05.04-.02.09-.08-.31-.32-.72-.47-1.17-.57Z"/>
  <path class="cls-6" d="m668.26,419.13c-1.57-4.42-5.53-7.14-9.65-8.96,1.3,1.63,2.76,3.13,3.94,4.86,1.06,1.52,2.07,4.35,2.27,5.44.04.64-.07,1.28-.3,1.92-.15-.16-.31-.31-.45-.48-3.3-3.72-6.98-7.29-11.66-9.2-3.59-1.65-7.37-3.24-11.39-3.22-8.15.49-16.02,4.02-22.63,8.89-.43-1.7-1.33-3.26-2.88-4.46-2.97-2.35-7.19-3.76-10.87-2.35-3.22,1.13-5.11,4.23-5.53,7.5-.13-2.88.34-5.97,1.74-8.33-4.86,4.16-6.92,14.13-3.27,19.58,4.51,6.23,14.32,5.08,18.32-1.12,1.75-2.47,2.93-5.81,2.77-8.92,7.87-2.72,16.18-4.52,22.54-4.85,2.8-.03,4.42.43,8.42,1.45,3.63.8,7.11,1.91,10.3,3.69,1.47.75,2.94,1.51,4.44,2.18-1.17,2.73-4.38,5.41-6.75,7.88-1.07,1.06-2.17,2.09-3.24,3.15,1.28-.47,2.55-.97,3.79-1.54,4.95-2.28,12.25-6.65,10.08-13.1Zm-55.89,1.3c-.02.09-.04.2-.07.33-.8,2.67-.25,1.21-1.32,3.33-2.39,3.99-5.51,4.95-8.66,3.38-1.61-.58-2.96-4.09-3.2-8.07,1.95-3.96,5.99-5.85,9.21-4.16,1.63.97,2.14,1.25,3.25,2.47.09.11.15.19.2.25.16.24.31.51.4.69.08.26.15.55.19.75.01.15.04.3.04.46,0,.19-.02.39-.04.58Z"/>
  <path class="cls-6" d="m803.62,370.75c-.62-1.18-1.52-2.45-2.86-2.83-.57,0-1.13.22-1.69.34.57.12,1.29-.03,1.75.36.46.44.77,1.02,1.03,1.6.2.52.34,1.04.43,1.57-.15.1-.3.2-.45.3-5.04,3.55-10.75,6.41-14.91,11.06-4.3,5.09-7.47,11.11-8.72,17.68-1.67,7.3-2.7,14.72-3.37,22.18-3.57-2.32-8.42-2.41-12.28-.71-3.75,1.52-5.87,5.26-6.16,9.18-.08.7-.11,1.41-.15,2.11.28-.61.55-1.23.85-1.83,1.41-3.22,3.53-4.79,5.71-5.43-2.36,2.32-4.24,5.18-4.64,8.5-.31,3.3,1.26,7.2,4.88,7.72,4.89,1.08,10.05-1.43,12.84-5.46,2.57-3.82,3.67-9.69.08-13.23-.26-.22-.52-.42-.8-.62,2.89-6.86,5.58-13.8,8.1-20.8,1.87-5.59,3.65-9.16,7.15-15.18,2.92-4.74,7.41-8.65,11.04-13.59.27-.43.6-.83.9-1.24.29,2.78-.67,5.66-1.53,8.27-.44,1.37-.83,2.75-1.17,4.14.36-.52.71-1.06,1.06-1.59,2.5-3.57,4.9-8.16,2.88-12.49Zm-39.04,66.72c-.19.02-.42.03-.63.04-.23,0-.51,0-.7-.02-.09-.02-.18-.05-.26-.07-.02-.01-.04-.02-.05-.03-.07-.07-.16-.17-.23-.25-2.12-2.84-.75-7.35,1.34-11.08,3.14-.45,6.16.78,7.12,1.62,1.81.77-.29,8.92-6.59,9.8Z"/>
  <path class="cls-6" d="m986.85,400.31c-1.04-.08-1.82,1-2.59,1.57-.94.79-1.83,1.63-2.69,2.5-.09-.59-.06-.36,0,0,0,0,0,0-.01.01-.59-3.88-.31-4.56-1.29-10.09-1.2-3.89-1.33-8.04-2.87-11.84-2.39-6.24-8.41-9.67-14.68-11.31.04-.13.08-.27.12-.4,2.22-7.37-1.85-13.38-9.12-15.21-4.21-.92-8.53,1.58-11.04,4.85-1.28,1.56-2.26,3.34-3.17,5.14-.81,1.68-1.71,3.41-1.8,5.31-.07,2.12.77,4.16,1.98,5.87-.09-.36-.18-.73-.25-1.09-.94-4.33,1.7-6.68,4.45-9.47,3.58-3.66,6.12-4.43,7.82-3.97.52.28,1.74.93,2.22,1.3.3.25.59.51.86.8.53,1.08.33.22.79,2.18.02,1.65-.48,3.76-1.67,6.99-.18.36-.47.96-.68,1.27-.2.37-.7,1.07-.89,1.34-.29.32-.68.69-.89.9-1.19.72-3.23.45-4.03-.15-.86-1.19-.89-2.61-.75-4.55.16-2.44.63-4.89,1.65-7.13-5.63,5.76-8.93,16.73,2.22,17.95,5.94.37,9.78-5.18,11.67-10.38,2.61,1.75,5.01,3.81,7.05,6.2.97,1.16,2.4,5.38,2.2,5.53.29,2.19.25,4.4.2,6.6.06,1.93.41,3.84.49,5.76,0,.75,0,1.51,0,2.26-1.22-1.6-2.7-2.91-4.68-3.32-2.97-.59-5.44,2.8-4.51,5.53.89,2.86,3.46,4.48,5.67,6.25.78.58,1.36,1.01,1.83,1.36.88,1.03,1.16,1.24,2.04,2.65,2.83,5.21,5.39,4.65,7.49,1.05.02-.01.04-.02.06-.03,2.01-1.19,2.39-2.93,2.21-4.8,1.01-2.07,2.16-4.08,3.31-6.07.37-.48.7-1.39,1.41-1.31-.04-.03-.09-.05-.13-.07Z"/>
  <path class="cls-6" d="m836.04,68.9c-7.4-8.21-15.64-15.67-24.99-21.62-2.72-1.3-5.53-3.15-8.61-3.21-2.49-.05-4.67,2.14-4.62,4.63.34,3.96,4.44,6.4,7.04,8.98,4.99,4.81,10.66,8.79,16.4,12.65,3.28,2.36,6.65,4.59,10.18,6.57.08.05.17.1.26.15.63.59,1.27,1.18,1.92,1.75.68.66,1.39,1.29,2.11,1.9-.61-.02-1.22-.04-1.83-.04-20-.13-39.9-2.38-59.77-4.38-19.48-1.13-39-.49-58.51-.48-15.61.07-31.21.83-46.78,1.89-15.86,1.12-31.68,2.78-47.59,2.92-30.87-.42-61.76-1.32-92.61-2.53-16.15-.6-32.32-.57-48.47-1.18,14.49,2.45,29.1,4.04,43.72,5.52,15.92,1.86,31.92,2.77,47.94,3.19,20.62.59,41.24,2.02,61.88,1.42,23.64-1.34,47.25-3.35,70.95-3.59,13.77-.13,27.54.05,41.31.05,12.29-.04,24.61.24,36.82,1.78,16.16,1.78,32.38,3.45,48.64,3.83,2.42.04,4.85.13,7.27.24-2.88,2.98-5.84,5.89-8.35,9.19-4.16,5.34-7.58,11.21-11.39,16.8-2.43,3.73-5,7.39-7.19,11.28.41-.45.82-.9,1.23-1.34,4-4.07,8.13-8.01,12.09-12.12,3.62-3.81,7.03-7.82,10.87-11.42,4.58-4.45,10.3-7.8,13.94-13.15,4.96-9.09-7.05-15.87-13.83-19.71Z"/>
  <path class="cls-4" d="m1082.73,413c-1.96-3.61-6.4-5.04-10.02-3.24-.07.02-.15.03-.22.05-4.35,1.31-6.44,5.98-6.48,10.34-5.64-3.42-11.53-6.41-17.57-9.09-6.47-2.93-13.19-5.47-20.3-6.25-6.45-.93-12.92.3-19.39.23-3.89.17-7.75.7-11.61,1.23-2.84.39-5.83.72-8.26,2.38-.12.1-.24.2-.36.3,1.97-3.87,5.51-8.57,7.88-12.35-4.54,3.4-12.52,9.35-13.06,15.33.14,1.81,1.39,3.27,2.82,4.27,1.94,1.54,4.1,2.79,6.35,3.8,1.98.97,4.19,1.49,6.19,2.28.79.41-.51-.69-.76-.92-2.11-1.73-3.34-2.64-5.2-4.25-1.81-1.65-5.33-4.72-5.39-5.34.13-.45.31-.93.52-1.42,1.77-1.07,4.05-1.11,6.07-.88,7.33,1.09,9.84,1.22,17.45,2.55,6.95.86,11.55.77,16.07,1.52-.17-.02-.33-.04-.5-.07,2.15.38,4.32.65,6.47,1.06,4.87.9,9.66,2.2,14.48,3.31,6.06,1.34,12.12,2.65,18.18,3.99.03.24.06.47.1.7.24,1.3.82,2.48,1.62,3.49,1.21,2.35,3.41,3.87,6.4,3.4,8.07.65,12.32-9.9,8.51-16.45Z"/>
  <path class="cls-4" d="m263.96,266.42c-1.97.52-3.78,1.81-5.26,3.53-7.45-2.3-15.51-2.69-23.25-2.46-7.9.29-15.48,3.16-21.83,7.81-2.93,2.1-5.38,4.75-8.16,7.03-2.71,2.15-4.99,4.75-7.41,7.2-1.08-2.6-1.92-5.07-3.34-8.51-1.5-4.83-7.89-5.48-9.54-.46-.39,1.24,0,2.47.26,3.69.48,2.2,1.01,4.39,1.39,6.62.75,4.06,1.02,8.4,3,12.09,1.15,1.61,2.89,2.3,4.78,2.66.35.27.74.49,1.18.62,1.4.69,2.96.59,4.3-.02,6.12.56,12.3-.79,18.37.09.82.22,1.34.79,1.88.98-.95-1.09-2.09-1.94-3.52-2.3-2.59-.81-5.26-1.31-7.93-1.77-1.84-.37-3.68-.75-5.51-1.18.04-.28.07-.57.06-.87,0-.04,0-.08,0-.12.01-.05.02-.09.03-.14.14-.48.32-.96.49-1.43,0,0,0-.02.01-.03.01-.02.02-.03.03-.05,3.51-3.87,7.17-7.61,11.23-10.9,4.47-4,3.23-3.43,7.72-6.03,4.52-2.48,2.4-1.65,6.97-3.04,4.63-1.02,3.61-.86,9.73-.93,7.42.08,7.54.07,15.12,1.85.17.05.31.09.45.13.16,1.14.5,2.23,1.1,3.21,3.8,5.68,12.19,4.13,15.46-1.3,1.05-1.61,1.66-3.65,1.78-5.68,1.29-5.7-3.28-11.75-9.62-10.33Z"/>
  <path class="cls-4" d="m1044.92,811.22c-2.58-2.06-5.36-3.86-8.2-5.55-1.28-.88-2.58-1.73-3.92-2.52-6.35-3.13-10.56,5.65-4.52,9.04.08.03.16.07.24.1,1.15.89.31.2,2.95,2.39,2.44,2.32,3.79,3.57,4.83,4.79-5.79.59-21.06-.53-30.14.5-4.83.31-9.68.29-14.47,1.02-6.29,1.13-12.54,2.59-18.72,4.2-3.22.99-6.47,1.92-9.68,2.97-.6-2.51-1.94-4.79-4.08-6.34-5.73-4.43-11.99-3.12-16.53,1.04-7.31,3.78-10.21,12.91-7.06,19.71.47,5.91,3.23,11.24,9.47,12.94,9.37,1.62,16.8-7.33,18.57-15.76,7.57-2.65,28.68-8.66,36.45-8.35,6.75-.28,13.48-.89,20.24-.83,4.82.17,9.65.4,14.47.15,2.83-.29,5.78-.37,8.36-1.65,1.77-.99,3.01-2.64,4.07-4.33.19-.26.35-.53.5-.81.43.57.64,1.01.57,1.25-.11,1.99-2.81,4.97-7.42,8.44-2.51,2.25-5.84,4.1-7.03,7.43-.05.16-.09.33-.13.49.38-.73.93-1.36,1.56-1.88,1.43-1.19,3.16-1.91,4.82-2.71,15.94-6.68,19.04-13.81,4.8-25.7Z"/>
  <path class="cls-4" d="m145.65,390.27c-2.6-2.4-6.65-2.66-9.73-1.08-2.69,1.56-4.39,4.35-5.4,7.22-.48,1.82-.93,3.78-1.03,5.73-7.89-2.54-15.91-4.82-24.12-5.95-9.82-1.57-19.79-1.48-29.69-.76-8.01.51-16.09,1.27-23.73,3.76.36-.49.72-.97,1.06-1.45,3.18-4.35,6.15-8.85,9-13.42-4.72,3.85-9.29,7.89-13.66,12.14-3.36,3.48-8.14,7.73-4.02,11.54,2.57,2.08,5.83,3.03,8.51,4.96,2.8,1.94,5.62,4.74,8.86,7.09,1.54,1.07,2.29,1.81,3.84,2.92.32.22.93.8,1.03.69-2.99-4.74-5.98-9.57-9.69-13.8-2.25-2.55-5.26-4.15-8.12-5.92.24-.49.57-1.04.97-1.65,10.89-.94,21.88,1.44,32.79,1.61,8.31.34,16.63-.11,24.94-.17,7.35-.03,14.7.1,22.05,0,.11,1.62.53,3.19,1.47,4.59,2.67,4.24,9.07,4.41,12.41.87.15-.14.28-.31.42-.47,2.01-1.16,3.68-2.96,4.51-5.29,1.87-4.35.86-9.94-2.65-13.18Z"/>
  <path class="cls-4" d="m1258.68,429.07c-.48-1.95-1.88-3.67-4.59-4.77-2.99-1.03-6.04-.51-8.72.89,1.34-16.04-3.41-28.92-15.88-42.3-3.16-3.16-6.33-6.36-9.85-9.13-3.54-2.73-7.42-5-11.3-7.2-7.21-3.94-14.94-7.14-23.2-7.79-10-1.2-20.51-1.97-30.19,1.41-5.06,1.8-10.04,3.88-14.86,6.26-2.64,1.3-5.29,2.67-7.71,4.34-1.18-1.19-1.92-2.43-1.65-2.77,2.43-4.07,7.17-9.52,10.04-14.49-3.28,2.99-6.77,5.73-9.98,8.8-1.45,1.29-2.93,2.63-3.87,4.35-1.04,2.65.09,5.03,1.83,7.1-.33.32-.66.65-.97.99.38-.27.78-.5,1.18-.75,1.33,1.53,2.97,2.89,4.27,4.06,3.3,3.06,6.75,5.94,10.04,9.01,2.81,2.46,5.8,4.9,7.58,8.25.09.16.25.3.07.5.11,0,.21-.06.21-.18-.58-4.49-3.42-8.17-6.12-11.63-2.64-3.66-7.3-8.68-11.56-12.25,3.58-1.44,7.41-2.35,11.12-3.41,5.37-1.4,12.66-3.08,15.72-3.27,7.65-.34,11.19.39,17.16,1.26,4.46.83,8.97,1.56,13.33,2.83,10.68,3.53,21.83,10.57,30.92,18.88,13.15,11.58,19.22,21.87,21.11,37.84-7.87,2.44-13.01,13.01-7.25,20.01,4.66,5.86,13.19,5.5,18.7,1.2.72-.5,1.39-1.14,2-1.9.12-.14.23-.29.35-.44.02-.02.03-.04.05-.06,0,0,.01-.02.02-.03.22-.28.45-.56.64-.86,3.12-3.99,3.96-10.44,1.36-14.73Zm-11.79,8.08c-.24-.11-.46-.24-.68-.38-.05-.16-.09-.32-.13-.48,0-.04,0-.09,0-.13.01-.04.02-.07.03-.1.34-.6.49-.89.58-1.06.18.05.35.1.48.14.17.09.33.19.46.27.24.22.46.44.67.69.17.26.38.59.54.91.01.02.02.04.03.06.04.13.08.27.11.4-.8.02-1.51-.08-2.09-.31Z"/>
  <path class="cls-4" d="m826.13,751.85c-.51-1.56-1.49-3.01-2.79-4.37,1-10.92-10.82-19.18-22.16-25.16-4.97-2.6-10.12-4.83-15.27-7.02-3.37-1.26-6.73-2.85-10.37-3.08-10.7.64-8.26,8.54-2.93,14.49,8.11,9.61,19.96,14.87,31.09,20.13,2.29.97,5.1,2.4,7.52,3.78-.33-.06-.66-.14-1-.19-12.55-1.78-25.29-1.72-37.93-2.4-22.31-.67-44.54-2.56-66.79-4.26-16.29-.64-32.58-1.21-48.85-2.27-18-1.25-37.18-2.5-51.98-4.71-11.03-1.42-22.04-3.13-33.13-3.95-6.34-.21-12.7.02-19.01.6-7.24.72-14.58,1.75-20.96,5.46,7.84-2.71,16.19-2.09,24.33-1.6,11.78.7,20.01,2.4,32.04,4.91,7.72,1.39,15.48,2.61,23.24,3.7,7.86.77,15.72,1.6,23.58,2.36,23.4,1.92,46.85,3.28,70.31,4.2,20.62,1.64,41.22,3.7,61.9,4.46,10.94.53,31.26,1.54,38.07,2.32-1.96,1.85-4.05,3.79-5.98,5.71-10.36,10.19-21.67,19.84-35.31,25.29-.58.24-1.17.49-1.75.73,4.86-.75,9.66-1.86,14.29-3.53,9.86-3.52,18.66-9.42,26.86-15.84,4.09-3.31,8.39-6.43,12.2-10.06,1.98.61,4.05,1.14,6.11.74,4.38-1.1,6.36-6.44,4.66-10.42Zm-30.87-19.82c-4.14-2.22-7.64-4.48-10.49-6.76,2.68,1.17,5.41,2.51,9.6,4.45,5.98,3.08,10.94,5.8,14.56,8.87-5.16-2.38-10.31-4.47-13.67-6.55Z"/>
  <text class="cls-10" transform="translate(118.43 130.25)"><tspan class="cls-12" x="0" y="0">P</tspan><tspan x="15.2" y="0">ositi</tspan><tspan class="cls-21" x="65.44" y="0">v</tspan><tspan x="78.43" y="0">e</tspan><tspan x="-50.61" y="33.6">cur</tspan><tspan class="cls-23" x="-12.87" y="33.6">r</tspan><tspan class="cls-8" x="-3.4" y="33.6">ent </tspan><tspan class="cls-2" x="40.89" y="33.6">c</tspan><tspan x="53.07" y="33.6">olle</tspan><tspan class="cls-22" x="96.42" y="33.6">c</tspan><tspan class="cls-20" x="108.9" y="33.6">t</tspan><tspan x="118" y="33.6">or</tspan></text>
  <text class="cls-10" transform="translate(299.5 143.45)"><tspan class="cls-12" x="0" y="0">P</tspan><tspan x="15.2" y="0">ositi</tspan><tspan class="cls-21" x="65.44" y="0">v</tspan><tspan class="cls-8" x="78.43" y="0">e ele</tspan><tspan class="cls-1" x="132.83" y="0">c</tspan><tspan x="145.32" y="0">t</tspan><tspan class="cls-23" x="154.81" y="0">r</tspan><tspan x="164.27" y="0">ode</tspan></text>
  <text class="cls-10" transform="translate(600.31 143.45)"><tspan x="0" y="0">Se</tspan><tspan class="cls-20" x="28.84" y="0">p</tspan><tspan x="43.99" y="0">a</tspan><tspan class="cls-11" x="58.1" y="0">r</tspan><tspan class="cls-20" x="67.17" y="0">at</tspan><tspan x="89.99" y="0">or</tspan></text>
  <text class="cls-10" transform="translate(783.57 143.45)"><tspan x="0" y="0">N</tspan><tspan class="cls-22" x="18.09" y="0">e</tspan><tspan class="cls-19" x="31.7" y="0">g</tspan><tspan class="cls-20" x="45.39" y="0">a</tspan><tspan x="59.11" y="0">ti</tspan><tspan class="cls-21" x="75.52" y="0">v</tspan><tspan x="88.51" y="0">e ele</tspan><tspan class="cls-22" x="142.91" y="0">c</tspan><tspan x="155.4" y="0">t</tspan><tspan class="cls-22" x="164.89" y="0">r</tspan><tspan x="174.35" y="0">ode</tspan></text>
  <text class="cls-10" transform="translate(1055.73 130.25)"><tspan x="0" y="0">N</tspan><tspan class="cls-22" x="18.09" y="0">e</tspan><tspan class="cls-19" x="31.7" y="0">g</tspan><tspan class="cls-20" x="45.39" y="0">a</tspan><tspan x="59.11" y="0">ti</tspan><tspan class="cls-21" x="75.52" y="0">v</tspan><tspan x="88.51" y="0">e</tspan><tspan x="-45.57" y="33.6">cur</tspan><tspan class="cls-23" x="-7.83" y="33.6">r</tspan><tspan class="cls-8" x="1.64" y="33.6">ent </tspan><tspan class="cls-2" x="45.93" y="33.6">c</tspan><tspan x="58.11" y="33.6">olle</tspan><tspan class="cls-22" x="101.46" y="33.6">c</tspan><tspan class="cls-20" x="113.94" y="33.6">t</tspan><tspan x="123.04" y="33.6">or</tspan></text>
  <polyline class="cls-4" points="1371.95 21.14 1391.15 21.14 1391.15 23.45 1373.36 22.29"/>
  <path class="cls-6" d="m1070.54,33.64c-3.62-9.09-10.79-17.5-20.74-19.51-4.95-.77-10.16-.6-15.05.65-9.83-.79-23.19,11.92-27.23,24.15-4.8,15.76,6.12,32.74,20.22,39.53,7.52,3.55,16.11,5.89,24.38,3.85,6.48-1.78,12.66-5.43,16.61-10.96,7.41-10.78,6.96-26.06,1.8-37.71Zm-8.76,27.16c-.12.38-.27.74-.42,1.11-2.78,5.84-6.73,8.12-12.73,9.79-4.25,1.01-13.25-.65-20.59-5.87-5.57-3.9-11.54-13.05-11.45-21.09-.02-.28-.02-.58,0-.9.9-2.58,1.91-5.06,3.19-7.53,4.4-9.31,10.45-11.4,15.74-12.45,2.04-.28,4.09-.33,6.14-.23,2.3,3.57,3.61,7.84,4.24,12.05-.07-4.9-.66-8.81-1.64-11.86.22.02.44.04.67.07,4.56.89,3.13.41,7.54,3.13,3.16,1.98,8.58,9.83,10.14,18.06.77,4.22,1.05,10-.83,15.71Z"/>
  <text class="cls-9" transform="translate(89.57 48.38)"><tspan x="0" y="0">CHARGING</tspan></text>
</svg>