<?xml version="1.0" encoding="UTF-8"?>
<svg id="Layer_1" data-name="Layer 1" xmlns="http://www.w3.org/2000/svg" viewBox="0 0 1394.22 880.37">
  <defs>
    <style>
      .cls-1 {
        letter-spacing: -.01em;
      }

      .cls-2 {
        letter-spacing: -.02em;
      }

      .cls-3 {
        fill: #d1c359;
      }

      .cls-4 {
        fill: #de3c44;
      }

      .cls-5 {
        fill: #253659;
      }

      .cls-6 {
        fill: #2356e5;
      }

      .cls-7 {
        fill: #455959;
      }

      .cls-8 {
        letter-spacing: 0em;
      }

      .cls-9 {
        font-size: 44px;
      }

      .cls-9, .cls-10, .cls-11 {
        font-family: SourceSansPro-Regular, 'Source Sans Pro';
      }

      .cls-10 {
        font-size: 31px;
      }

      .cls-10, .cls-11 {
        fill: #011526;
      }

      .cls-12 {
        letter-spacing: -.02em;
      }

      .cls-13 {
        letter-spacing: -.02em;
      }

      .cls-14 {
        letter-spacing: 0em;
      }

      .cls-15 {
        letter-spacing: -.03em;
      }

      .cls-16 {
        fill: #f17457;
        stroke: #f17457;
      }

      .cls-16, .cls-17, .cls-18, .cls-19, .cls-20, .cls-21 {
        stroke-miterlimit: 10;
      }

      .cls-17 {
        fill: #b4c8d9;
        stroke: #b4c8d9;
      }

      .cls-18 {
        fill: #04bf9d;
        stroke: #04bf9d;
      }

      .cls-22 {
        letter-spacing: -.02em;
      }

      .cls-23 {
        letter-spacing: -.01em;
      }

      .cls-24 {
        letter-spacing: 0em;
      }

      .cls-19 {
        stroke: #253659;
      }

      .cls-19, .cls-20, .cls-21 {
        fill: none;
      }

      .cls-20 {
        stroke: #d1c359;
      }

      .cls-21 {
        stroke: #455959;
      }

      .cls-25 {
        letter-spacing: 0em;
      }

      .cls-26 {
        letter-spacing: 0em;
      }

      .cls-27 {
        letter-spacing: 0em;
      }

      .cls-11 {
        font-size: 28px;
      }
    </style>
  </defs>
  <rect class="cls-17" x="117.05" y="188.74" width="1068.61" height="469"/>
  <circle class="cls-16" cx="289.1" cy="263.64" r="47.5"/>
  <circle class="cls-16" cx="330.28" cy="404.64" r="47.5"/>
  <circle class="cls-16" cx="409.6" cy="291.64" r="47.5"/>
  <circle class="cls-16" cx="431.6" cy="470.69" r="47.5"/>
  <circle class="cls-18" cx="741.6" cy="357.14" r="47.5"/>
  <circle class="cls-18" cx="789.1" cy="491.19" r="47.5"/>
  <circle class="cls-18" cx="762.97" cy="594.69" r="47.5"/>
  <circle class="cls-18" cx="816.97" cy="250.14" r="47.5"/>
  <circle class="cls-18" cx="864.47" cy="386.64" r="47.5"/>
  <circle class="cls-18" cx="933.97" cy="291.64" r="47.5"/>
  <circle class="cls-18" cx="894.97" cy="518.19" r="47.5"/>
  <circle class="cls-18" cx="987.35" cy="423.19" r="47.5"/>
  <circle class="cls-18" cx="1000.85" cy="594.69" r="47.5"/>
  <circle class="cls-18" cx="1072.51" cy="499.64" r="47.5"/>
  <circle class="cls-18" cx="1056.51" cy="328.19" r="47.5"/>
  <circle class="cls-16" cx="241.6" cy="610.19" r="47.5"/>
  <circle class="cls-16" cx="254.47" cy="491.19" r="47.5"/>
  <circle class="cls-16" cx="336.6" cy="571.19" r="47.5"/>
  <circle class="cls-16" cx="482.6" cy="586.19" r="47.5"/>
  <circle class="cls-16" cx="520.6" cy="375.69" r="47.5"/>
  <circle class="cls-16" cx="568.1" cy="273.69" r="47.5"/>
  <circle class="cls-16" cx="548.6" cy="496.04" r="47.5"/>
  <path d="m115,394.19c-33.44,1.69-66.92,2.69-100.38,3.7-1.78.05-4.99,2.8-6.53,3.69-.98.57-6.26,2.67-6.46,3.81-2.78,15.88-1.2,31.99-1,48s.54,31.92.85,47.87c.63,32.58,1.36,65.16,2.09,97.74,1.44,64.49,2.9,128.98,3.69,193.48.09,7.31.17,14.63.24,21.94.04,3.98-.06,7.99.11,11.97.2,4.7,1.44,4.94,5.99,5.36,15.86,1.44,31.73,2.82,47.61,4.15,32.31,2.7,64.64,5.17,96.98,7.41,63.75,4.42,127.56,7.94,191.41,10.61,71.61,2.99,143.27,4.9,214.94,5.82,1.68.02,5.08-2.84,6.53-3.69s4.76-3.84,6.46-3.81c-128.31-1.65-256.57-6.5-384.61-14.96-31.66-2.09-63.31-4.4-94.94-6.94-15.86-1.27-31.72-2.6-47.57-3.98-7.94-.69-15.88-1.4-23.81-2.12-3.26-.3-5.09.05-5.97-3.36-1.05-4.07-.08-9.74-.12-13.96-.63-64.5-2-129-3.44-193.48-.8-35.9-1.62-71.81-2.34-107.71-.36-17.95-.7-35.9-.99-53.86-.3-17.89-2.2-36.25.9-53.98l-12.99,7.5c33.47-1.01,66.94-2.01,100.38-3.7,1.82-.09,4.96-2.77,6.53-3.69s4.62-3.72,6.46-3.81h0Z"/>
  <path d="m758.48,850.66c69.02-5.06,138.04-10.12,207.05-15.18,67.55-4.95,135.12-10.96,202.75-14.73,13.07-.73,26.28-1.44,39.05-4.58,12.13-2.99,22.74-9,33.31-15.5,22.65-13.93,29.42-39.73,31.22-64.74,2.39-33.13,1.17-66.65.25-99.81s-2.71-68.38-5.39-102.49c-2.68-33.99-6.23-67.91-10.66-101.72-1.11-8.48-2.28-16.95-3.5-25.42s-1.71-17.2-3.82-25.32c-.82-3.14-2.28-2.6-5.4-2.78-3.76-.22-7.51-.6-11.27-.89-8.2-.65-16.41-1.3-24.61-1.95s-16.18-1.28-24.26-1.92c-1.53-.12-5.2,2.92-6.53,3.69s-4.91,3.94-6.46,3.81c15.66,1.24,31.32,2.48,46.98,3.73,3.52.28,7.04.56,10.56.84,2.4.19,6.72-.54,7.86,1.89,1.34,2.86,1.17,7.65,1.65,10.79.65,4.23,1.28,8.46,1.89,12.69,4.74,32.47,8.67,65.07,11.78,97.74,6.3,66.14,9.69,132.83,9.06,199.28-.24,25.76.9,54.94-11.71,78.35-2.99,5.56-6.82,10.66-11.48,14.93-1.1,1.01-2.25,1.98-3.43,2.9-1.82,1.41-8.21,5.28-.31.67,7.87-4.59,1.41-1.02-.73-.14-1.59.66-3.21,1.26-4.84,1.81-11.97,4.03-24.68,5.3-37.22,6.12-64.31,4.23-128.58,9.16-192.86,13.87-67,4.91-134,9.83-201,14.74-8.31.61-16.62,1.22-24.93,1.83-1.87.14-4.91,2.75-6.53,3.69s-4.58,3.68-6.46,3.81h0Z"/>
  <g>
    <rect class="cls-3" x="567.08" y="170.74" width="171" height="505" rx="9" ry="9"/>
    <rect class="cls-20" x="567.08" y="170.74" width="171" height="505" rx="9" ry="9"/>
  </g>
  <path class="cls-4" d="m1301.87,46.27c-1.11-5.42-4.54-10.32-9.54-12.81-4.86-2.32-10.82-2.57-15.59.1-6.65,3.76-10.75,11.51-8.2,19.03,2.3,7.1,9.07,14.11,17.1,12.22,1.51-.34,2.95-.95,4.27-1.75,3.31-.25,6.47-1.65,8.8-4.43,2.95-3.34,4.31-8,3.16-12.35Z"/>
  <g>
    <rect class="cls-7" x="1024.08" y="170.74" width="171" height="505" rx="9" ry="9"/>
    <rect class="cls-21" x="1024.08" y="170.74" width="171" height="505" rx="9" ry="9"/>
  </g>
  <path class="cls-4" d="m1371.02,54.08c-2.09,1.6-4.28,3.17-6.77,4.08-4,1.02-6.52,1.79-9.34,1.81-8.85-.34-16.76-5.07-17.61-10.51-.28-4.12,1.94-8.06,3.41-9.94,3.91-4.05,5.65-6.65,8.46-8.04.16-.09.32-.16.49-.23.38-.12.86-.22,1.2-.28,3.46-.06,1.88-.2,5.63.79.05.02.1.04.14.05.22.11.54.27.8.43.1.09.18.18.25.25,2.09,3.43-5.19,9.59-15.1,12.81,6.95-.14,17.07-1.9,20.64-8.6,1.66-3.25,1.29-7.51-1.44-10.08-3.53-3.05-8.41-4.7-13.07-4.27-4.75.46-8.76,3.48-12.06,6.72-6.04,4.82-10.17,12.35-9.41,20.22,1.4,13.05,16.96,18.57,28.4,16.03,2.61-.61,4.99-1.88,7.32-3.16,3.02-1.34,5.39-3.72,7.35-6.33.68-.87,1.29-1.79,1.84-2.75-.37.33-.75.66-1.13.98Z"/>
  <path class="cls-4" d="m1087.51,326.62c-.29-.22-.57-.47-.86-.71.16-.38.3-.77.41-1.19.39-1.73-.41-3.45-1.5-4.76-1.76-2.46-4.48-3.88-7.27-4.86,2.36,2.24,5.15,5.42,5.5,8.25-.91-.87-1.8-1.75-2.69-2.62-3.91-3.47-9.15-5.49-14.36-5.77-5.96-.21-12.13,1.4-17.14,4.65-2.48,1.62-4.45,3.74-6.08,6.13-1.78-1.24-4.05-1.75-6.24-1.35-1.99.22-3.9,1.14-5.26,2.67-2.87,3.33-4.59,8.42-2.26,12.48,2.25,3.68,7.35,4.96,11.12,2.91,4.31-2.26,6.68-7.71,5.65-12.43-.14-.51-.33-.99-.56-1.45,3.38-2.84,6.88-4.93,11.1-5.68,8.58-2.03,12.65-2.92,21.17-.16.74.31,2.78,1.36,4.92,2.31-1.24,1.9-3.91,3.89-5.81,5.68-1.46,1.45-3.18,2.73-4.26,4.51.74-.56,1.62-.9,2.47-1.27,3.84-1.91,8.93-3.61,10.91-7.64.37.11.73.21,1.05.28Z"/>
  <path class="cls-4" d="m1052.25,811.89c-2.75-2.41-6.59-3.35-10.18-3.06-6.6.41-10.28,6.58-11.12,12.67-7.25-2.17-14.44-4.58-21.87-6.07-4.85-.84-9.8-2.1-14.73-1.22-8.97,2.09-17.74,5.41-25.77,9.96-.23-.08-.45-.16-.68-.24,4.03-4.84,8.08-9.69,12.7-13.98-6.58,2.37-12.42,6.4-17.61,11.02-2.1,1.74-2.19,5.04-.34,7,2.04,1.84,4.91,2.44,7.46,3.28,7.44,2.24,15.42,5.19,21.03,7.6.62.27,1.22.58,1.84.85-1.93-2.15-4.09-4.1-6.37-5.88-3.68-3-7.8-5.39-12.08-7.41-1.37-.61-2.78-1.13-4.19-1.63.42-.08.83-.15,1.25-.23.03,0,.04,0,.03,0,8.82-1.26,12.31-1.45,22.29-3,4.84-.55,9.66.63,14.49.81,7.45.55,14.95,1.06,22.42.64-.04.61-.06,1.22-.04,1.81.13,3.21.89,5.91,2.07,8.1.24.57.5,1.13.81,1.64,1.95,3.11,5.55,4.88,9.13,4.87.09,0,.19,0,.28,0,.2,0,.41-.01.61-.03.22-.02.44-.05.66-.08.1-.01.19-.03.29-.05.28-.05.56-.12.84-.19.04-.01.08-.02.12-.03,1.85-.53,3.61-1.6,5.1-3.26,1.09-1.11,2.06-2.41,2.88-3.83.3-.42.57-.85.81-1.3.34-.67.59-1.37.77-2.09,2.14-5.87,1.78-12.68-2.87-16.65Z"/>
  <g>
    <rect class="cls-5" x="90.71" y="170.74" width="171" height="505" rx="9" ry="9"/>
    <rect class="cls-19" x="90.71" y="170.74" width="171" height="505" rx="9" ry="9"/>
  </g>
  <path class="cls-4" d="m157.61,383.65c-.9-6.16-6.69-9.8-11.52-12.93-.47-.65-1.1-1.2-1.85-1.47-2.69-1.32-6.2,1.26-5.59,4.24.09.7.35,1.29.7,1.8.02.04.03.08.06.12.11.18.21.34.31.51-.48-.14-.96-.28-1.45-.39-4.45-1.28-9.08-1.44-13.68-1.64-7.23-.63-14.62-.32-21.45,2.38-7.34,2.43-13.74,6.84-19.28,12.17-2.7,2.5-5.42,4.98-8.07,7.54-.04-.26-.07-.53-.13-.79-.72-4.12-3.59-7.77-7.57-9.18-2.83-1.36-6.27-1.7-9.11-.34-2.74.65-5.23,2.18-6.77,4.7-1.69,2.55-2.35,5.58-2.16,8.57-.11,1.27-.04,2.55.28,3.82.46,1.97,1.54,3.66,2.98,4.97,1.12,1.45,2.52,2.68,4.13,3.58,5.56,3.7,12.13,1.46,15.48-3.92,1.97-2.73,3.1-6.16,3.04-9.52,6.58-3.74,13.13-7.55,19.97-10.76.07-.03.13-.05.21-.08,1.97-.74,3.99-1.33,6.03-1.85,2.17-.53,4.36-.96,6.57-1.29,9.22-.94,12.63.7,22.29,1.45,2.39.41,4.76.96,7.1,1.63,2.37.65,4.09,1.79,8.36,4.95.46.29.96.47,1.48.58-1.21,1.35-2.43,2.63-3.34,3.7-.37.36-2.11,2.62-1.13,1.67,4.33-3.47,14.56-7.69,14.12-14.18Z"/>
  <path class="cls-4" d="m293.35,242.11c1.07,2.71,2.35,5.35,3.32,8.09-.04-.02-.09-.05-.13-.07-4.46-1.97-8.96-4.31-13.85-4.88-9.42-.78-19.11.73-27.94,4.08-7.46,2.93-12.93,8.95-17.53,15.39-.13-1.06-.41-2.09-.87-3.06-.48-2.43-2.1-4.43-4.9-5.3-1.35-.37-2.72-.39-4.06-.17-2.24-.09-4.52.44-6.48,1.58-8.65,4.83-10.93,22.54,1.63,23.42,2.47-.04,4.72-.99,6.58-2.5,2.47-.9,4.66-2.72,5.98-5.06,1.22-2,2.03-4.38,2.17-6.74,5.14-3.63,12.46-8.3,14.57-9,4.31-1.87,9-2.48,13.57-3.4,7.43-1.42,14-2.81,17.37-3.01,4.13-.18,4.8.36,9.05.71-.03,0-.06,0-.08-.01.47.07,1.64.23,2.02.27,1.33.1,2.43.38,3.77.64.26.98.37,1.57.06,2.46-1.33,3.02-5.15,6.01-7.61,9.08-.54.66-1.17,1.28-1.7,1.91.34-.18.71-.31,1.06-.48,14.81-7.09,15.93-12.44,3.99-23.95Z"/>
  <path class="cls-4" d="m759.5,741.07c-16.37-.43-32.74-.85-49.1-1.67-12.71-.2-23.62-1.8-33.63-3.03-12.77-1.2-25.64-1.06-38.27,1.31-8.13,1.38-10.53,1.85-19.3,2.78-5.82.39-11.66.53-17.47,1.02-9.01,1.11-17.94,2.92-26.78,4.96,1.79-1.73,3.58-3.34,5.37-4.85,1.57-1.28,3.03-2.45,4.18-3.36.21-.17.4-.32.61-.48,6.9-5.26,14.2-9.8,23.06-15.93,1.34-1,3.17-1.63,3.88-3.26,2.73-5.41-2.9-9.5-7.95-7.11-5.71,2.29-10.41,6.38-15.23,10.1-2.79,2.16-5.59,4.33-8.36,6.52-5.74,4.18-11.26,8.66-16.27,13.72-3,3.03-6.73,5.57-8.95,9.24-1.46,2.76-.84,6.58,1.97,8.22,1.79,1.06,3.93.81,5.91.56,1.18,2.07,2.47,4.08,3.59,6.07,5.87,9.27,14.31,18.95,26.03,19.6,1.83.22,3.71.15,5.49.73-1.14-.72-2.41-1.18-3.7-1.57-2.98-1.05-6.02-2.13-8.54-4.08-4.23-3.52-7.53-8.14-10.06-13.01-1.9-4.1-3.2-6.68-4.35-9.43,2.34-.64,4.67-1.34,7.02-1.93,10.58-2.42,20.5-4.89,28.04-5.31,8.51-.53,16.97-1.35,25.39-2.72,13.24-2.46,20.57-4.02,34.21-3.79,10.51.22,20.9,1.74,31.36,2.64,12.55.48,25.13,1.05,37.69.91,20.45-.36,40.79-3.96,61.26-2.85-12.14-2.97-24.63-3.52-37.07-3.99Z"/>
  <polyline class="cls-4" points="1375.02 16.15 1394.22 16.15 1394.22 18.47 1376.43 17.31"/>
  <text class="cls-11" transform="translate(121.09 130.37)"><tspan class="cls-13" x="0" y="0">P</tspan><tspan x="15.2" y="0">ositi</tspan><tspan class="cls-24" x="65.44" y="0">v</tspan><tspan x="78.43" y="0">e</tspan><tspan x="-50.61" y="33.6">cur</tspan><tspan class="cls-27" x="-12.87" y="33.6">r</tspan><tspan class="cls-8" x="-3.4" y="33.6">ent </tspan><tspan class="cls-2" x="40.89" y="33.6">c</tspan><tspan x="53.07" y="33.6">olle</tspan><tspan class="cls-26" x="96.42" y="33.6">c</tspan><tspan class="cls-23" x="108.9" y="33.6">t</tspan><tspan x="118" y="33.6">or</tspan></text>
  <text class="cls-11" transform="translate(302.16 143.57)"><tspan class="cls-13" x="0" y="0">P</tspan><tspan x="15.2" y="0">ositi</tspan><tspan class="cls-24" x="65.44" y="0">v</tspan><tspan class="cls-8" x="78.43" y="0">e ele</tspan><tspan class="cls-1" x="132.83" y="0">c</tspan><tspan x="145.32" y="0">t</tspan><tspan class="cls-27" x="154.81" y="0">r</tspan><tspan x="164.27" y="0">ode</tspan></text>
  <text class="cls-10" transform="translate(636.34 867.97)"><tspan class="cls-15" x="0" y="0">L</tspan><tspan class="cls-25" x="14.26" y="0">O</tspan><tspan class="cls-14" x="34.53" y="0">AD</tspan></text>
  <text class="cls-11" transform="translate(786.23 143.57)"><tspan x="0" y="0">N</tspan><tspan class="cls-26" x="18.09" y="0">e</tspan><tspan class="cls-22" x="31.7" y="0">g</tspan><tspan class="cls-23" x="45.39" y="0">a</tspan><tspan x="59.11" y="0">ti</tspan><tspan class="cls-24" x="75.52" y="0">v</tspan><tspan x="88.51" y="0">e ele</tspan><tspan class="cls-26" x="142.91" y="0">c</tspan><tspan x="155.4" y="0">t</tspan><tspan class="cls-26" x="164.89" y="0">r</tspan><tspan x="174.35" y="0">ode</tspan></text>
  <g>
    <path class="cls-6" d="m1059.4,30.7c-3.62-9.09-10.79-17.5-20.74-19.51-4.95-.77-10.16-.6-15.05.65-9.83-.79-23.19,11.92-27.23,24.15-4.8,15.76,6.12,32.74,20.22,39.53,7.52,3.55,16.11,5.89,24.38,3.85,6.48-1.78,12.66-5.43,16.61-10.96,7.41-10.78,6.96-26.06,1.8-37.71Zm-8.76,27.16c-.12.38-.27.74-.42,1.11-2.78,5.84-6.73,8.12-12.73,9.79-4.25,1.01-13.25-.65-20.59-5.87-5.57-3.9-11.54-13.05-11.45-21.09-.02-.28-.02-.58,0-.9.9-2.58,1.91-5.06,3.19-7.53,4.4-9.31,10.45-11.4,15.74-12.45,2.04-.28,4.09-.33,6.14-.23,2.3,3.57,3.61,7.84,4.24,12.05-.07-4.9-.66-8.81-1.64-11.86.22.02.44.04.67.07,4.56.89,3.13.41,7.54,3.13,3.16,1.98,8.58,9.83,10.14,18.06.77,4.22,1.05,10-.83,15.71Z"/>
    <path class="cls-6" d="m1135.95,66.44c-1.27-.5-4.18-1.94-6.46-2.49-7.65-1.92-15.76-1.43-23.43.13.13-.58.26-1.16.37-1.74,1.07-5.67,1.43-11.46,1.2-17.22-.17-9.68-1.02-19.32-1.82-28.96-3.57,13.44-4.96,27.33-7.98,40.88-.84,3.48-1.97,6.87-2.98,10.3-.59,2.18-1.55,4.38-1.01,6.67.78,2.79,4.08,4.53,6.75,3.24.64-.18,1.13-.6,1.63-1.03.5-.33,1.79-1.21,2.38-1.48,4.43-2.55,15.21-5.1,21.13-5.44,4.48-.36,6.78.51,11.03.8,3.11.04,9.07-.95,10.3-2.47-3.69.74-7.58.04-11.09-1.18Z"/>
    <path class="cls-6" d="m1157.09,61.76c-.02-4.68-1.08-9.3-2.37-13.78-.89,5.72-1.01,11.58.18,17.27.24,1,.32,2.09.71,3.04.17.26.55.31.81.16.19-.11.31-.33.31-.55h0c.23-2.04.36-4.09.35-6.15Z"/>
    <path class="cls-6" d="m1153.34,29.22c-5.27.13-5.26,7.85,0,8,5.27-.13,5.26-7.86,0-8Z"/>
    <path class="cls-6" d="m1192.56,18.2c4-.83,7.83-2.38,11.73-3.44-4.02-.54-8.11-.48-12.15.05-.78-5.03-2.14-9.98-3.73-14.82-.56,5.12-.67,10.33-.08,15.45-4.26.87-8.43,2.23-12.38,3.92,4.29.12,8.61.02,12.87-.55.03.16.05.32.08.47.76,4.28,2.27,8.37,3.12,12.62.11.74.14-.06.23-.37.55-2.61.66-5.27.59-7.93,0-1.82-.1-3.63-.28-5.42Z"/>
    <path class="cls-6" d="m911.83,610.69c-7.48,1.85-15.94-2.76-18.5-10.01-.58-1.83-.94-3.82-.99-5.81-9.17,6.61-21.09,9.28-32.24,7.58-4.42-.78-8.65-2.38-12.78-4.1-2.11-1.09-4.24-2.14-6.38-3.16-.36.61-.56,1.17-.49,1.46,0,.17.53,1.03.68,1.19,2.77,2.84,5.46,4.83,8.36,7.17-4.03-1.29-12.32-3.5-12.87-8.41-.18-2.52,1.38-4.82,3.37-6.25,3.55-2.54,8.21-2.22,12.35-2.72.77-.09,1.54-.25,2.31-.34-.61.37-1.2.77-1.82,1.12-3.2,1.77-7.28,2.72-10.01,4.61-.35.25-.68.58-.99.93,1.18.11,2.35.25,3.52.42,7.58,1.18,11.95,2.05,21.21,2.18,8.62.41,17.36.16,25.78-1.91-.07-4.43,1.38-8.82,5.29-11.32.99-.75,2.07-1.34,3.21-1.81,1.39-1.32,3.19-2.32,5.24-2.82,4.12-.91,8.89-.31,12.23,2.41,3.38,3.49,4.59,8.56,5.28,13.24,1.25,7.38-4.49,14.97-11.75,16.35Zm-12.68-18.5c.17,1.96.81,4.32,1.93,6,.03.04.06.08.08.12.38.44.8.85,1.25,1.22.59.38,1.53.87,2.13,1.17-2.33-2.44-4.09-5.39-5.4-8.51Zm14.43-.51s0-.08-.01-.11c-.16-.61-.76-3.39-1.1-4.13,0-.01,0-.01,0-.02-.07-.16-.15-.31-.24-.46-3.22-1.93-5.54-2.07-8.37-.49-.15.07-1.58.99-1.22,4.1.32,3.14,1.33,7.26,3.12,10.59,1.28.39,1.37.2,2.16.22.03,0,.05,0,.08,0,.49-.1,1.45-.31,2.18-.55.16-.08.41-.2.76-.39.22-.13.38-.23.52-.32.42-.36.82-.76,1.17-1.19.37-.57.8-1.42,1.01-1.83.04-.12.1-.23.14-.35.05-.13.08-.27.12-.41.04-1.56-.22-3.1-.32-4.65Z"/>
    <path class="cls-6" d="m796.72,252.29c-.38-3.83-3.91-7.17-7.73-7.47-3.55-.14-7.7.82-9.72,3.84-.75.5-1.41,1.11-1.93,1.86-.76,1.42-1.03,3.02-.9,4.61-8.3-6.08-18.36-4.92-25.97,2.32,1.38-2.41,3.07-5.1,4.26-7.73-1.98,1.68-3.84,3.5-5.54,5.46-.86,1.01-2.06,2.37-1.29,3.75,1.53,2.29,4.09,3.98,6.81,4.47.75.12,1.38.22,2.13.31-.3-.18-.6-.38-.9-.57-2.21-.95-4.8-3.89-5.72-5.11.58-.16,1.44-.46,1.89-.59,7.82-2.86,16.32-3.53,24.46-1.38.32,1.85,1.17,3.63,2.4,5.01,1.49,1.47,3.58,1.97,5.54,2.51,2.22.6,4.69,1.02,6.91.24,4.45-1.74,5.45-7.26,5.31-11.53Zm-5.75.18c-.61,3.08-.59,3.56-1.63,5.09-.08.1-.17.19-.26.28,0,0-.02,0-.02.01-.08.02-.18.05-.29.07-.51,0-2.22.06-2.72-.09,1.67.23-1.34-.2-2.67-.36-.05,0-.09-.02-.16-.03-.24-.05-.58-.15-.81-.23-.09-.05-.18-.09-.27-.14-.71-.44-2.85-3.55-2.03-5.74.6-1.22,1.69-2.27,2.95-3.06,1.39-.16,2.85.03,4.14.29,1.52.36,1.68.43,2.52,1.27,1.18,1.41.82,1.03,1.26,2.21,0,0,0,0,0,.01,0,.14,0,.27-.01.41Z"/>
    <path class="cls-6" d="m689.33,292.1c-1.2-2.31-2.28-4.87-4.39-6.5-3.58-2.61-8.61-2.38-12.75-1.43-4.73,1.4-7.81,5.57-9.55,9.99-.08.19-.15.39-.23.58-.08.18-.16.39-.24.57-.77,1.62-1.7,3.28-2.32,5.01-2.62-1.11-5.35-1.96-8.12-2.63-3.54-.8-7.35-1.44-10.88-.23-2.15.81-4.18,1.93-6.09,3.23,2.28-2.35,4.89-4.69,7.45-6.6-3.22.59-6.17,2-8.87,3.82-1.8,1.27-3.86,2.55-4.83,4.6-.55,1.17.17,2.34.96,3.2-.04.04-.08.09-.12.13,0,0,0,0,.02.01-.03.03-.06.05-.08.07-.16.25.02.63.32.65.17.02.33-.06.49-.14,1.54,1.76,3.32,3.32,5.52,4.18,1.72.78,3.66.67,5.5.57-.45-.21-.92-.35-1.38-.54-2.31-.75-4.11-2.42-5.58-4.29-.34-.5-.69-1.01-1.03-1.53,3.47-1.73,7.19-3.02,10.98-3.77,4.29-.44,10.51-.28,15.65-.43-.55,1.64-.8,3.33-.36,5.1.52,2.48,2.28,5.3,4.59,6.95,1.05,1.13,2.29,2.12,3.71,2.89,6.06,3.17,13.76,1.06,19.03-2.77,2.86-2.65,4.26-6.52,4.87-10.3.83-3.65-.46-7.23-2.25-10.38Zm-8.78,13.04c-.17.31-.36.61-.5.83,0,0-.02.02-.02.03-2.92,1.87-3.72,2.18-5.33,2.72-3.12,1.31-8.7-.7-9.78-6.03,2.05-2.55,5.93-8.49,7.49-9.23.22-.12.38-.21.5-.28.23-.09.47-.18.71-.25,1.06-.24.66-.29,3.66-.02.45.08.9.18,1.34.31.59,1.03,1.03,2.15,1.53,3.23.27.57.89,1.91,1.14,2.45.12.32.22.64.3.97-.08,2.32.14,1.41-1.03,5.28Z"/>
    <path class="cls-6" d="m446.79,380.81c-3.22-7.12-12.08-14.46-19.99-9.99-1.67,1.01-3.04,2.58-3.41,4.54-.27,1.01-.36,2.05-.39,3.09-2.51,3.44-4.26,7.63-4.1,11.83-5.46-1.93-11.14-3.46-16.94-3.84-2.52-.11-5,.36-7.51.49-3.76.15-7.8,1.06-10.46,3.91-.12.12-.22.24-.33.36.86-2.99,2.52-5.85,3.79-8.67-2.97,3.23-6.49,6.85-6.94,11.41.04.73.21,1.39.47,1.99-.16.3-.4.81-.26.64.13-.11.26-.22.39-.33,1.53,3.05,5.63,4.35,8.96,4.42,1.65.01,3.29-.26,4.93-.42-1.01-.24-2.03-.42-3.04-.62-3.29-.66-7.74-2.1-8.7-5.32,3.29-3.24,7.66-3.2,12.05-3.06,3.24-.03,4.53-.52,7.41-.65,5.39-.12,10.78-.13,16.17-.25.06,1.43.35,2.86.91,4.26,1.75,4.76,6.28,8.11,11.04,9.52,5.84,1.46,11.4-2.51,14.08-7.49,2.59-4.71,4.22-10.7,1.87-15.81Zm-11.92,15.25c-.08.05-.17.11-.27.18-.15.09-.31.18-.47.26-.35.12-.77.22-1.05.28-.27.02-.53.02-.8,0-2.85-.7-2.07-.48-4.13-1.54-2.2-1.18-3.48-3.12-4.08-4.7-.54-1.54-.69-2.2-.71-3.34-.05-3.28.79-6.42,2.21-9.64.89-1.3,2.03-2.43,3-3.67-1.49,1.07-3.29,1.81-4.52,3.19-.26.31-.51.62-.75.94.62-1.45,1.37-3,2.72-3.89,3-1.68,5.79-1.16,8.18.67,3.09,2.61,5.09,5.64,6.08,9.39.23,4.17-1.87,8.75-5.4,11.86Z"/>
    <path class="cls-6" d="m361.97,215.16c-3.91-3.64-9.48-6.11-14.8-4.37-2.78.97-4.76,3.28-6.57,5.5-3.55,3.82-2.8,9.32-1.66,13.99-.21.88-.3,1.79-.27,2.72.04.54.13,1.04.25,1.54-7.62-1.06-16.44-.21-22.39,5.11-4,3.2-5.99,8.01-8.86,12.08-.72-.38-1.29-.92-1.15-1.83.49-2.7,1.93-5.17,3.24-7.55-6.47,6.07-8.18,11.73,2.77,12.33,1.31.13,2.63.2,3.95.27-.55-.22-1.1-.45-1.65-.67-1.86-.69-3.75-1.3-5.63-1.93-.34-.13-.74-.27-1.13-.44.22-.13.44-.28.66-.41,3.37-2.7,6.27-6.27,9.65-8.58,6.08-4.5,13.18-6.7,20.55-8.39,1.52,6.24,9.34,9,15.31,8.21,6.46-.69,12.53-5.34,14.93-11.37,2.32-6.38-2.78-12.19-7.18-16.22Zm-1.15,13.36c-.07.3-.17.59-.24.81-1.18,2.19-1.38,2.15-1.73,2.63-3.71,3.93-5.27,4.55-10.83,4.54-1.05.03-5.85-1.42-5.93-4.84-.27-2.19.32-4.18,1.34-6.2.53-1.03,1.14-2.03,1.89-2.92.71-.58,1.52-1.04,2.27-1.58-1.58.49-3.15.98-4.29,2.25-1.17,1.08-2.21,2.36-3.01,3.76.41-2.67,1.16-5.19,2.85-6.64.71-.55,2.95-2.25,4.62-3.04.31-.13.71-.22.96-.28,3.82-.31,7.31,3.64,9.76,6.98.79,1.09,1.57,2.21,2.17,3.41.08.23.14.46.19.7,0,.06,0,.11,0,.19,0,.09,0,.14-.01.21Z"/>
    <path class="cls-6" d="m684.85,71.87c-12.15-.11-24.27.94-36.42.85-8.25.08-16.5.42-24.76.38-8.87-.19-17.74.21-26.57,1.17-4.63.36-9.18,1.14-13.71,2.12.2-.31.49-.72.9-1.3,3.87-4.74,7.64-6.77,13.65-9.1,4.53-1.64,9.21-3,14.06-3.06-10.09-2.2-22.68-.19-30.77,6.49-3.93,3.16-7.49,8.51-4.13,13.34,4.07,4.9,10.32,7.53,16.25,9.48,7.39,2.01,15.11,2.78,22.36,5.38.45.17.89.37,1.33.57-2.68-2.42-5.89-4.17-9.07-5.85-4.1-2.22-9.08-3.98-11.5-5.11-5.01-2.28-9.91-5.37-12.21-7.39-.36-.23-1-.89-1.32-1.2-.05-.08-.11-.15-.15-.24-.04-.12-.07-.23-.09-.33,0-.02,0-.04,0-.06.12-.46.19-.73.35-1.05,10.41.22,20.75,1.7,31.11,2.65.42.06.93.13,1.23.16-2.18-.27,6.12.79,7.48.94,6.33.68,12.69,1.06,19.06,1.11,14.42.42,28.79-.94,43.16-1.96,19.83-1.48,39.51-4.32,59.29-6.25-19.78-1.7-39.69-1.56-59.53-1.75Z"/>
    <path class="cls-6" d="m1019.76,336.9c-.38-3.83-3.91-7.17-7.73-7.47-3.55-.14-7.7.82-9.72,3.84-.75.5-1.41,1.11-1.93,1.86-.76,1.42-1.03,3.02-.9,4.61-8.3-6.08-18.36-4.92-25.97,2.32,1.38-2.41,3.07-5.1,4.26-7.73-1.98,1.68-3.84,3.5-5.54,5.46-.86,1.01-2.06,2.37-1.29,3.75,1.53,2.29,4.09,3.98,6.81,4.47.75.12,1.38.22,2.13.31-.3-.18-.6-.38-.9-.57-2.21-.95-4.8-3.89-5.72-5.11.58-.16,1.44-.46,1.89-.59,7.82-2.86,16.32-3.53,24.46-1.38.32,1.85,1.17,3.63,2.4,5.01,1.49,1.47,3.58,1.97,5.54,2.51,2.22.6,4.69,1.02,6.91.24,4.45-1.74,5.45-7.26,5.31-11.53Zm-5.75.18c-.61,3.08-.59,3.56-1.63,5.09-.08.1-.17.19-.26.28,0,0-.02,0-.02.01-.08.02-.18.05-.29.07-.51,0-2.22.06-2.72-.09,1.67.23-1.34-.2-2.67-.36-.05,0-.09-.02-.16-.03-.24-.05-.58-.15-.81-.23-.09-.05-.18-.09-.27-.14-.71-.44-2.85-3.55-2.03-5.74.6-1.22,1.69-2.27,2.95-3.06,1.39-.16,2.85.03,4.14.29,1.52.36,1.68.43,2.52,1.27,1.18,1.41.82,1.03,1.26,2.21,0,0,0,0,0,.01,0,.14,0,.27-.01.41Z"/>
  </g>
  <text class="cls-11" transform="translate(1058.39 130.37)"><tspan x="0" y="0">N</tspan><tspan class="cls-26" x="18.09" y="0">e</tspan><tspan class="cls-22" x="31.7" y="0">g</tspan><tspan class="cls-23" x="45.39" y="0">a</tspan><tspan x="59.11" y="0">ti</tspan><tspan class="cls-24" x="75.52" y="0">v</tspan><tspan x="88.51" y="0">e</tspan><tspan x="-45.57" y="33.6">cur</tspan><tspan class="cls-27" x="-7.83" y="33.6">r</tspan><tspan class="cls-8" x="1.64" y="33.6">ent </tspan><tspan class="cls-2" x="45.93" y="33.6">c</tspan><tspan x="58.11" y="33.6">olle</tspan><tspan class="cls-26" x="101.46" y="33.6">c</tspan><tspan class="cls-23" x="113.94" y="33.6">t</tspan><tspan x="123.04" y="33.6">or</tspan></text>
  <text class="cls-11" transform="translate(602.62 141.1)"><tspan x="0" y="0">Se</tspan><tspan class="cls-23" x="28.84" y="0">p</tspan><tspan x="43.99" y="0">a</tspan><tspan class="cls-12" x="58.1" y="0">r</tspan><tspan class="cls-23" x="67.17" y="0">at</tspan><tspan x="89.99" y="0">or</tspan></text>
  <text class="cls-9" transform="translate(92.23 69.05)"><tspan x="0" y="0">DISCHARGING</tspan></text>
</svg>