<?xml version="1.0" encoding="UTF-8"?>
<svg id="Layer_1" data-name="Layer 1" xmlns="http://www.w3.org/2000/svg" viewBox="0 0 1172.35 1284.83">
  <defs>
    <style>
      .cls-1 {
        fill: #e77258;
      }

      .cls-2 {
        fill: #df7660;
      }

      .cls-3 {
        fill: #1fb697;
      }
    </style>
  </defs>
  <path class="cls-1" d="m563.47,665c-1.48-11.93-3.13-23.89-6.28-35.52-2.71-9.76-5.34-19.52-9.26-28.89-1.9-5.11-6.04-15.25-8.36-20.32-3.3-6.95-6.17-14.13-10.07-20.78-5.24-9.96-11.35-19.39-17.52-28.78-6.17-9.36-12.21-18.82-18.9-27.83-9.12-11.94-18.07-24.12-28.86-34.63-10.67-10.5-22.92-19.17-34.34-28.81-9.6-7.67-19.23-15.52-29.93-21.65-15.52-9.12-32.45-15.4-48.94-22.47-4.34-1.75-8.69-3.45-13.05-5.15-4.73-2.01-9.47-4.01-14.21-6.01-10.88-4.43-22.31-7.57-33.97-9.06-7.18-.87-14.32-2.23-21.55-2.44-8.54-.2-17.02,1.37-25.46,2.45-6.68.85-13.27,2.33-19.75,4.15-11.7,3.14-23.25,6.85-34.4,11.63-7.02,2.97-14.16,5.76-20.74,9.64-10.35,6.16-20.21,13.43-28.65,22.07-7.63,3.5-15.19,7.17-22.42,11.46-13.96,8.11-26.73,18.21-38.27,29.48-29.75,30.25-52.65,67.59-65.27,108.14-3.69,12.46-5.68,25.3-7.68,38.11-1.02,6.27-1.91,12.54-2.55,18.83-1.79,14.36-2.7,28.8-3.03,43.26.28,8.06.52,16.12.81,24.18.82,8.39,1.65,16.77,2.47,25.16,2.68,21.23,5.48,42.74,13.6,62.71,4.31,10.55,8.84,21.03,14.48,30.96,6.86,12.33,14.97,23.88,23.59,35.03,10.76,14.17,22.62,27.51,36.42,38.8,18.72,15.33,37.84,30.97,60.29,40.5,28.99,13.16,60.18,20.7,91.74,24.31,19.38,2.45,39.09,3.85,58.55,1.46,9.64-1.27,19.32-2.36,28.88-4.21,11.67-2.32,23.12-5.58,34.59-8.72,7.11-1.77,14.04-4.14,20.94-6.6,6.09-2.1,12.2-4.16,18.11-6.74,13.36-5.52,26.67-11.27,39.12-18.65,6.7-3.92,12.88-8.63,18.98-13.41,5.17-3.94,10.3-7.96,15.05-12.41,9.63-9.32,18.39-19.52,27.13-29.67,10.47-13.33,21.65-26.39,29.26-41.64,4.85-9.49,8.87-19.37,12.99-29.19,4.63-11.52,8.9-23.28,11.42-35.47,3.01-16.68,5.11-33.56,5.79-50.5.79-10.92.85-21.91-.74-32.76Zm-97.4,50.3c-.15,2.15-.34,4.3-.56,6.44-2.52,14.28-7.3,28.1-12.51,41.61-.78,1.74-1.59,3.46-2.43,5.17-4.28,8.83-9.85,16.94-15.62,24.86-.1.14-.2.27-.3.4-4.81,5.97-9.78,11.8-14.82,17.57-4.91,5.62-10.31,10.81-16.05,15.59-1.94,1.38-3.91,2.71-5.92,3.98-8.84,5.49-18.08,10.32-27.56,14.62-.41.15-.81.3-1.22.46-6.16,2.3-12.31,4.6-18.47,6.91-8,2.4-16,4.79-24,7.18-11.76,3.33-23.62,6.41-35.68,8.39-8.95.91-17.97,1.03-26.96.8-9.01-.19-18.02-.77-26.98-1.79-3.53-.54-7.04-1.14-10.55-1.81-13.23-2.47-26.33-5.68-39.06-10.08-1.38-.48-2.76-.97-4.13-1.48-.68-.32-1.37-.64-2.05-.98-12.6-6.27-24.36-14.04-35.59-22.5-10.02-7.96-19.4-16.71-27.8-26.37-1.34-1.52-2.63-3.08-3.91-4.65-6.23-8.4-12.01-17.13-17.15-26.23-2.69-4.8-5.24-9.69-7.56-14.68-.99-2.61-1.91-5.25-2.74-7.92-3.49-10.97-5.8-22.25-7.56-33.62-.33-2.87-.66-5.74-.99-8.61-1.67-11.98-2.01-24.08-2.61-36.15.09-8.3.24-16.61.32-24.91.64-18.1,1.53-36.18,2.93-54.23.28-3.76.6-7.53,1.02-11.28,2.52-15.77,7.14-31.12,12.36-46.2,1.58-4.62,3.25-9.22,5.08-13.74.56-1.27,1.13-2.54,1.71-3.81,1.31-2.86,2.69-5.69,4.11-8.5-.54,5.46-.93,10.93-1.26,16.4-.16,4.64-.31,9.28-.46,13.91,0,.08,0,.18,0,.25.28-.49.58-.96.87-1.45,7.94-13.79,20.29-32.21,25.04-37.56,5.48-6.79,11.24-13.39,17.7-19.26,2.15-1.96,4.37-3.83,6.64-5.65.99-.72,2-1.43,3.02-2.12,4.42-2.99,9.1-5.58,13.94-7.82.19-.09.39-.17.58-.26,7.14-2.75,14.59-4.65,22.13-5.92,12.44-1.2,24.98-1.17,37.46-.88,6.61.13,13.23.3,19.81.91.61.11,1.22.2,1.83.32,5.2.97,10.22,2.59,15.15,4.47,10.85,5.06,20.91,11.59,30.95,18.09,19.33,11.34,39.43,21.52,57.68,34.58,5.16,4.16,10.3,8.35,15.54,12.42,12.2,9.53,24.1,19.52,34.12,31.38,1.74,1.98,3.43,4,5.09,6.05,5.12,6.87,10.05,13.87,15.04,20.84,6.85,9.24,12.92,19,18.83,28.87,2.84,5.53,5.69,11.06,8.52,16.6.85,1.97,1.69,3.94,2.54,5.91.47,1.37.96,2.73,1.48,4.09,4.23,11.55,8.41,23.16,10.76,35.27.21,1.02.38,2.05.57,3.07.88,10.99.29,22.06-.31,33.05Z"/>
  <path class="cls-1" d="m407.3,676.42c-4.77-.48-9.05-2.88-13.54-4.38-10.78-3.87-8.48-3.54-19.84-8.45-4.83-2.2-9.57-3.78-14.52-5.5-5.91-2.32-11.84-4.7-18-6.25-12.3-2.66-24.95-2.18-37.43-3.25-1.54-.2-3.09-.37-4.64-.55-8.64-1.2-17.3-2.32-26-3.01-.45-.04-.9-.06-1.35-.1-5.14-26.94-13.54-53.1-21.23-79.37-10.2,23.57-16.83,48.56-22.29,73.61-.67,3.33-1.35,6.65-2.02,9.98-10.2,2.27-20.32,4.96-30.59,6.9-.15.03-.29.05-.44.08-13.7,1.53-4.57.31-21.16,2.71-7.83.71-14.84,4.35-22.1,7.04-19.42,5.84-38.53,12.66-57.94,18.47,12.67,6.17,25.96,11.09,39.44,15.16,6.15,1.79,12.25,3.77,18.5,5.19,4.17.78,8.38,1.28,12.6,1.79,10.69,1.97,20.71,6.87,31.57,8.1,7.73,1.21,15.5,1.86,23.32,2.12.21,0,.41,0,.62-.01,1.1,15.03,3.46,29.99,6.26,44.77,1.6,8.93,3.06,17.91,5.65,26.62,1.54,5.93,3.9,11.57,6.4,17.15.11.28.22.56.33.84,1.25,3.15,2.41,6.33,3.64,9.49.61,1.64,1.26,3.3,1.69,5.01-.14-.17-.29-.34-.43-.51-.02,1.98-.38,4.47,1.09,5.99,1.06.82,2.95.41,3.89-.4,2.25-2.2,3.74-5.07,4.89-7.98,2.8-6.83,5.02-13.87,6.57-21.09,1.71-6.11,3.68-12.15,5.47-18.23,4.09-11.56,6.43-23.62,8.1-35.75,1.42-10.07,2.71-20.18,3.31-30.34,4.85-.46,9.7-.99,14.53-1.65,8.66-1.21,17.45-2,25.81-4.71,8.15-2.33,15.76-6.24,23.96-8.39,5.99-1.4,12.1-2.19,18.15-3.32,6.6-1.59,13.22-3.15,19.9-4.38,3.91-.68,7.69-1.9,11.42-3.22,5.61-2.27,11.78-3.62,16.69-7.27,1.1-.81,2.24-1.59,3.19-2.58-1.16,0-2.31-.14-3.45-.31Z"/>
  <path class="cls-3" d="m1172.33,619c.22-15.9-1.44-31.74-3.32-47.5-2.59-20.83-5.11-42.05-14.28-61.2-4.12-10.18-8.86-20.13-14.78-29.39-5.22-8.37-11.15-16.25-17.16-24.06.98,1.26,1.95,2.53,2.93,3.79-10.28-13.19-19.99-26.88-31.09-39.4-6.04-6.53-12.98-12.11-20.06-17.46-10-8.07-20.77-15.29-32.74-20.11-2.65-1.12-5.31-2.25-7.96-3.37-3.65-1.56-7.32-3.05-10.97-4.61-12.97-4.91-25.85-10.16-39.17-14.04-11.34-3.19-23.01-5-34.68-6.46-11.89-1.73-23.88-3.03-35.91-2.51-13.2.32-26.26,2.35-39.32,4.12-15.63,2.29-31.16,5.97-45.74,12.13-10.1,4.27-20.38,8.27-29.71,14.1-6.85,4.18-13.21,9.09-19.54,14.02-11.18,8.32-21.54,17.72-31.02,27.93-6.45,7.12-12.47,14.58-18.09,22.34-13.15,8.85-25.45,18.9-36.41,30.41-6.17,6.4-12.12,13.35-17.36,20.47-10.02,13.23-20.04,26.56-28.3,40.98-8.31,14.45-15.42,29.57-21.7,45.01-4.48,11.3-9.02,22.57-12.24,34.31-8.75,28.99-12.82,59.09-16.15,89.12-1.46,17.74-3.42,35.5-2.79,53.32.24,8.02.91,16.03,1.97,23.98,1.32,9.75,2.42,19.56,4.63,29.16,2.65,12.85,7.71,24.96,12.94,36.94,3.69,8.42,7.84,16.66,12.6,24.53,4.8,7.98,10.72,15.19,16.38,22.57,6.4,8.25,13.36,16.09,21.05,23.15,7.79,7.13,16.26,13.48,24.76,19.73,12.09,8.41,25.73,14.15,39.27,19.77,12.6,5.4,26.1,8.35,39.69,9.9,12.15,1.82,24.43,2.63,36.71,2.92,12.56.34,25.09-.92,37.54-2.54,6.62-.27,13.13-1.88,19.66-2.97,12.92-2.19,25.72-5.02,38.49-7.96,16.95-4.37,34.02-8.39,50.79-13.46,11.43-3.64,22.52-8.35,33.31-13.56,10.75-5.41,20.81-12,30.84-18.6,8.63-5.29,17.32-10.51,25.28-16.81,9.9-7.5,19.79-15.11,27.94-24.56,18.87-20.88,35.48-43.79,49.83-67.98,7.76-13.21,13.63-27.38,19.38-41.55,5.54-14.9,10.17-30.14,14.78-45.35,5.36-17.09,9.94-34.4,13.75-51.9,2.11-9.74,3.21-19.65,4.54-29.51.13-1,.25-1.99.36-2.99l-.26,1.9c.7-5.57,1.25-11.15,1.3-16.77Zm-124.48,115.34c-.52,1.44-1.08,2.87-1.64,4.3-.22.48-.43.96-.65,1.44-8.64,18.39-19.82,35.45-31.68,51.91-.18.26-.37.52-.56.79-.88,1.09-1.76,2.18-2.66,3.25-6.62,7.73-13.28,15.54-20.95,22.25-10.66,7.43-22.24,13.48-33.16,20.53-6.71,4.11-13.63,7.87-20.73,11.28,0,0,0,0,0,0-13.33,4.69-27.16,7.69-40.85,11.1-22.45,5.62-45.14,10.17-68,13.72-.5.06-.99.12-1.49.17-7.7.84-15.45,1.18-23.2,1.12-8-.12-16.01-.32-23.98-1.03-6.38-1.18-12.68-2.78-18.82-4.88-1.05-.36-2.1-.75-3.14-1.14-7.49-3.45-14.77-7.36-21.52-12.08-7.16-5.99-13.81-12.59-19.93-19.64-1.11-1.27-2.2-2.57-3.29-3.87-3.09-4.36-5.93-8.9-8.54-13.57-2.59-4.64-5.07-9.35-7.33-14.16-2.53-6.87-4.49-13.95-6.08-21.1-.81-3.71-1.49-7.45-2.09-11.2-1.71-15.96-1.57-32.07-.46-48.08.64-12.34,1.73-24.65,2.98-36.94.61-4.22,1.22-8.44,1.85-12.66,1.93-8.84,3.45-17.77,5.66-26.53,2.42-9.71,4.37-19.54,7.23-29.13,4.75-18.32,10.63-36.29,17.12-54.06,1.6-3.77,3.19-7.55,4.77-11.32,1.83-3.9,3.65-7.81,5.46-11.72,13.99-14,28.61-27.41,44.18-39.63,12.94-9.6,26.87-17.77,41.28-25,3.76-1.91,7.59-3.69,11.44-5.41.18-.07.37-.15.55-.22,10.89-4.25,22.26-7.17,33.79-9.11,24.04-2.53,48.41-2.91,72.47-.47,7.13,1.22,14.2,2.8,21.14,4.84,12.77,3.93,25.17,8.96,37.68,13.64.44.17.88.34,1.31.51.58.29,1.18.56,1.75.86,4.68,2.41,9.21,5.13,13.55,8.12,8.01,7.01,14.92,15.18,21.54,23.51,5.15,6.56,10.54,12.92,15.83,19.37,5.08,7.09,9.7,14.52,13.57,22.33,5.43,15.72,8.17,32.22,10.69,48.64,1.26,10.79,1.61,21.67.63,32.48-5.62,32.98-14.83,65.2-25.71,96.8Zm25.42-93.92c-.2,1.78-.44,3.56-.72,5.34.24-1.78.48-3.56.72-5.34Z"/>
  <path class="cls-3" d="m997.47,681.73c-6.54-1.16-13.14-2.1-19.36-4.54-9.72-3.4-19.07-7.84-29.18-10.07-4.16-1.06-8.16-2.68-12.34-3.65-7.22-1.35-14.54-2.23-21.88-2.59-7.94.09-15.86.55-23.8-.15-16.02-.4-32.09-1.14-48.07.48-26.02,3.04-51.63,9.81-75.84,19.8,9.54,1.38,18.93,3.56,28.45,5.1,13.55,2.58,27.16,4.88,40.66,7.7,13.57,2.88,27.04,6.45,40.81,8.27.22.03.44.06.65.1,7.51,1.07,15.08,1.94,22.67,1.97,6.66-.36,13.25-1.64,19.79-2.94,1.91-.28,3.82-.58,5.73-.9.95-.13,1.89-.27,2.84-.41,6.3-.63,12.68-.09,18.94-1.17,12.39-1.64,6.01-.98,16.01-2.31,10.62-1.35,21.35-4.07,30.22-10.29,1.96-1.35,3.97-2.62,5.86-4.06-.72-.11-1.45-.19-2.16-.34Z"/>
  <path class="cls-3" d="m849.96,1081.65c-6.19,6.14-13.06,11.55-19.53,17.4-13.49,10.17-26.8,20.64-41.07,29.72-17.31,11.17-40.33,21.63-44.67,22.97-6.74,2.54-13.63,4.62-20.47,6.87-2.21.53-4.04,1.47-6.66,2.27-14.17,4.86-28.22,10.07-42.15,15.6-16.13,6.34-32.78,11.41-49.72,15.06-14.42,3.15-29.03,5.36-43.53,8.16-16.68,3.01-33.37,5.9-50.11,8.53-8.77.98-17.52,2.1-26.31,2.84-12.61.48-25.21,1.48-37.84,1.09-5.98-.09-11.95-.55-17.89-1.22-1.05-.17-2.1-.33-3.15-.51-13.29-2.24-26.16-6.41-38.89-10.77-11.13-3.7-22.16-7.68-33.2-11.62-1.5-.59-2.99-1.21-4.49-1.81-5.13-2.35-10.13-5-14.95-7.95-4.85-2.92-9.56-6.06-14.13-9.4-15.05-11.93-30.01-23.99-44.72-36.36-9.77-8.39-19.05-17.41-27.24-27.36-7.29-10.25-13.93-21-21.88-30.76.54-.6,1.1-1.19,1.68-1.75.71-.42,1.43-.81,2.17-1.19,3.44-1.25,7.01-2.14,10.63-2.67,1.12-.15,2.24-.3,3.35-.45,3.63-.45,7.25-.91,10.88-1.38,28.23-3.7,34.73-4.62,58.62-7.45,27.38-2.79,54.94-3.71,82.39-5.84-24.42-7.29-48.92-14.27-73.79-19.88-23.64-4.25-47.45-7.48-71.31-10.22-9.21-.83-18.45-2.71-27.71-2-5.66.71-11.43,1.1-16.89,2.8-3.92,1.47-7.82,3.04-11.53,4.99-3.75,2.1-6.99,4.96-10.41,7.53-7.07,5.31-12.18,12.67-17.31,19.76-1.12,1.65-2.18,3.33-3.23,5.02-1.95,1.26-3.77,2.76-5.61,4.2-3.59,2.56-6.91,5.45-9.24,9.25-1.8,2.42-3.96,4.64-5.22,7.41-2.62,5.85-5.3,11.73-6.81,17.99-3.69,11.56-5.4,23.58-7.22,35.54-.91,7.29-2.18,14.54-2.74,21.86.02,7.43,1.9,14.36,5.62,20.78,11.08,19.43,37.16,26.29,56.34,14.77,5.52-3.33,10.56-7.81,14.1-13.24,14.78,13,30.94,24.39,46.81,36,13.77,9.76,27.07,20.31,41.81,28.59,17.18,9.58,35.8,16.35,54.64,21.87,14.91,4.48,29.81,9.06,45,12.47,12.15,2.51,24.52,4.03,36.89,5.05,14.13.96,28.32.75,42.43-.4,9.19-.61,17.93-1.04,27.17-2.61,24.61-2.96,49.01-7.35,73.25-12.49,14.32-2.89,28.44-6.63,42.5-10.55,12.24-3.7,24.16-8.34,35.87-13.47,16.58-7.06,31.96-16.47,47.42-25.65,7.46-4.26,14.92-8.51,22.34-12.82,1.02-.52,2-1.11,2.94-1.75,6.32-3.8,12.73-7.46,18.86-11.57,7.96-5.4,15.55-11.33,23.01-17.4,17.81-14.46,32.99-31.72,47.17-49.67,3.87-4.86,7.83-9.65,11.7-14.52,4.69-6.42,9.14-13.03,13.73-19.53,8.43-14.43,17.05-28.76,24.82-43.56-10.53,11.43-21.63,22.3-32.51,33.4Z"/>
  <path class="cls-2" d="m1003.95,129.62c-3.76,5.48-7.31,11.1-10.97,16.65-7.15,11.11-12.79,23.12-19.34,34.59-5.75,10.97-12.51,21.3-19.78,31.3-.05.08-.11.16-.16.24-7.08-11.04-14.66-21.61-22.84-31.99-4.16-5.2-8.3-10.41-12.46-15.61-3.49-3.78-6.94-7.61-10.37-11.44-8.42-9.35-15.89-19.52-24.46-28.73-8.21-8.72-17.27-16.58-26.12-24.64-12.13-10.84-23.79-21.46-36.86-31.29-14.85-11.3-29.52-22.96-45.39-32.83-8.26-4.93-17.16-8.65-26.02-12.34-5.28-2.28-10.72-4.19-16.27-5.69-30.23-7.71-60.88-14.35-92.01-17.02-17.39-1.38-34.85-.7-52.27-.4-11.39.92-22.85,1.12-34.17,2.73-27.39,3.71-7.91.81-38.02,5.24-17.24,2.78-34.32,6.81-50.67,13.01-30.83,11.59-59.84,27.81-85.58,48.38-9.95,7.43-19.23,15.67-28.39,24.05-11.74,10.38-22.93,21.38-33.32,33.13-23.62,25.89-41.6,56.2-57.26,87.4-5.62,11.2-11.01,22.51-15.91,34.04-3.12,7.82-5.83,15.8-8.69,23.71,5.2-6.82,10.19-13.79,15.53-20.5,8.48-10.09,17.21-19.96,26.09-29.69,14.38-15.62,28.95-31.12,44.8-45.26,18.81-16.99,40.44-30.94,71.32-49.17,25.05-15.2,50.87-26.19,57.73-28.72,23.84-9.5,48.77-16.15,74.11-20.19,2.07-.33,4.15-.64,6.22-.94,9.64-1.02,19.27-2.12,28.91-3.09,9.09-.38,18.18-.77,27.27-1.15,8.14.06,16.29.11,24.43.17,10.49.19,20.99.74,31.41,1.95,9.67,1.51,19.21,3.72,28.77,5.84,15.55,3.84,31.34,7.2,46.37,12.79,7.63,3.6,15.01,7.78,21.85,12.73,1.84,1.32,3.65,2.67,5.46,4.02,3.04,2.41,6.08,4.81,9.12,7.22,20.55,16.01,38.83,34.61,57.22,53,4.59,4.66,9.04,9.48,13.22,14.52,2.74,3.68,5.49,7.35,8.27,10.99-2.61-.24-5.22-.47-7.83-.7-8.2-.64-16.35-1.64-24.49-2.7-7.11-1.01-14.24-2.74-21.4-2.84-3.23.43-6.47.87-9.7,1.3-11,3.12-20.74,11.37-24.6,22.23-4.16,7.86-3.93,17.74-1.46,26.14,2.05,4.36,3.31,9.19,6.15,13.11,2.99,3.75,5.7,7.75,9.03,11.21,2.2,2.26,4.68,4.22,7.1,6.23,4.62,3.5,9.03,7.36,14.14,10.15,13.83,6.95,28.71,11.66,44.05,13.76,7.8,1.06,15.58,2.28,23.45,2.67,8.24.62,16.52.36,24.77.86,9.6.71,19.12,2.18,28.69,3.11,12.2,1.35,24.44.27,36.53-1.58,5.19-.81,10.08-3,14.76-5.3,4.24-2.95,8.33-6.16,11.22-10.51,4.44-5.13,7.17-11.34,9.64-17.58,2.51-5.83,4.34-11.92,6.11-18.01,2.47-7.65,5-15.3,7.74-22.86,3.26-8.28,6.41-16.62,8.49-25.3,3.56-14.03,6.52-28.2,9.58-42.34,2.26-7.78,4.5-15.57,6.71-23.37,2.24-6.2,4.41-12.42,6.61-18.63,1.5-4.23,3.02-8.47,4.49-12.71-6.81,8.92-13.75,17.73-20.55,26.66Z"/>
</svg>