<?xml version="1.0" encoding="UTF-8"?>
<svg id="Layer_1" data-name="Layer 1" xmlns="http://www.w3.org/2000/svg" viewBox="0 0 1117.96 655.47">
  <defs>
    <style>
      .cls-1 {
        letter-spacing: -.02em;
      }

      .cls-2, .cls-3 {
        fill: #f17457;
      }

      .cls-4, .cls-5 {
        fill: #d1c359;
      }

      .cls-6 {
        fill: #253659;
      }

      .cls-7, .cls-8 {
        fill: #04bf9d;
      }

      .cls-3, .cls-8, .cls-9, .cls-5, .cls-10 {
        font-family: Helvetica, Helvetica;
        font-size: 33px;
      }

      .cls-9 {
        fill: #243456;
      }

      .cls-11 {
        fill: #fff;
        stroke: #000;
        stroke-miterlimit: 10;
        stroke-width: 6px;
      }
    </style>
  </defs>
  <line class="cls-11" x1="59.05" y1="42.02" x2="59.05" y2="591.54"/>
  <line class="cls-11" x1="56.3" y1="588.56" x2="929.76" y2="588.56"/>
  <path d="m30,74.68c2.2.33,5.11-2,6.83-3.13,3.18-2.08,5.22-5.33,7.16-8.52s3.81-6.41,5.43-9.75c1.83-3.77,3.87-9.61,7.69-11.86l-4.45,2.54c4.94-1.94,9.33,4.85,12.91,7.29,5.63,3.84,12.38,5.35,17.49,10.08.47.43,4.79-3.37,5.2-3-6.43-5.95-15.28-8.03-21.93-13.84-2.44-2.13-5.17-4.76-8.57-3.48-1.78.67-3.7,1.98-5.27,3.04-5.08,3.41-6.91,10-9.71,15.14s-5.71,11.37-10.4,14.91l2.58-1.53-.63.36,2.61-1.47c-.68.25-1.04.33-1.76.22-1.57-.24-3.68,3.23-5.2,3h0Z"/>
  <path d="m908.34,562.33c5.42,3.38,10.22,7.51,13.81,12.85,3.26,4.85,8.14,12.14,5.21,17.99-4.67,9.33-16.86,12.27-24.52,18.62,1.51-1.25,3.67-1.74,5.2-3,7.49-6.22,19.19-9.24,24.26-18.12,3.27-5.73-1.09-12.3-4.15-17.25-3.65-5.9-8.76-10.44-14.61-14.09-.83-.52-4.43,3.48-5.2,3h0Z"/>
  <path class="cls-7" d="m842.47,46.3h46.93c2.05,0,6.06-3.4,7.84-4.42s3.68-2.12,5.5-3.2c.49-.29,1.74-1.37,2.25-1.37-11.04,0-22.11.27-33.14-.02-4.23-.11-9.01-1.16-13.1.22-3.44,1.16-6.35,4.19-9.85,1.63-.55-.4-7.07,3.98-7.84,4.42s-7.26,4.94-7.75,4.58c3.13,2.29,5.89.1,8.92-1.19,4.38-1.87,9.42-.78,14.04-.66,11.03.29,22.11.02,33.14.02l15.59-9h-46.93c-2.05,0-6.06,3.4-7.84,4.42s-3.68,2.12-5.5,3.2c-.49.29-1.74,1.37-2.25,1.37h0Z"/>
  <path class="cls-2" d="m835.71,149.77c8.69-1.37,17.44-1.99,26.23-2.05,4.3-.03,8.78-.23,13.05.3s7.84,1.93,12.01,1.75c2.17-.09,5.96-3.34,7.84-4.42s3.68-2.12,5.5-3.2c.52-.31,1.7-1.35,2.25-1.37-4.17.18-7.94-1.23-12.01-1.75s-8.77-.33-13.05-.3c-8.79.07-17.54.68-26.23,2.05-2.44.39-5.71,3.19-7.84,4.42s-5.31,4.19-7.75,4.58h0Z"/>
  <path class="cls-6" d="m842.36,249.66c12.74-1.3,25.43-.85,38,1.36,1.57.28,6.43-3.61,7.84-4.42,1.84-1.06,3.68-2.12,5.5-3.2.39-.23,1.89-1.44,2.25-1.37-12.58-2.2-25.26-2.66-38-1.36-2.32.24-5.83,3.26-7.84,4.42s-5.43,4.34-7.75,4.58h0Z"/>
  <path class="cls-6" d="m150.86,409.12c3.58-13.53,7.54-27.03,12.53-40.11.99-2.61,1.69-5.34,2.89-7.86s3-4.95,4.22-7.58c2.74-5.87,4.92-11.97,7.74-17.81,2.45-5.08,5.17-10.06,8.39-14.7s6.37-9.74,9.98-13.83c2.6-2.94,7.87-5.45-5.33,2.01,1.42-.8,2.84-1.59,4.26-2.39,3.11-1.76,6.22-3.55,9.3-5.36,5.11-2.99,9.57-6.06,13.37-8.22,3.04-1.74,6.08-3.49,9.11-5.25,2.19-1.27,13.31-7.87,3.51-2.05-9.18,5.45.7.57,3.65-.28,3.25-.93,6.54-1.71,9.8-2.58,5.73-1.53,11.22-1.23,17.05-1.79,2.99-.29,5.88-1.19,8.86-1.56,3.66-.45,7.18-.67,10.78-1.59,26.09-6.67,52.61-11.54,79.22-15.68,13.64-2.12,27.45-2.5,41.2-3.45s26.68.61,40.02-1.47c13.91-2.17,27.47-3.75,41.58-3.96s28.38-1.19,42.58-1.59c6.16-.17,12.33.25,18.48-.26,6.94-.58,13.88-1.49,20.8-2.3,13.48-1.57,26.97-3.11,39.96-7.23,5.25-1.67,10.35-3.67,15.41-5.82,5.79-2.46,11.7-4.28,17.24-7.31s11.22-6.36,16.77-9.65l1.21-.72c3.41-2.03,1.98-1.21-4.31,2.46,1.13-.59,2.23-1.24,3.34-1.86,3.23-1.81,6.46-3.64,9.67-5.48,6.42-3.67,13.07-7.18,19.23-11.28,5.4-3.59,9.72-8.45,14.38-12.9s9.68-8.63,13.82-13.67,7.77-10.3,12.37-15.04,8.81-9.52,11.1-15.74,2.59-13.43,3.71-20.12c2.49-14.84,6.5-29.4,12.7-43.13-.65,1.45-6.39,3.59-7.84,4.42-1.84,1.06-3.68,2.12-5.5,3.2-.49.29-2.03.88-2.25,1.37-5.46,12.08-9.23,24.8-11.74,37.81-2.24,11.6-1.99,24.1-9.34,33.96-3.54,4.75-8.13,8.55-11.94,13.06s-6.94,9.62-11.18,13.94c-3.79,3.85-7.93,7.33-11.78,11.12-4.26,4.19-8.41,8.58-13.68,11.52-6.24,3.48-12.45,6.99-18.6,10.61-.9.53-1.8,1.07-2.7,1.6-6.72,4.01,12.52-6.05,2.41-1.66-3.24,1.41-6.65,2.37-9.91,3.72-11.25,4.69-22.5,8.81-34.59,10.79-26.8,4.39-53.78,5.75-80.85,6.74-14.29.52-28.61,0-42.88,1.18-12.68,1.06-25.09,4.5-37.86,4.5-14.25,0-28.26.61-42.49,1.31-13.68.67-27.05,2.86-40.56,4.97s-26.75,5.55-40.2,7.99c-5.92,1.07-11.76,2.28-17.55,3.91s-12.06,2.13-18.2,3.28-12.14.57-18.14,1.68-12.84,2.96-18.78,5.16c-4.96,1.83-9.47,4.58-14.03,7.21-2.75,1.59-5.51,3.18-8.23,4.81-5.41,3.25,5.3-2.97-.18.14-1.66.94-3.32,1.89-4.98,2.84-6.31,3.62-12.65,7.21-18.78,11.11l-1.51.97c-4.26,2.78-1.9,1.48,7.08-3.91-1.43.79-2.84,1.59-4.26,2.39-3.64,2.07-7.27,4.15-10.87,6.28-5.16,3.06-8.57,5.92-11.88,11-3.59,5.51-7.85,10.39-11.11,16.15s-6.13,12.15-8.77,18.42-6.43,12.01-8.56,18.31c-4.96,14.66-10,29.17-13.97,44.17.3-1.13,6.7-3.76,7.84-4.42,1.33-.77,7.34-3.04,7.75-4.58h0Z"/>
  <path class="cls-7" d="m147.4,475.7c1.88,3.79,3.3,7.78,5.28,11.52-.12-.22,5.23-2.54,5.2-3l-.09-1.13c.01.17-2.37,1.33-2.61,1.47-.27.16-2.61,1.23-2.58,1.53l.09,1.13,5.2-3c-1.98-3.74-3.41-7.73-5.28-11.52.04.07-5.27,2.84-5.2,3h0Z"/>
  <path class="cls-7" d="m143.93,463.58c2.59,7.18,2.81,15.12,6.13,22.05,1.7,3.54,4.35,5.85,7.03,8.62s4.14,5.88,7.62,7.41c1.11.49,4.15-3.46,5.2-3-3.47-1.53-5.06-4.77-7.62-7.41s-5.33-5.08-7.03-8.62c-3.32-6.92-3.54-14.87-6.13-22.05.1.29-5.33,2.63-5.2,3h0Z"/>
  <path class="cls-7" d="m143.93,480.43c3.1,9.49,6.79,18.69,13.85,25.96,3.41,3.51,6.91,7.65,10.94,10.45,3.77,2.61,8.19,4.02,11.82,6.88s6.79,5.92,10.7,8.39c4.21,2.66,8.68,4.98,13.18,7.11,9.6,4.53,19.09,6.25,29.59,7.04,4.97.38,9.87,1.35,14.85,1.6,5.76.28,11.57.06,17.33.07,4.94,0,9.9-.11,14.84.14,5.53.28,10.94,1.27,16.49,1.32s10.72-.02,16.08.81,10.2,2.08,15.38,2.61,9.85,1.1,14.8,1.73c5.54.7,11.03-.03,16.58.05,4.85.07,9.52,1.32,14.35,1.68,5.86.43,11.74.05,17.58-.43,10.65-.88,21.41-2.77,32.08-2.72s21.28-.92,31.7,2.07c4.51,1.29,8.87,1.41,13.52,1.69,5.83.36,11.63,1.03,17.46,1.29,10.86.5,21.6-1.08,32.43-1.47s21.66-1.38,32.45-2.45c5.07-.51,9.95-1.71,14.96-2.54,5.19-.86,10.49-.8,15.73-.64,9.97.3,20.45-.67,30.29,1,6.11,1.04,11.67,3.8,17.39,6.07s11.97,4.3,18.11,6.12c5.77,1.7,10.93,4.82,16.57,6.86s11.78,4.04,17.79,5.43c5.92,1.37,11.68,2.09,17.13,4.94,2.28,1.2,4.41,2.42,6.98,2.91,2.8.54,5.71.18,8.54.5,5.51.61,10.63,2.28,16.26,2.31,6.03.03,12.04-.75,18.04-1.2,2.25-.17,5.89-3.3,7.84-4.42,1.84-1.06,3.68-2.12,5.5-3.2.54-.32,1.68-1.33,2.25-1.37-10.56.79-20.34,1.78-30.79-.47-4.64-1-9.7-.16-14.2-1.7-4.73-1.62-8.61-4.42-13.6-5.57-10.58-2.44-21.18-4.68-31.14-9.19-10.25-4.64-21.05-7.43-31.49-11.64-4.86-1.96-9.58-4.21-14.76-5.19s-10.77-.9-16.17-.86c-9.89.08-20.02-1.25-29.85.21-5.3.78-10.45,2.14-15.8,2.68s-10.82.5-16.21,1.28c-10.82,1.56-21.91,1.56-32.83,2.33s-21.51-.19-32.38-.92c-4.95-.33-9.64-.38-14.44-1.75-5.26-1.5-9.66-2.2-15.15-2.11-5.21.09-10.42.06-15.63.04-5.9-.02-11.37.68-17.2,1.42-10.53,1.34-21.84,2.42-32.45,1.78-5.14-.31-10.12-1.67-15.28-1.74s-10.48.63-15.71.06c-10.42-1.14-20.69-2.85-31.04-4.45-5.06-.79-10.08-.79-15.19-.81-5.55-.02-10.94-.94-16.46-1.27-10.72-.64-21.48.16-32.2-.23-5.88-.21-11.68-1.37-17.55-1.75s-11.24-1.03-16.72-2.65c-10.32-3.03-21.23-8.41-29.64-15.18-4.21-3.39-7.78-6.48-12.65-8.95-5.17-2.62-8.75-6.36-12.81-10.41-8.31-8.27-12.84-17.47-16.46-28.54.34,1.05-16.01,7.7-15.59,9h0Z"/>
  <path class="cls-2" d="m142.2,139.92c1.75,0,3.49-3,5.2-3-1.75,0-3.49,3-5.2,3h0Z"/>
  <path class="cls-2" d="m156.05,232.92c10.77-3.98,21.61-7.73,32.42-11.6,9.52-3.41,18.93-7.94,29.11-9.24,4.19-.53,8.49.35,12.62-.7,4.94-1.25,9.75-4.04,14.56-5.79,9.53-3.46,18.46-8.51,27.9-12.22,4.76-1.87,9.33-1.57,14.26-2.37,4.58-.74,8.94-2.53,13.4-3.73,9.41-2.54,18.33-.76,27.82-.83,10.54-.08,21.39.63,31.89-.22,5.12-.42,9.62-2.05,14.53-3.38,5.3-1.44,10.84-1.76,16.31-1.84,21.01-.31,41.94.12,62.78-3.02,10.4-1.57,21.14-.16,31.64-.46,5.25-.15,10.31-1.7,15.56-1.83s10.2-.42,15.48-1.06c4.89-.59,9.83-.28,14.71-.88,5.59-.7,10.86-1.82,16.54-1.68,4.66.12,9.3.63,13.94-.07,5.64-.85,10.96-1.25,16.65-1.66,10.15-.72,20.09-3.7,30.2-4.86s19.58-5.4,28.34-9.75c5.89-2.92,12.02-5.02,18.25-7.1,5.49-1.84,10.37-4.51,15.69-6.69,4.48-1.83,8.88-3.12,13.15-5.48,5.44-3.02,10.85-6.14,16.17-9.37,9.06-5.5,17.3-10.71,24.95-18.11,4.31-4.17,8.4-8.54,12.25-13.14,3.61-4.33,5.59-9.61,9.11-13.85-1.5,1.81-5.77,3.23-7.84,4.42-2.23,1.29-6.08,2.56-7.75,4.58-2.56,3.08-3.85,6.99-6.24,10.24-3.22,4.38-6.95,8.47-10.73,12.37-7.35,7.61-14.91,13.62-23.93,19.13-.92.56-1.85,1.12-2.75,1.7.18-.12,10.83-4.87,5.55-3.63-2.11.49-4.33,1.34-6.34,2.16-4.73,1.91-9.09,4.44-13.95,6.1s-9.36,3.01-13.91,4.88-8.67,4.32-13.15,6.19-9.59,3.67-14.42,5.06-9.38,1.33-14.11,2.07-9.26,1.99-13.97,2.7c-5.46.81-10.55,1.34-16.07,1.59-4.72.22-9.22,1.75-13.94,1.85s-9.82-.59-14.74-.28-9.3,1.64-14.02,1.91c-5.18.3-10.23.31-15.38,1.1-4.68.72-9.2.32-13.89.64-5.28.36-10.3,1.74-15.63,1.75-10.15.03-20.56-.95-30.61.59-9.23,1.42-18.65,1.71-27.95,2.61-10.36,1-20.88.25-31.27.28-4.88.01-9.77.11-14.6.91-5.32.88-10.23,3.15-15.57,3.94-9.57,1.42-19.41.17-29.05.45s-18.48-.89-27.8-.15c-4.34.34-8.4,1.79-12.55,3.03-4.59,1.37-8.75,1.89-13.5,2.28-5.54.46-10.11,3.09-15.11,5.22-4.72,2.01-9.39,3.81-13.97,6.11-4.91,2.46-10.25,3.83-15.23,6.13-5.34,2.47-9.65,2.84-15.43,2.97-10.22.22-20.69,4.82-30.03,8.57-11.39,4.58-23.24,8.22-34.76,12.48-5.57,2.06-10.07,6.96-15.59,9h0Z"/>
  <path class="cls-4" d="m160.07,407.38c8.66-8.72,14.37-19.7,22.87-28.42,3.98-4.09,6.48-8.5,8.95-13.59,2.73-5.63,6.54-10.58,10.28-15.57,7.64-10.22,15.98-20.07,25.83-28.24.88-.73,1.83-1.4,2.68-2.15l-10.73,6.01c1.23-.63,2.48-1.2,3.76-1.71,2.28-.92,4.63-1.69,7.03-2.25,6.17-1.43,12.46-.81,18.72-.56,12.55.51,25.07-2.6,37.14-5.78,5.59-1.48,10.12-4.36,15.47-6.29,5.94-2.13,12.52-1.15,18.69-1.04,5.79.11,11.72.36,17.48-.39,7.09-.93,14.26-3.26,21.17-5.08,6.22-1.63,12.27-3.38,18.63-4.37,2.89-.45,5.8-.89,8.71-1.23,3.37-.39,5.56.25,8.85.82,2.91.5,5.78.12,8.71.19,3.08.07,6.1.68,9.16.97,6.83.66,13.71.52,20.57.46,6.42-.05,12.47-.85,18.82-1.25,3.02-.19,5.74.69,8.7,1.09,3.78.51,7.68.36,11.49.31,6.3-.09,12.6-.19,18.9-.14,5.9.05,11.61.3,17.27-1.51s11.5-1.89,17.21-2.75c7.29-1.1,14.55-2.41,21.8-3.78,13.14-2.49,26.23-5.4,39.4-7.72s27.13-1.16,40.87-1.34c6.53-.09,11.96-.86,17.99-3.41,5.35-2.26,11.12-4,16.23-6.73,11.3-6.03,21.36-13.46,32.15-20.26,11.54-7.27,23.38-13.64,31.98-24.49,3.55-4.48,9.21-9.34,11.37-14.66,2.5-6.15,1.78-13.84,2.46-20.33.76-7.2,2.85-13.94,2.84-21.24s.37-14.79,1.15-22.33c.73-7.11-.55-13.61-1-20.66-.5-7.74,1.24-15.42,1.26-23.16,0,.66-7.04,3.96-7.84,4.42-.92.53-7.75,3.54-7.75,4.58-.02,6.83-1.39,13.57-1.36,20.39.03,6.27,1.65,12.4,1.47,18.68s-1.54,12.55-1.59,18.89c-.06,6.7.22,13.09-1.05,19.72s-1.86,12.67-2.4,19.22-1.21,11.33-5.55,16.27c-3.5,3.99-6.66,8.23-10.1,12.27-4.46,5.24-9.89,9.02-15.65,12.74s-11.55,7.08-17.2,10.8c-2.08,1.37-4.08,2.83-6.1,4.28-.97.7-1.93,1.41-2.91,2.08-6.14,4.05-3.51,2.52,7.9-4.59-1.09.4-2.19.77-3.3,1.12-5.37,1.89-10.36,4.83-15.88,6.3-6.42,1.71-13.58,1.14-20.15,1.02-6.99-.12-14.05-.58-21.04-.08s-13.69,1.88-20.45,3.29c-13.16,2.73-26.37,5.29-39.6,7.63-6.83,1.21-13.7,2.41-20.6,3.17-5.34.59-10.36,2.71-15.67,3.04-5.9.37-11.85.01-17.75.02-7.1.01-14.33.69-21.42.08-3.22-.28-6.32-1.41-9.57-1.32-2.97.09-5.9.89-8.86,1.13-6.65.55-13.55.26-20.23.2-6.26-.06-12.33-.99-18.54-1.42-3.01-.21-6.04.28-9.04-.04s-5.6-1.45-8.61-1.28c-13.39.78-26.45,5.18-39.35,8.44-5.95,1.5-11.64,2.8-17.8,2.92-6.48.12-12.94-.29-19.42-.3-5.71-.01-9.9,1.18-14.95,3.7-6.07,3.04-12.6,4.49-19.16,6.06-5.66,1.35-11.44,2.48-17.21,3.24-6.82.9-13.58-.02-20.42-.03-13.31-.04-23.98,6.79-35.08,13.34s-19.69,15.95-27.62,25.66c-4.4,5.39-8.59,10.98-12.55,16.7s-5.91,12.58-10.43,17.86c-2.08,2.43-4.53,4.52-6.53,7.02s-3.69,5.37-5.57,8.03c-4.07,5.76-8.52,11.24-13.49,16.25,1.83-1.84,5.57-3.11,7.84-4.42,2.39-1.38,5.79-2.6,7.75-4.58h0Z"/>
  <path class="cls-4" d="m835.3,349.81c8.92-.06,17.87-.52,26.78.1s16.85,2.23,25.34,2.79c1.87.12,6.21-3.48,7.84-4.42,1.84-1.06,3.68-2.12,5.5-3.2.45-.27,1.8-1.4,2.25-1.37-8.49-.56-16.85-2.21-25.34-2.79-8.91-.62-17.86-.16-26.78-.1-2.07.01-6.05,3.39-7.84,4.42s-3.68,2.12-5.5,3.2c-.49.29-1.74,1.37-2.25,1.37h0Z"/>
  <text class="cls-8" transform="translate(947.65 29.52)"><tspan x="0" y="0">negative</tspan><tspan x="-45.54" y="39.6">electrode OC</tspan><tspan class="cls-1" x="148.88" y="39.6">P</tspan></text>
  <text class="cls-3" transform="translate(954.09 130.71)"><tspan x="0" y="0">positive</tspan><tspan x="-51.98" y="39.6">electrode OC</tspan><tspan class="cls-1" x="142.44" y="39.6">P</tspan></text>
  <text class="cls-9" transform="translate(975.18 231.9)"><tspan x="0" y="0">ideal</tspan><tspan x="-29.95" y="39.6">cell OC</tspan><tspan class="cls-1" x="78.24" y="39.6">P</tspan></text>
  <text class="cls-5" transform="translate(936.67 333.09)"><tspan x="0" y="0">measured</tspan><tspan x="-18.35" y="39.6">cell potential</tspan></text>
  <text class="cls-10" transform="translate(830.11 639.6)"><tspan x="0" y="0">State of charge</tspan></text>
  <text class="cls-10" transform="translate(0 28.34)"><tspan x="0" y="0">Potential</tspan></text>
</svg>