<?xml version="1.0" encoding="UTF-8"?>
<svg id="Layer_1" data-name="Layer 1" xmlns="http://www.w3.org/2000/svg" viewBox="0 0 1601.42 760.11">
  <defs>
    <style>
      .cls-1 {
        letter-spacing: -.02em;
      }

      .cls-2 {
        letter-spacing: -.02em;
      }

      .cls-3 {
        fill: #ebebf1;
      }

      .cls-4 {
        fill: #f27457;
      }

      .cls-5 {
        fill: #f17457;
      }

      .cls-6 {
        fill: #d2c459;
      }

      .cls-7 {
        fill: #d1c359;
      }

      .cls-8 {
        fill: #253659;
      }

      .cls-9 {
        fill: #04bf9d;
      }

      .cls-10 {
        fill: #455959;
      }

      .cls-11 {
        letter-spacing: -.02em;
      }

      .cls-12 {
        letter-spacing: -.02em;
      }

      .cls-13 {
        letter-spacing: -.01em;
      }

      .cls-14 {
        letter-spacing: -.02em;
      }

      .cls-15 {
        letter-spacing: -.02em;
      }

      .cls-16 {
        letter-spacing: -.01em;
      }

      .cls-17 {
        letter-spacing: 0em;
      }

      .cls-18 {
        letter-spacing: 0em;
      }

      .cls-19 {
        stroke: #253659;
      }

      .cls-19, .cls-20, .cls-21, .cls-22, .cls-23 {
        fill: none;
        stroke-miterlimit: 10;
      }

      .cls-20 {
        stroke: #04bf9d;
      }

      .cls-21 {
        stroke: #f27457;
      }

      .cls-22 {
        stroke: #d2c459;
      }

      .cls-23 {
        stroke: #455959;
      }

      .cls-24 {
        letter-spacing: 0em;
      }

      .cls-25 {
        letter-spacing: 0em;
      }

      .cls-26 {
        fill: #fafafa;
        font-family: SourceSansPro-Regular, 'Source Sans Pro';
        font-size: 44px;
      }
    </style>
  </defs>
  <g>
    <rect class="cls-8" x="214.3" y="185.87" width="539.43" height="67.33" rx="9" ry="9"/>
    <rect class="cls-19" x="214.3" y="185.87" width="539.43" height="67.33" rx="9" ry="9"/>
  </g>
  <g>
    <rect class="cls-10" x="214.3" y="591.17" width="539.43" height="67.33" rx="9" ry="9"/>
    <rect class="cls-23" x="214.3" y="591.17" width="539.43" height="67.33" rx="9" ry="9"/>
  </g>
  <g>
    <rect class="cls-4" x="214.49" y="254.21" width="539.43" height="131.11" rx="9" ry="9"/>
    <rect class="cls-21" x="214.49" y="254.21" width="539.43" height="131.11" rx="9" ry="9"/>
  </g>
  <g>
    <rect class="cls-9" x="214.49" y="458.66" width="539.43" height="131.11" rx="9" ry="9"/>
    <rect class="cls-20" x="214.49" y="458.66" width="539.43" height="131.11" rx="9" ry="9"/>
  </g>
  <g>
    <rect class="cls-6" x="214.3" y="386.49" width="539.43" height="70.78" rx="9" ry="9"/>
    <rect class="cls-22" x="214.3" y="386.49" width="539.43" height="70.78" rx="9" ry="9"/>
  </g>
  <path class="cls-3" d="m0,291.59c.58,0,1.16-1,1.73-1-.58,0-1.16,1-1.73,1h0Z"/>
  <path class="cls-8" d="m1033.86,433.69c.58,0,1.16-1,1.73-1-.58,0-1.16,1-1.73,1h0Z"/>
  <path class="cls-8" d="m883.21,290.61c14.93-15.58,30.92-30.14,47.83-43.56,17.1-13.57,35.11-25.99,53.87-37.15,19.34-11.51,39.56-21.58,60.32-30.26s40.21-15.3,60.96-20.93,42.03-9.9,63.43-12.67c2.63-.34,5.26-.66,7.89-.96.32-.04,1.52-1.13,1.73-1-7.72-4.69-15.43-9.38-23.15-14.07l-1.73,1c8.48-.54,16.7,6.28,17.59,14.78.44,4.2-1.07,8.38-3.72,11.61-2.97,3.63-6.23,5.32-11.1,5.31-.58,0-1.16,1-1.73,1,6.28,0,12.92-4.16,16.1-9.5,4.04-6.8,2.24-15.07-3.68-20.14-3.25-2.78-7.42-4.34-11.72-4.06-.34.02-1.51,1.14-1.73,1,7.72,4.69,15.43,9.38,23.15,14.07l1.73-1c-22.16,2.51-44.14,6.58-65.73,12.15-21.59,5.58-42.8,12.65-63.43,21.11-20.12,8.26-39.68,17.87-58.56,28.67-18.75,10.74-36.83,22.61-54.04,35.68s-34.59,28.2-50.29,44.04c-1.92,1.94-3.82,3.89-5.71,5.86.44-.46,1.29-.54,1.73-1h0Z"/>
  <path class="cls-8" d="m1412.64,59.7c4.93-1.18,9.92-2.27,14.62-4.2,3.99-1.64,8.18-3.92,11.11-7.14,3.69-4.05,5.15-9.67,3.64-14.97s-5.65-10.09-9.98-13.67c-4.66-3.86-10.09-6.82-15.57-9.34-5.92-2.72-12.11-4.85-18.42-6.46-12.65-3.23-25.83-4.41-38.86-3.73-15.93.83-31.65,4.61-46.11,11.36-.6.28-1.13.72-1.73,1,23.91-11.15,51.31-14.16,77.19-9.34,12.23,2.28,24.22,6.38,34.93,12.75,8.55,5.09,19.26,14.21,17.21,25.41-1.06,5.79-5.36,10.33-10.62,12.68s-10.38,3.39-15.67,4.65c-.63.15-1.12.85-1.73,1h0Z"/>
  <path class="cls-8" d="m1354.28,4.46c-17.11-1.31-34.39-.06-51.14,3.65-12.01,2.66-23.73,6.61-34.95,11.62-8.48,3.79-17.19,8.22-24.24,14.36-3.08,2.68-6.01,5.89-7.42,9.78s-.81,7.59,1.19,10.96c3.27,5.5,8.92,9.15,14.93,11.02,3.73,1.16,7.6,1.76,11.47,2.28,4.49.6,9.01,1.06,13.52,1.44,2.3.19,4.6.37,6.9.54.56.04,1.19-1.04,1.73-1-8.51-.62-17.1-1.25-25.51-2.75-6.85-1.22-13.37-3.54-18.29-8.65-2.83-2.94-5.09-6.67-4.98-10.87.1-3.7,1.97-7.05,4.29-9.83,6.14-7.33,15.2-11.98,23.75-15.86,10.37-4.71,21.19-8.49,32.25-11.19,15.91-3.88,32.36-5.55,48.73-4.86,2.02.09,4.03.21,6.04.36.56.04,1.19-1.04,1.73-1h0Z"/>
  <path class="cls-8" d="m1233.79,50.9c3.34,37.62,6.68,75.25,10.02,112.87,3.34,37.62,6.68,75.25,10.02,112.87,1.87,21.12,3.75,42.23,5.62,63.35-.02-.27,1.76-.71,1.73-1-3.34-37.62-6.68-75.25-10.02-112.87-3.34-37.62-6.68-75.25-10.02-112.87-1.87-21.12-3.75-42.23-5.62-63.35.02.27-1.76.71-1.73,1h0Z"/>
  <path class="cls-8" d="m1444.27,45.38c1.24,36.86,3.5,73.68,6.79,110.41,3.28,36.55,7.57,73,12.87,109.31,2.98,20.43,6.29,40.82,9.91,61.15-.04-.21,1.77-.76,1.73-1-6.46-36.31-11.92-72.79-16.35-109.4-4.41-36.43-7.8-72.97-10.18-109.59-1.34-20.61-2.35-41.24-3.04-61.87.01.3-1.74.67-1.73,1h0Z"/>
  <path class="cls-8" d="m1461.01,350.22c2.46-1.64,4.87-3.35,7.24-5.12-.53.4-1.2.6-1.73,1-2.34,1.76-4.74,3.46-7.18,5.08.4-.26,1.17-.62,1.67-.96h0Z"/>
  <path class="cls-8" d="m1264.82,345.89c14.04,10.91,30.05,18.97,46.97,24.33,4.84,1.54,9.75,2.85,14.71,3.98.49.11,1.27-1.11,1.73-1-17.28-3.94-34.03-10.28-49.14-19.61-4.33-2.67-8.52-5.59-12.54-8.71-.21-.16-1.54,1.15-1.73,1h0Z"/>
  <path class="cls-8" d="m1334.66,37.73c.58,0,1.16-1,1.73-1-.58,0-1.16,1-1.73,1h0Z"/>
  <path class="cls-8" d="m1307.19,56.56c10-6.61,20-13.21,29.99-19.82-.4.26-1.17.63-1.67.96-10,6.61-20,13.21-29.99,19.82.4-.26,1.17-.63,1.67-.96h0Z"/>
  <path class="cls-8" d="m1339.55,38.52c16.64,4.93,33.29,9.87,49.93,14.8.45.13,1.3-1.13,1.73-1-16.64-4.93-33.29-9.87-49.93-14.8-.45-.13-1.3,1.13-1.73,1h0Z"/>
  <path class="cls-8" d="m1288.39,81.53c4.95,36.17,10.41,72.27,15.95,108.35,5.55,36.17,11.18,72.33,16.45,108.54,2.97,20.36,5.82,40.73,8.49,61.13-.03-.24,1.77-.73,1.73-1-4.76-36.38-10.11-72.69-15.63-108.96s-11.15-72.23-16.55-108.37c-3.02-20.22-5.95-40.44-8.72-60.69.03.24-1.77.74-1.73,1h0Z"/>
  <path class="cls-8" d="m1404.14,79.2c1.29,17.54,2.92,35.04,4.92,52.51,1.99,17.47,4.34,34.9,7.03,52.27,2.66,17.16,5.66,34.28,9.01,51.32,3.36,17.13,7.06,34.19,11.1,51.18s8.43,33.92,13.15,50.74c.58,2.08,1.17,4.16,1.77,6.24-.04-.14,1.78-.83,1.73-1-4.8-16.8-9.28-33.7-13.41-50.67-4.13-16.96-7.91-34.01-11.35-51.13-3.43-17.03-6.51-34.13-9.26-51.28-2.78-17.35-5.21-34.75-7.28-52.19-2.08-17.46-3.81-34.96-5.18-52.49-.17-2.17-.33-4.34-.49-6.51.02.28-1.75.7-1.73,1h0Z"/>
  <path class="cls-8" d="m1293.24,66.85c14.65-9.22,29.29-18.44,43.94-27.67-.4.25-1.16.64-1.67.96-14.65,9.22-29.29,18.44-43.94,27.67.4-.25,1.16-.64,1.67-.96h0Z"/>
  <path class="cls-8" d="m1286.65,76.78c1.63,7.32,3.25,14.65,4.88,21.97-.04-.18,1.78-.79,1.73-1-1.63-7.32-3.25-14.65-4.88-21.97.04.18-1.78.79-1.73,1h0Z"/>
  <path class="cls-8" d="m1329.78,361.58c.59,5.38,1.19,10.76,1.78,16.14l1.73-1c-3.03-1.04-6.07-2.08-9.1-3.12-.13-.04-.75.42-.87.49s-.73.55-.86.51c3.03,1.04,6.07,2.08,9.1,3.12.12.04,1.74-.95,1.73-1-.59-5.38-1.19-10.76-1.78-16.14.03.25-1.76.72-1.73,1h0Z"/>
  <path class="cls-8" d="m1451.02,342.86c1.08,2.44,2.17,4.88,3.25,7.32-.02-.05,1.77-.92,1.73-1-1.08-2.44-2.17-4.88-3.25-7.32.02.05-1.77.92-1.73,1h0Z"/>
  <path class="cls-8" d="m1457.52,351.77c4.24-1.05,8.41-3.33,11.73-6.15,3.68-3.13,6.45-7.28,7.81-11.92-.04.13-.74.42-.87.49-.15.09-.81.33-.86.51-1.12,3.81-3.18,7.29-5.93,10.15-2.97,3.09-6,4.89-10.15,5.92-.63.16-1.11.85-1.73,1h0Z"/>
  <path class="cls-8" d="m1474.62,324.96c.27,4.61.54,9.22.81,13.83,0-.06.79-.44.87-.49.09-.05.87-.41.86-.51-.27-4.61-.54-9.22-.81-13.83,0,.06-.79.44-.87.49-.09.05-.87.41-.86.51h0Z"/>
  <path class="cls-8" d="m1336.05,49.95c1.63,17.93,3.5,35.83,5.61,53.71s4.46,35.73,7.04,53.54c2.59,17.82,5.41,35.6,8.47,53.34,3.08,17.83,6.39,35.61,9.94,53.35,3.54,17.65,7.31,35.26,11.31,52.81.5,2.17,1,4.34,1.5,6.51-.04-.18,1.78-.8,1.73-1-4.06-17.54-7.89-35.13-11.49-52.77s-6.95-35.33-10.07-53.06c-3.12-17.73-6.01-35.5-8.65-53.31-2.66-17.89-5.08-35.82-7.26-53.78-2.17-17.87-4.1-35.77-5.79-53.69-.21-2.22-.41-4.44-.62-6.66.02.27-1.76.71-1.73,1h0Z"/>
  <path class="cls-8" d="m1338.02,375.22c11.93-15.73,23.87-31.46,35.8-47.19-.37.48-1.36.51-1.73,1-11.93,15.73-23.87,31.46-35.8,47.19.37-.48,1.36-.51,1.73-1h0Z"/>
  <path class="cls-8" d="m1389.29,321.47c15.87,7.58,31.74,15.16,47.61,22.74,4.49,2.14,8.98,4.29,13.47,6.43.35.17,1.4-1.16,1.73-1-15.87-7.58-31.74-15.16-47.61-22.74l-13.47-6.43c-.35-.17-1.4,1.16-1.73,1h0Z"/>
  <path class="cls-9" d="m1342.85,363.97c-5.49-39.07-10.98-78.14-16.47-117.21s-10.98-78.14-16.47-117.21c-3.09-22.01-6.19-44.03-9.28-66.04.03.23-1.77.74-1.73,1,5.49,39.07,10.98,78.14,16.47,117.21,5.49,39.07,10.98,78.14,16.47,117.21,3.09,22.01,6.19,44.03,9.28,66.04-.03-.23,1.77-.74,1.73-1h0Z"/>
  <path class="cls-9" d="m1356.17,345.7c-3.64-17.86-7.1-35.75-10.37-53.68s-6.32-35.71-9.2-53.61-5.61-36.01-8.12-54.06c-2.51-17.96-4.83-35.94-6.96-53.95-2.14-18.1-4.1-36.22-5.86-54.35-.22-2.26-.44-4.51-.65-6.77.02.26-1.76.71-1.73,1,1.72,18.14,3.62,36.27,5.72,54.37,2.09,18.01,4.36,36,6.82,53.97,2.47,18.06,5.13,36.08,7.98,54.08,2.84,17.91,5.86,35.79,9.07,53.64s6.64,35.84,10.23,53.7c.45,2.22.9,4.44,1.35,6.66-.04-.19,1.78-.78,1.73-1h0Z"/>
  <path class="cls-9" d="m1367.88,333.39c.58,0,1.16-1,1.73-1-.58,0-1.16,1-1.73,1h0Z"/>
  <path class="cls-9" d="m1367.19,330.47c-4.93-17.87-9.45-35.85-13.54-53.93-4.09-18.08-7.75-36.26-10.98-54.51s-6.03-36.58-8.4-54.97-4.3-36.83-5.8-55.3c-1.49-18.39-2.55-36.81-3.18-55.24-.08-2.35-.15-4.7-.22-7.05,0,.3-1.74.67-1.73,1,.52,18.53,1.47,37.05,2.86,55.53,1.39,18.48,3.22,36.94,5.48,55.33,2.26,18.4,4.96,36.74,8.08,55.01,3.13,18.27,6.68,36.47,10.66,54.57,3.96,18.02,8.35,35.94,13.16,53.75.61,2.27,1.23,4.54,1.86,6.8-.04-.15,1.78-.82,1.73-1h0Z"/>
  <path class="cls-9" d="m1377,320.51c-5.59-16.82-10.7-33.8-15.33-50.92-4.62-17.11-8.76-34.36-12.4-51.71-3.63-17.27-6.76-34.63-9.41-52.08s-4.82-35.13-6.48-52.78c-1.66-17.65-2.81-35.35-3.46-53.06-.08-2.2-.15-4.41-.22-6.61,0,.3-1.74.67-1.73,1,.53,17.72,1.55,35.42,3.09,53.08,1.53,17.66,3.57,35.28,6.1,52.82,2.52,17.46,5.54,34.85,9.04,52.14,3.52,17.37,7.54,34.65,12.04,51.79s9.49,34.16,14.97,51.02c.68,2.1,1.37,4.19,2.07,6.29-.04-.11,1.78-.86,1.73-1h0Z"/>
  <path class="cls-9" d="m1338.25,363.81c-6.38-37.17-12.31-74.42-17.79-111.74-5.48-37.32-10.51-74.7-15.08-112.14-2.57-21.07-5-42.16-7.29-63.26.03.25-1.76.72-1.73,1,4.07,37.5,8.58,74.95,13.55,112.33s10.39,74.72,16.27,111.97c3.31,20.97,6.76,41.92,10.35,62.84-.04-.21,1.77-.76,1.73-1h0Z"/>
  <path class="cls-9" d="m1386.51,314.71c-5.34-35.17-10.68-70.34-16.02-105.51-5.31-34.99-10.63-69.98-15.94-104.98-2.99-19.72-5.99-39.43-8.98-59.15.03.23-1.77.75-1.73,1,5.34,35.17,10.68,70.34,16.02,105.51,5.31,34.99,10.63,69.98,15.94,104.98,2.99,19.72,5.99,39.43,8.98,59.15-.03-.23,1.77-.75,1.73-1h0Z"/>
  <path class="cls-9" d="m1398.94,319.39c-5.53-35.35-11.07-70.69-16.6-106.04s-11.07-70.69-16.6-106.04c-3.1-19.81-6.2-39.63-9.31-59.44.03.22-1.77.75-1.73,1,5.53,35.35,11.07,70.69,16.6,106.04s11.07,70.69,16.6,106.04c3.1,19.81,6.2,39.63,9.31,59.44-.03-.22,1.77-.75,1.73-1h0Z"/>
  <path class="cls-9" d="m1407.8,319.57c-5.51-35.74-11.03-71.49-16.54-107.23-5.49-35.56-10.97-71.12-16.46-106.69-3.09-20.04-6.18-40.08-9.27-60.11.03.22-1.77.75-1.73,1,5.51,35.74,11.03,71.49,16.54,107.23,5.49,35.56,10.97,71.12,16.46,106.69,3.09,20.04,6.18,40.08,9.27,60.11-.03-.22,1.77-.75,1.73-1h0Z"/>
  <path class="cls-9" d="m1420.91,328.63c-5.63-35.19-11.26-70.39-16.9-105.58-5.63-35.19-11.26-70.39-16.9-105.58-3.16-19.73-6.31-39.46-9.47-59.19.04.22-1.77.75-1.73,1,5.63,35.19,11.26,70.39,16.9,105.58s11.26,70.39,16.9,105.58c3.16,19.73,6.31,39.46,9.47,59.19-.04-.22,1.77-.75,1.73-1h0Z"/>
  <path class="cls-9" d="m1435.2,335.75c-5.74-36.7-11.48-73.4-17.21-110.1-5.74-36.7-11.48-73.4-17.21-110.1-3.22-20.57-6.43-41.15-9.65-61.72.03.22-1.77.75-1.73,1,5.74,36.7,11.48,73.4,17.21,110.1,5.74,36.7,11.48,73.4,17.21,110.1,3.22,20.57,6.43,41.15,9.65,61.72-.03-.22,1.77-.75,1.73-1h0Z"/>
  <path class="cls-5" d="m1350.19,352.88c-5.55-36.53-11.09-73.06-16.64-109.6-5.52-36.35-11.04-72.7-16.56-109.04-3.11-20.48-6.22-40.96-9.33-61.44.03.23-1.77.75-1.73,1,5.55,36.53,11.09,73.06,16.64,109.6,5.52,36.35,11.04,72.7,16.56,109.04,3.11,20.48,6.22,40.96,9.33,61.44-.03-.23,1.77-.75,1.73-1h0Z"/>
  <path class="cls-5" d="m1362.76,338.64c-3.93-17.9-7.64-35.85-11.15-53.83s-6.83-36.2-9.93-54.35c-3.08-18.07-5.95-36.17-8.6-54.3-2.65-18.13-5.09-36.3-7.32-54.49-2.24-18.28-4.26-36.59-6.06-54.92-.22-2.27-.44-4.54-.66-6.81.03.26-1.76.71-1.73,1,1.74,18.24,3.7,36.46,5.87,54.66,2.18,18.29,4.58,36.55,7.19,54.78s5.41,36.25,8.44,54.32c3.03,18.07,6.26,36.11,9.72,54.11s7.15,36.13,11.04,54.13c.48,2.23.97,4.45,1.46,6.68-.04-.18,1.78-.79,1.73-1h0Z"/>
  <path class="cls-5" d="m1374.14,327.92c-5.34-17.35-10.19-34.84-14.53-52.46s-8.19-35.37-11.52-53.21-6.17-35.77-8.49-53.77c-2.31-17.91-4.11-35.89-5.4-53.91s-2.08-36.24-2.35-54.39c-.03-2.28-.06-4.56-.08-6.84,0,.32-1.73.66-1.73,1,.14,18.15.79,36.29,1.96,54.4,1.17,18.11,2.85,36.19,5.05,54.2s4.9,35.97,8.12,53.83,6.9,35.46,11.1,53.03,8.94,35.18,14.15,52.57c.66,2.18,1.32,4.36,1.99,6.54-.04-.13,1.78-.84,1.73-1h0Z"/>
  <path class="cls-5" d="m1342.01,364.37c-3.8-19.43-7.36-38.92-10.65-58.45-3.29-19.53-6.32-39.1-9.09-58.71-2.79-19.71-5.31-39.45-7.57-59.22-2.25-19.68-4.24-39.38-5.96-59.11s-3.19-39.48-4.39-59.25c-.15-2.47-.3-4.94-.44-7.41.02.29-1.75.69-1.73,1,1.14,19.77,2.54,39.53,4.2,59.26,1.66,19.73,3.58,39.45,5.77,59.13s4.65,39.53,7.37,59.25c2.71,19.62,5.67,39.2,8.9,58.74s6.71,39.04,10.45,58.48c.47,2.43.94,4.86,1.42,7.29-.04-.2,1.78-.77,1.73-1h0Z"/>
  <path class="cls-5" d="m1394.02,316.32c-4.46-16.95-8.54-33.99-12.21-51.12-3.68-17.13-6.96-34.35-9.85-51.63-2.89-17.28-5.38-34.63-7.47-52.03-2.09-17.4-3.79-34.84-5.08-52.32-1.29-17.47-2.19-34.98-2.67-52.49-.06-2.23-.12-4.46-.17-6.7,0,.31-1.74.67-1.73,1,.39,17.52,1.17,35.03,2.37,52.51s2.78,34.94,4.78,52.34c1.99,17.41,4.38,34.77,7.17,52.07,2.79,17.3,5.97,34.53,9.55,51.69,3.58,17.15,7.55,34.22,11.91,51.19.56,2.16,1.12,4.32,1.69,6.48-.04-.16,1.78-.82,1.73-1h0Z"/>
  <path class="cls-5" d="m1401.3,316.53c-4.58-35.08-9.16-70.17-13.74-105.25-4.58-35.08-9.16-70.17-13.74-105.25-2.58-19.77-5.16-39.54-7.74-59.3.03.24-1.77.73-1.73,1,4.58,35.08,9.16,70.17,13.74,105.25,4.58,35.08,9.16,70.17,13.74,105.25,2.58,19.77,5.16,39.54,7.74,59.3-.03-.24,1.77-.73,1.73-1h0Z"/>
  <path class="cls-5" d="m1415.41,327.42c-4.97-35.24-9.93-70.47-14.9-105.71s-9.93-70.47-14.9-105.71c-2.8-19.85-5.6-39.71-8.39-59.56.03.23-1.77.74-1.73,1,4.97,35.24,9.93,70.47,14.9,105.71s9.93,70.47,14.9,105.71c2.8,19.85,5.6,39.71,8.39,59.56-.03-.23,1.77-.74,1.73-1h0Z"/>
  <path class="cls-5" d="m1427.32,333.59c-4.16-17.5-8.04-35.06-11.63-52.69-3.57-17.54-6.84-35.13-9.83-52.78s-5.71-35.52-8.13-53.34c-2.4-17.73-4.51-35.51-6.33-53.31s-3.36-35.82-4.59-53.76c-.15-2.21-.3-4.42-.44-6.63.02.28-1.75.69-1.73,1,1.16,17.95,2.62,35.88,4.37,53.78s3.78,35.59,6.11,53.34c2.34,17.83,4.98,35.63,7.91,53.37,2.92,17.66,6.12,35.27,9.62,52.82,3.51,17.64,7.32,35.22,11.41,52.73.5,2.16,1.01,4.31,1.53,6.47-.04-.17,1.78-.8,1.73-1h0Z"/>
  <path class="cls-8" d="m1349.92,358.91c-3.84-18.11-7.49-36.27-10.93-54.47-3.44-18.2-6.68-36.43-9.72-54.7-3.04-18.27-5.87-36.57-8.5-54.9-2.63-18.33-5.06-36.69-7.28-55.07s-4.24-36.79-6.05-55.22c-.23-2.29-.45-4.58-.67-6.88.03.26-1.76.71-1.73,1,1.76,18.43,3.73,36.85,5.9,55.24,2.17,18.39,4.55,36.76,7.12,55.09,2.58,18.34,5.36,36.65,8.35,54.92,2.99,18.28,6.17,36.52,9.56,54.72s6.98,36.37,10.78,54.5c.47,2.25.95,4.51,1.43,6.76-.04-.19,1.78-.78,1.73-1h0Z"/>
  <path class="cls-8" d="m1361.34,341.05c-5.32-16.79-10.25-33.7-14.77-50.72s-8.58-33.99-12.26-51.12-6.98-34.52-9.85-51.9c-2.86-17.29-5.3-34.65-7.33-52.06-2.04-17.49-3.66-35.03-4.85-52.6-.15-2.2-.29-4.39-.43-6.59.02.28-1.75.69-1.73,1,1.09,17.58,2.6,35.13,4.54,52.63s4.27,34.79,7.02,52.1c2.77,17.39,5.95,34.72,9.54,51.96s7.56,34.23,11.96,51.2c4.41,17.05,9.23,33.99,14.46,50.81.65,2.1,1.31,4.2,1.98,6.3-.04-.12,1.78-.85,1.73-1h0Z"/>
  <path class="cls-8" d="m1369.03,330.18c-4.94-15.99-9.54-32.09-13.79-48.28s-8.14-32.47-11.67-48.83c-3.55-16.44-6.75-32.95-9.59-49.53s-5.29-33.06-7.39-49.66-3.85-33.25-5.22-49.93c-.17-2.1-.34-4.19-.5-6.29.02.27-1.76.7-1.73,1,1.29,16.69,2.94,33.35,4.95,49.96s4.39,33.19,7.12,49.7,5.85,33.12,9.32,49.58c3.45,16.38,7.25,32.68,11.41,48.89,4.16,16.21,8.66,32.33,13.52,48.35.61,2.01,1.23,4.02,1.85,6.03-.04-.13,1.78-.84,1.73-1h0Z"/>
  <path class="cls-8" d="m1379.06,324.43c-5.6-15.99-10.81-32.12-15.63-48.37s-9.29-32.76-13.34-49.3c-4.03-16.46-7.67-33.01-10.9-49.65-3.24-16.63-6.07-33.34-8.51-50.11-2.44-16.85-4.48-33.76-6.11-50.71-.2-2.09-.39-4.18-.58-6.27.02.27-1.76.71-1.73,1,1.52,16.88,3.44,33.72,5.77,50.5,2.34,16.86,5.09,33.67,8.24,50.4,3.14,16.65,6.67,33.23,10.61,49.71,3.93,16.48,8.26,32.87,12.98,49.15,4.74,16.35,9.88,32.59,15.41,48.69.68,1.98,1.37,3.97,2.06,5.95-.04-.1,1.78-.87,1.73-1h0Z"/>
  <path class="cls-8" d="m1400.69,321.15c-3.99-16.07-7.76-32.2-11.3-48.38-3.55-16.26-6.87-32.57-9.96-48.92-3.07-16.27-5.91-32.59-8.51-48.95s-4.97-32.75-7.11-49.17-4.06-33.04-5.73-49.6c-.2-2.03-.41-4.06-.6-6.09.03.26-1.76.71-1.73,1,1.61,16.48,3.45,32.94,5.52,49.37s4.41,32.99,6.97,49.44c2.55,16.36,5.33,32.69,8.34,48.98,3.01,16.28,6.26,32.53,9.73,48.72,3.49,16.27,7.22,32.49,11.18,48.66.49,1.98.97,3.96,1.47,5.94-.04-.17,1.78-.81,1.73-1h0Z"/>
  <path class="cls-8" d="m1411.58,323.09c-6.06-34.53-12.12-69.07-18.18-103.6-6.03-34.36-12.06-68.72-18.09-103.08-3.38-19.26-6.76-38.53-10.14-57.79.04.21-1.77.76-1.73,1,6.06,34.53,12.12,69.07,18.18,103.6s12.06,68.72,18.09,103.08c3.38,19.26,6.76,38.53,10.14,57.79-.04-.21,1.77-.76,1.73-1h0Z"/>
  <path class="cls-8" d="m1422.21,319.96c-6.36-34.08-12.71-68.16-19.07-102.25-6.32-33.91-12.65-67.82-18.97-101.73-3.58-19.18-7.15-38.36-10.73-57.55.04.2-1.78.77-1.73,1,6.36,34.08,12.71,68.16,19.07,102.25,6.32,33.91,12.65,67.82,18.97,101.73,3.58,19.18,7.15,38.36,10.73,57.55-.04-.2,1.78-.77,1.73-1h0Z"/>
  <path class="cls-8" d="m1434.7,343.39c-4.1-18.95-7.99-37.96-11.65-57-3.68-19.14-7.13-38.32-10.35-57.54-3.21-19.13-6.19-38.29-8.95-57.49-2.76-19.2-5.29-38.42-7.6-57.68s-4.41-38.73-6.27-58.13c-.23-2.4-.46-4.8-.68-7.2.02.26-1.76.71-1.73,1,1.8,19.31,3.82,38.6,6.07,57.86,2.26,19.36,4.75,38.69,7.46,57.99,2.7,19.2,5.63,38.38,8.78,57.51,3.15,19.14,6.53,38.23,10.13,57.29s7.46,38.26,11.53,57.32c.5,2.36,1.01,4.72,1.52,7.07-.04-.19,1.78-.79,1.73-1h0Z"/>
  <path class="cls-7" d="m1424.9,239.82c.58,0,1.16-1,1.73-1-.58,0-1.16,1-1.73,1h0Z"/>
  <path class="cls-7" d="m1406.66,318.55c-6.25-33.23-11.74-66.6-16.46-100.09-4.72-33.48-8.68-67.07-11.87-100.73-1.79-18.85-3.33-37.72-4.63-56.61.02.28-1.75.69-1.73,1,2.33,33.73,5.42,67.41,9.29,101,3.87,33.59,8.5,67.09,13.89,100.47,3.02,18.69,6.29,37.35,9.78,55.96-.04-.2,1.78-.77,1.73-1h0Z"/>
  <path class="cls-7" d="m1424.12,319.01c-10.22-29.34-18.83-59.24-25.77-89.53-6.91-30.13-12.17-60.64-15.76-91.34-2.02-17.32-3.51-34.7-4.46-52.11.02.29-1.75.69-1.73,1,1.7,31.02,5.1,61.95,10.19,92.6,5.06,30.49,11.78,60.71,20.13,90.48,4.71,16.79,9.94,33.43,15.68,49.9-.04-.1,1.78-.87,1.73-1h0Z"/>
  <path class="cls-7" d="m1428.53,325.13c-4.16-16.38-8.05-32.82-11.66-49.33-3.59-16.43-6.92-32.91-9.97-49.45s-5.85-33.29-8.36-49.99-4.74-33.46-6.7-50.24c-1.95-16.78-3.63-33.6-5.02-50.44-.17-2.06-.34-4.13-.5-6.19.02.27-1.76.7-1.73,1,1.33,16.84,2.93,33.67,4.82,50.46,1.88,16.71,4.03,33.39,6.46,50.03,2.44,16.72,5.16,33.4,8.15,50.03,2.99,16.63,6.26,33.21,9.81,49.73s7.36,32.98,11.46,49.38c.5,2.01,1.01,4.02,1.52,6.02-.04-.16,1.78-.81,1.73-1h0Z"/>
  <path class="cls-7" d="m1395.49,317.47c-4.28-17.48-8.13-35.06-11.53-52.73-3.4-17.67-6.35-35.43-8.86-53.25-2.51-17.82-4.56-35.7-6.17-53.62s-2.76-35.89-3.47-53.87-.95-35.98-.75-53.97c.03-2.22.06-4.43.1-6.65,0,.33-1.73.64-1.73,1-.31,17.99-.18,35.99.41,53.98.59,17.98,1.64,35.95,3.13,53.89,1.5,17.93,3.44,35.83,5.84,53.66,2.4,17.83,5.24,35.61,8.53,53.3,3.29,17.69,7.02,35.3,11.2,52.8.51,2.16,1.04,4.31,1.56,6.46-.04-.17,1.78-.8,1.73-1h0Z"/>
  <path class="cls-7" d="m1368.3,319.89c-5.66-31.11-11.32-62.22-16.98-93.33-5.66-31.11-11.32-62.22-16.98-93.33-3.19-17.52-6.37-35.04-9.56-52.56.04.21-1.77.76-1.73,1,5.66,31.11,11.32,62.22,16.98,93.33,5.66,31.11,11.32,62.22,16.98,93.33,3.19,17.52,6.37,35.04,9.56,52.56-.04-.21,1.77-.76,1.73-1h0Z"/>
  <path class="cls-7" d="m1366.29,260.41c-6.74-28.02-12.65-56.24-17.74-84.6-5.08-28.37-9.33-56.88-12.74-85.5-1.93-16.17-3.58-32.37-4.97-48.59.02.27-1.76.7-1.73,1,2.46,28.71,5.75,57.35,9.89,85.87s9.11,56.92,14.92,85.15c3.28,15.95,6.83,31.84,10.63,47.67-.04-.17,1.78-.8,1.73-1h0Z"/>
  <path class="cls-7" d="m1360.69,342.5c-4.36-17.8-8.48-35.67-12.33-53.59s-7.45-35.9-10.78-53.92c-3.34-18.02-6.41-36.1-9.23-54.21-2.82-18.11-5.37-36.26-7.67-54.45-2.29-18.19-4.33-36.4-6.1-54.65-.22-2.25-.43-4.49-.64-6.74.02.26-1.76.71-1.73,1,1.71,18.25,3.67,36.48,5.9,54.67s4.72,36.36,7.47,54.48,5.77,36.2,9.04,54.24c3.27,18.04,6.8,36.02,10.59,53.96,3.79,17.93,7.84,35.81,12.14,53.63.53,2.19,1.06,4.39,1.6,6.58-.04-.17,1.78-.8,1.73-1h0Z"/>
  <path class="cls-7" d="m1348.14,338.46c-5.65-34.09-11.3-68.17-16.95-102.26s-11.3-68.17-16.95-102.26c-3.17-19.11-6.34-38.22-9.5-57.33.04.22-1.77.75-1.73,1,5.65,34.09,11.3,68.17,16.95,102.26,5.65,34.09,11.3,68.17,16.95,102.26,3.17,19.11,6.34,38.22,9.5,57.33-.04-.22,1.77-.75,1.73-1h0Z"/>
  <path class="cls-7" d="m1344.06,365.73c-3.97-19.43-7.78-38.89-11.44-58.38-3.64-19.39-7.11-38.82-10.44-58.27-3.34-19.55-6.52-39.12-9.54-58.72-3-19.5-5.85-39.03-8.54-58.58-2.7-19.65-5.24-39.31-7.63-59-.3-2.45-.59-4.9-.88-7.35.03.25-1.76.73-1.73,1,2.34,19.69,4.84,39.36,7.51,59.02s5.46,39.09,8.42,58.59c2.98,19.61,6.12,39.19,9.42,58.74,3.28,19.46,6.72,38.89,10.32,58.29,3.61,19.5,7.39,38.97,11.32,58.41.49,2.42.98,4.83,1.47,7.25-.04-.19,1.78-.78,1.73-1h0Z"/>
  <path class="cls-7" d="m1442.34,335.86c-6-35.28-11.99-70.56-17.99-105.84s-11.93-70.21-17.89-105.31c-3.34-19.68-6.69-39.36-10.03-59.04.04.21-1.77.76-1.73,1,6,35.28,11.99,70.56,17.99,105.84,5.96,35.1,11.93,70.21,17.89,105.31,3.34,19.68,6.69,39.36,10.03,59.04-.04-.21,1.77-.76,1.73-1h0Z"/>
  <path class="cls-7" d="m1387.34,315.77c-4.23-17.79-8.25-35.63-12.04-53.52s-7.34-35.65-10.68-53.54-6.5-35.99-9.42-54.05c-2.91-17.96-5.59-35.96-8.06-53.99-2.48-18.12-4.74-36.27-6.78-54.44-.25-2.24-.5-4.48-.74-6.72.03.25-1.76.72-1.73,1,1.98,18.18,4.19,36.34,6.61,54.46s5.05,36.04,7.9,54.02,5.95,36.09,9.26,54.08c3.29,17.9,6.8,35.76,10.52,53.57,3.74,17.9,7.7,35.76,11.88,53.56.51,2.19,1.03,4.38,1.55,6.58-.04-.17,1.78-.8,1.73-1h0Z"/>
  <path class="cls-10" d="m1450.49,344.55c-4.64-18.54-9.15-37.12-13.52-55.73-4.35-18.52-8.56-37.07-12.63-55.65-4.1-18.67-8.05-37.37-11.87-56.1-3.8-18.64-7.46-37.3-10.99-56s-6.95-37.6-10.21-56.43c-.4-2.32-.8-4.64-1.2-6.96.04.21-1.77.76-1.73,1,3.23,18.84,6.6,37.66,10.11,56.45,3.49,18.7,7.12,37.37,10.89,56.02,3.78,18.74,7.71,37.45,11.77,56.13s8.22,37.15,12.53,55.67c4.34,18.62,8.81,37.2,13.42,55.75.57,2.28,1.14,4.57,1.71,6.85-.04-.16,1.78-.81,1.73-1h0Z"/>
  <path class="cls-10" d="m1436.21,328.57c-3-18.51-6.16-36.99-9.48-55.44-3.34-18.54-6.85-37.06-10.52-55.54-3.65-18.39-7.47-36.75-11.44-55.07-3.98-18.32-8.12-36.61-12.42-54.86-4.32-18.34-8.81-36.64-13.46-54.9-.57-2.24-1.14-4.47-1.72-6.71.04.16-1.78.81-1.73,1,4.66,18.16,9.17,36.36,13.51,54.6,4.36,18.33,8.56,36.7,12.6,55.1,4.02,18.31,7.87,36.66,11.56,55.05s7.22,36.8,10.59,55.24,6.6,37.1,9.65,55.69c.37,2.28.75,4.56,1.11,6.84-.04-.22,1.77-.75,1.73-1h0Z"/>
  <path class="cls-10" d="m1421.01,327.09c-7.11-35.46-14.22-70.92-21.33-106.39-7.11-35.46-14.22-70.92-21.33-106.39-4-19.96-8-39.92-12.01-59.88.04.2-1.78.78-1.73,1,7.11,35.46,14.22,70.92,21.33,106.39,7.11,35.46,14.22,70.92,21.33,106.39,4,19.96,8,39.92,12.01,59.88-.04-.2,1.78-.78,1.73-1h0Z"/>
  <path class="cls-10" d="m1408.88,320.76c-2.38-17.94-4.95-35.86-7.69-53.75s-5.64-35.58-8.72-53.33-6.38-35.64-9.84-53.4c-3.44-17.68-7.06-35.32-10.86-52.93-3.82-17.69-7.81-35.35-11.98-52.96-.51-2.17-1.03-4.34-1.55-6.51.04.17-1.78.8-1.73,1,4.21,17.6,8.25,35.25,12.11,52.93,3.84,17.6,7.51,35.23,10.99,52.9,3.5,17.76,6.83,35.55,9.98,53.38s6.08,35.51,8.86,53.3c2.79,17.88,5.4,35.8,7.82,53.74.3,2.21.59,4.42.89,6.63-.03-.24,1.77-.73,1.73-1h0Z"/>
  <path class="cls-10" d="m1398.21,315.82c-3.81-16.57-7.42-33.2-10.81-49.86-3.39-16.66-6.58-33.37-9.55-50.12-2.97-16.74-5.74-33.53-8.29-50.34-2.57-16.9-4.92-33.83-7.06-50.78-2.13-16.87-4.05-33.77-5.75-50.69-.21-2.09-.42-4.19-.62-6.28.03.26-1.76.71-1.73,1,1.65,16.93,3.52,33.83,5.59,50.71,2.08,16.88,4.36,33.73,6.86,50.56,2.5,16.82,5.21,33.61,8.13,50.37s6.08,33.64,9.44,50.4c3.34,16.68,6.89,33.31,10.65,49.89.47,2.05.93,4.1,1.41,6.16-.04-.18,1.78-.8,1.73-1h0Z"/>
  <path class="cls-10" d="m1372.22,313.04c-5.84-33.32-11.68-66.64-17.53-99.95s-11.63-66.3-17.44-99.45l-9.78-55.75c.04.21-1.77.76-1.73,1,5.84,33.32,11.68,66.64,17.53,99.95,5.81,33.15,11.63,66.3,17.44,99.45,3.26,18.58,6.52,37.17,9.78,55.75-.04-.21,1.77-.76,1.73-1h0Z"/>
  <path class="cls-10" d="m1367.44,327.06c-6.46-32.87-12.92-65.74-19.38-98.61s-12.92-65.74-19.38-98.61c-3.64-18.5-7.27-37-10.91-55.5.04.2-1.78.77-1.73,1,6.46,32.87,12.92,65.74,19.38,98.61,6.46,32.87,12.92,65.74,19.38,98.61,3.64,18.5,7.27,37,10.91,55.5-.04-.2,1.78-.77,1.73-1h0Z"/>
  <path class="cls-10" d="m1357.42,326.97c-7.19-31.91-13.7-63.97-19.51-96.16-5.78-32.03-10.88-64.18-15.28-96.42-2.48-18.15-4.74-36.33-6.78-54.53.03.25-1.76.72-1.73,1,3.65,32.5,7.99,64.93,13.03,97.25,5.01,32.16,10.72,64.2,17.11,96.12,3.59,17.96,7.41,35.88,11.43,53.75-.04-.18,1.78-.79,1.73-1h0Z"/>
  <path class="cls-10" d="m1346.9,353.55c-3.74-34.06-7.48-68.12-11.21-102.17s-7.44-67.77-11.16-101.65c-2.11-19.19-4.21-38.38-6.32-57.57.03.25-1.76.72-1.73,1,3.74,34.06,7.48,68.12,11.21,102.17,3.72,33.88,7.44,67.77,11.16,101.65,2.11,19.19,4.21,38.38,6.32,57.57-.03-.25,1.76-.72,1.73-1h0Z"/>
  <path class="cls-10" d="m1336.3,366.17c-5.33-37.73-10.66-75.47-15.98-113.2-5.33-37.73-10.66-75.47-15.98-113.2-3-21.26-6-42.52-9.01-63.78.03.23-1.77.74-1.73,1,5.33,37.73,10.66,75.47,15.98,113.2,5.33,37.73,10.66,75.47,15.98,113.2,3,21.26,6,42.52,9.01,63.78-.03-.23,1.77-.74,1.73-1h0Z"/>
  <path class="cls-8" d="m1147.26,680.9c.58,0,1.16-1,1.73-1-.58,0-1.16,1-1.73,1h0Z"/>
  <path class="cls-8" d="m1455.8,593.16c17.8-8.56,36.02-16.22,54.59-22.94,18.57-6.72,37.48-12.5,56.63-17.31,10.82-2.72,21.71-5.12,32.66-7.22.32-.06,1.51-1.12,1.73-1-24.39-13.54-49.63-25.52-75.54-35.84-25.77-10.26-52.19-18.89-79.05-25.82-15.12-3.9-30.38-7.24-45.74-10.05-.51-.09-1.24,1.09-1.73,1,27.44,5.01,54.55,11.77,81.13,20.24,26.43,8.42,52.33,18.51,77.48,30.21,14.16,6.58,28.08,13.68,41.73,21.26l1.73-1c-19.4,3.71-38.6,8.4-57.53,14.05-18.92,5.65-37.56,12.25-55.82,19.78-10.31,4.25-20.49,8.8-30.55,13.63-.6.29-1.13.71-1.73,1h0Z"/>
  <path class="cls-8" d="m1450.07,588.54c-18.51-12.68-37.02-25.36-55.53-38.05-18.37-12.59-36.74-25.18-55.12-37.77-10.42-7.14-20.84-14.28-31.26-21.42l-1.73,1c24.45-5.81,48.9-11.62,73.35-17.43,6.96-1.65,13.93-3.31,20.89-4.96.63-.15,1.12-.85,1.73-1-24.45,5.81-48.9,11.62-73.35,17.43-6.96,1.65-13.93,3.31-20.89,4.96-.27.06-1.57,1.11-1.73,1,18.51,12.68,37.02,25.36,55.53,38.05,18.37,12.59,36.74,25.18,55.12,37.77,10.42,7.14,20.84,14.28,31.26,21.42.25.17,1.51-1.15,1.73-1h0Z"/>
  <path class="cls-8" d="m1453.46,603.67c-1.38,20.34-2.77,40.69-4.15,61.03-1.38,20.34-2.77,40.69-4.15,61.03-.78,11.46-1.56,22.92-2.34,34.38l1.73-1c-19.78-9.85-38.58-21.64-56.07-35.15s-33.57-28.6-48.1-45.16c-8.19-9.34-15.86-19.13-22.97-29.31-.04-.06-1.71,1.03-1.73,1,12.66,18.11,27.09,34.97,43.02,50.29,15.88,15.26,33.23,28.99,51.75,40.92,10.44,6.73,21.25,12.87,32.37,18.41.09.05,1.73-.91,1.73-1,1.38-20.34,2.77-40.69,4.15-61.03,1.38-20.34,2.77-40.69,4.15-61.03.78-11.46,1.56-22.92,2.34-34.38-.02.36-1.71.62-1.73,1h0Z"/>
  <path class="cls-8" d="m1312.15,505.12c.88,19.6,1.76,39.2,2.63,58.81l2.62,58.56c.49,11.05.99,22.09,1.48,33.14-.01-.29,1.75-.68,1.73-1-.88-19.6-1.76-39.2-2.63-58.81-.87-19.52-1.75-39.04-2.62-58.56-.49-11.05-.99-22.09-1.48-33.14.01.29-1.75.68-1.73,1h0Z"/>
  <path class="cls-8" d="m1451.77,758.05c31.47-9.22,62.94-18.43,94.41-27.65,8.79-2.57,17.57-5.15,26.36-7.72,1.18-.35,2.42-1.35,3.48-1.97.82-.47,1.63-.94,2.44-1.42.3-.18.68-.52,1-.61-31.47,9.22-62.94,18.43-94.41,27.65-8.79,2.57-17.57,5.15-26.36,7.72-1.18.35-2.42,1.35-3.48,1.97-.82.47-1.63.94-2.44,1.42-.3.18-.68.52-1,.61h0Z"/>
  <path class="cls-8" d="m1598.11,565.76c-1.65,19.66-3.3,39.33-4.95,58.99-1.65,19.66-3.3,39.33-4.95,58.99-.93,11.12-1.87,22.23-2.8,33.35.03-.37,1.7-.61,1.73-1,1.65-19.66,3.3-39.33,4.95-58.99l4.95-58.99c.93-11.12,1.87-22.23,2.8-33.35-.03.37-1.7.61-1.73,1h0Z"/>
  <path class="cls-10" d="m1589.56,564.28c-30.95,10.6-61.91,21.2-92.86,31.8-8.8,3.01-17.6,6.03-26.4,9.04-1.2.41-2.39,1.33-3.48,1.97-.82.47-1.63.94-2.44,1.42-.31.18-.67.5-1,.61,30.95-10.6,61.91-21.2,92.86-31.8,8.8-3.01,17.6-6.03,26.4-9.04,1.2-.41,2.39-1.33,3.48-1.97.82-.47,1.63-.94,2.44-1.42.31-.18.67-.5,1-.61h0Z"/>
  <path class="cls-10" d="m1597.19,569.95c-18.6,8.16-37.21,16.33-55.81,24.49s-37.21,16.33-55.81,24.49c-10.52,4.62-21.04,9.24-31.56,13.85-2.43,1.07-4.51,2.94-6.93,4,18.6-8.16,37.21-16.33,55.81-24.49s37.21-16.33,55.81-24.49c10.52-4.62,21.04-9.24,31.56-13.85,2.43-1.07,4.51-2.94,6.93-4h0Z"/>
  <path class="cls-10" d="m1594.99,588.01c-18.02,7.33-36.03,14.66-54.05,22-18.02,7.33-36.03,14.66-54.05,22-10.16,4.14-20.33,8.27-30.49,12.41-1.21.49-2.36,1.31-3.48,1.97s-2.25,1.55-3.44,2.03c18.02-7.33,36.03-14.66,54.05-22,18.02-7.33,36.03-14.66,54.05-22,10.16-4.14,20.33-8.27,30.49-12.41,1.21-.49,2.36-1.31,3.48-1.97s2.25-1.55,3.44-2.03h0Z"/>
  <path class="cls-10" d="m1598.65,618.37c-18.86,3.62-37.6,7.81-56.21,12.56-18.6,4.75-37.06,10.06-55.34,15.93-10.36,3.32-20.66,6.83-30.9,10.5-1.2.43-2.38,1.33-3.48,1.97s-2.26,1.61-3.44,2.03c18.07-6.48,36.34-12.43,54.77-17.82,18.43-5.38,37.02-10.21,55.74-14.48,10.61-2.42,21.26-4.65,31.94-6.7.29-.06.83-.45,1.03-.56.82-.46,1.64-.93,2.46-1.4s1.63-.94,2.44-1.42c.27-.16.7-.55,1-.61h0Z"/>
  <path class="cls-10" d="m1591.09,640.07c-18.04,4.63-36.08,9.25-54.12,13.88s-36.08,9.25-54.12,13.88c-10.15,2.6-20.3,5.21-30.44,7.81-.31.08-.79.43-1.03.56-.82.46-1.64.93-2.46,1.4s-1.63.94-2.44,1.42c-.29.17-.69.53-1,.61,18.04-4.63,36.08-9.25,54.12-13.88s36.08-9.25,54.12-13.88c10.15-2.6,20.3-5.21,30.44-7.81.31-.08.79-.43,1.03-.56.82-.46,1.64-.93,2.46-1.4s1.63-.94,2.44-1.42c.29-.17.69-.53,1-.61h0Z"/>
  <path class="cls-10" d="m1588.62,662.15c.58,0,1.16-1,1.73-1-.58,0-1.16,1-1.73,1h0Z"/>
  <path class="cls-10" d="m1593.27,653.79c-19.23,6.17-38.47,12.35-57.7,18.52-19.16,6.15-38.31,12.3-57.47,18.44-10.84,3.48-21.69,6.96-32.53,10.44-1.19.38-2.4,1.34-3.48,1.97-.82.47-1.63.94-2.44,1.42-.3.18-.67.5-1,.61,19.23-6.17,38.47-12.35,57.7-18.52s38.31-12.3,57.47-18.44c10.84-3.48,21.69-6.96,32.53-10.44,1.19-.38,2.4-1.34,3.48-1.97.82-.47,1.63-.94,2.44-1.42.3-.18.67-.5,1-.61h0Z"/>
  <path class="cls-10" d="m1578.37,670.81c-17.09,6.22-34.19,12.44-51.28,18.65-17.09,6.22-34.19,12.44-51.28,18.65-9.68,3.52-19.36,7.04-29.04,10.56-1.2.44-2.38,1.33-3.48,1.97s-2.25,1.6-3.44,2.03c17.09-6.22,34.19-12.44,51.28-18.65,17.09-6.22,34.19-12.44,51.28-18.65,9.68-3.52,19.36-7.04,29.04-10.56,1.2-.44,2.38-1.33,3.48-1.97s2.25-1.6,3.44-2.03h0Z"/>
  <path class="cls-10" d="m1587.61,681.48c-17.25,6.84-34.49,13.69-51.74,20.53s-34.49,13.69-51.74,20.53c-9.74,3.87-19.49,7.73-29.23,11.6-1.21.48-2.36,1.32-3.48,1.97s-2.25,1.56-3.44,2.03c17.25-6.84,34.49-13.69,51.74-20.53s34.49-13.69,51.74-20.53c9.74-3.87,19.49-7.73,29.23-11.6,1.21-.48,2.36-1.32,3.48-1.97s2.25-1.56,3.44-2.03h0Z"/>
  <path class="cls-5" d="m1591.92,593.72c-17.72,8.06-35.44,16.13-53.16,24.19-17.72,8.06-35.44,16.13-53.16,24.19-10,4.55-19.99,9.1-29.99,13.65-2.42,1.1-4.52,2.9-6.93,4,17.72-8.06,35.44-16.13,53.16-24.19,17.72-8.06,35.44-16.13,53.16-24.19,10-4.55,19.99-9.1,29.99-13.65,2.42-1.1,4.52-2.9,6.93-4h0Z"/>
  <path class="cls-5" d="m1594.48,576.75c-17.24,5.68-34.23,12.13-50.9,19.32-16.64,7.18-32.97,15.09-48.91,23.71-9.92,5.37-19.71,10.99-29.4,16.77.1-.06-.75.39-.33.23.53-.2,1.12-.62,1.6-.9,1.59-.9,3.17-1.81,4.73-2.75s3.22-1.92,4.7-2.77c.5-.29.18-.1.68-.39-.42.24.64-.37.66-.38.71-.4,1.54-.87,2.29-1.3,3.66-2.06,7.34-4.07,11.04-6.05,7.62-4.07,15.33-7.99,23.12-11.74,15.25-7.34,30.81-14.04,46.61-20.08,8.98-3.44,18.04-6.66,27.17-9.67,1.19-.39,2.4-1.34,3.48-1.97.82-.47,1.63-.94,2.44-1.42.31-.18.67-.5,1-.61h0Z"/>
  <path class="cls-5" d="m1585.61,569.87c-15.48,4.84-30.65,10.64-45.41,17.36-15.67,7.13-30.78,15.38-45.55,24.23-7.72,4.63-15.28,9.51-22.68,14.65,2.18-1.51,4.74-2.48,6.93-4,6.22-4.32,12.57-8.47,19.03-12.42,1.49-.91,2.99-1.82,4.5-2.7.13-.07,1.22-.71.51-.3.53-.31,1.16-.66,1.82-1.03,3.14-1.76,6.31-3.47,9.51-5.14,13.2-6.9,26.8-13.04,40.71-18.39,7.81-3,15.72-5.75,23.71-8.25,1.19-.37,2.41-1.34,3.48-1.97.82-.47,1.63-.94,2.44-1.42.3-.18.67-.51,1-.61h0Z"/>
  <path class="cls-5" d="m1587.82,556.14c-29.69,6.67-58.71,16.23-86.53,28.55-7.67,3.39-15.25,7-22.72,10.8-1.46.74-2.86,1.61-4.28,2.44-.69.4-1.38.8-2.06,1.21-.06.04-.68.4-.33.23,26.94-13.69,55.22-24.75,84.3-32.97,8.17-2.31,16.41-4.39,24.7-6.25.3-.07.81-.44,1.03-.56.82-.46,1.64-.93,2.46-1.4s1.63-.94,2.44-1.42c.28-.17.69-.54,1-.61h0Z"/>
  <path class="cls-5" d="m1579.15,631.97c-29.23,8.06-58.46,16.12-87.69,24.17-8.19,2.26-16.38,4.52-24.57,6.77-1.17.32-2.43,1.36-3.48,1.97-.82.47-1.63.94-2.44,1.42-.29.17-.68.52-1,.61,29.23-8.06,58.46-16.12,87.69-24.17,8.19-2.26,16.38-4.52,24.57-6.77,1.17-.32,2.43-1.36,3.48-1.97.82-.47,1.63-.94,2.44-1.42.29-.17.68-.52,1-.61h0Z"/>
  <path class="cls-5" d="m1593.79,641.79c-18.86,6.47-37.72,12.95-56.58,19.42-18.78,6.45-37.57,12.89-56.35,19.34-10.61,3.64-21.22,7.28-31.83,10.93-1.2.41-2.39,1.33-3.48,1.97-.82.47-1.63.94-2.44,1.42-.31.18-.67.5-1,.61,18.86-6.47,37.72-12.95,56.58-19.42,18.78-6.45,37.57-12.89,56.35-19.34,10.61-3.64,21.22-7.28,31.83-10.93,1.2-.41,2.39-1.33,3.48-1.97.82-.47,1.63-.94,2.44-1.42.31-.18.67-.5,1-.61h0Z"/>
  <path class="cls-5" d="m1582.32,665.13c-17.66,4.83-35.16,10.25-52.46,16.28s-34.23,12.59-50.99,19.76c-9.51,4.06-18.93,8.32-28.28,12.74-2.4,1.14-4.53,2.86-6.93,4,16.55-7.84,33.36-15.12,50.41-21.81s34.17-12.74,51.56-18.22c9.86-3.11,19.78-6.02,29.76-8.75,1.17-.32,2.44-1.36,3.48-1.97.82-.47,1.63-.94,2.44-1.42.29-.17.68-.52,1-.61h0Z"/>
  <path class="cls-5" d="m1587.59,674.76c-15.46,6.29-30.93,12.58-46.39,18.87-15.46,6.29-30.93,12.58-46.39,18.87-8.77,3.57-17.54,7.14-26.31,10.7-1.21.49-2.36,1.31-3.48,1.97s-2.25,1.55-3.44,2.03c15.46-6.29,30.93-12.58,46.39-18.87s30.93-12.58,46.39-18.87c8.77-3.57,17.54-7.14,26.31-10.7,1.21-.49,2.36-1.31,3.48-1.97s2.25-1.55,3.44-2.03h0Z"/>
  <path class="cls-5" d="m1587,698.79c-19.24,4.05-38.28,9.04-57.04,14.95-18.68,5.89-37.07,12.69-55.08,20.38-10.08,4.3-20.05,8.88-29.88,13.73-1.47.72-2.86,1.62-4.28,2.44-.69.4-1.38.8-2.06,1.21-.06.04-.68.4-.33.23,17.6-8.66,35.62-16.47,53.98-23.37,18.26-6.86,36.85-12.84,55.7-17.89,10.62-2.85,21.31-5.4,32.07-7.67.29-.06.82-.44,1.03-.56.82-.46,1.64-.93,2.46-1.4s1.63-.94,2.44-1.42c.28-.16.7-.55,1-.61h0Z"/>
  <path class="cls-8" d="m1573.08,717.21c-30.44,2.45-60.49,9.32-88.96,20.36-7.87,3.05-15.61,6.43-23.22,10.1-1.47.71-2.87,1.62-4.28,2.44-.69.4-1.38.8-2.06,1.21-.06.04-.68.4-.33.23,27.31-13.19,56.53-22.39,86.47-27.26,8.44-1.37,16.93-2.4,25.45-3.08.24-.02.91-.49,1.03-.56.82-.46,1.64-.93,2.46-1.4s1.63-.94,2.44-1.42c.24-.14.74-.59,1-.61h0Z"/>
  <path class="cls-8" d="m1580.3,691.8c-16.47,5.52-32.94,11.04-49.41,16.56-16.47,5.52-32.94,11.04-49.41,16.56-9.3,3.12-18.6,6.23-27.89,9.35-1.2.4-2.39,1.34-3.48,1.97-.82.47-1.63.94-2.44,1.42-.31.18-.67.5-1,.61,16.47-5.52,32.94-11.04,49.41-16.56,16.47-5.52,32.94-11.04,49.41-16.56,9.3-3.12,18.6-6.23,27.89-9.35,1.2-.4,2.39-1.34,3.48-1.97.82-.47,1.63-.94,2.44-1.42.31-.18.67-.5,1-.61h0Z"/>
  <path class="cls-8" d="m1591.68,669.42c-18.12,6.95-36.24,13.91-54.36,20.86s-36.24,13.91-54.36,20.86c-10.27,3.94-20.53,7.88-30.8,11.82-1.21.46-2.37,1.32-3.48,1.97s-2.25,1.58-3.44,2.03c18.12-6.95,36.24-13.91,54.36-20.86s36.24-13.91,54.36-20.86c10.27-3.94,20.53-7.88,30.8-11.82,1.21-.46,2.37-1.32,3.48-1.97s2.25-1.58,3.44-2.03h0Z"/>
  <path class="cls-8" d="m1578.32,665.14c-17.15,6.24-34.29,12.48-51.44,18.71s-34.29,12.48-51.44,18.71c-9.71,3.53-19.42,7.06-29.12,10.6-1.2.44-2.38,1.33-3.48,1.97s-2.25,1.6-3.44,2.03c17.15-6.24,34.29-12.48,51.44-18.71s34.29-12.48,51.44-18.71c9.71-3.53,19.42-7.06,29.12-10.6,1.2-.44,2.38-1.33,3.48-1.97s2.25-1.6,3.44-2.03h0Z"/>
  <path class="cls-8" d="m1583.42,645.22c-18.02,6.87-36.05,13.74-54.07,20.6-17.95,6.84-35.89,13.68-53.84,20.52-10.18,3.88-20.35,7.76-30.53,11.63-1.21.46-2.37,1.32-3.48,1.97s-2.25,1.58-3.44,2.03c18.02-6.87,36.05-13.74,54.07-20.6,17.95-6.84,35.89-13.68,53.84-20.52,10.18-3.88,20.35-7.76,30.53-11.63,1.21-.46,2.37-1.32,3.48-1.97s2.25-1.58,3.44-2.03h0Z"/>
  <path class="cls-8" d="m1574.8,643.26c-16.87,5.57-33.74,11.14-50.62,16.72s-33.9,11.2-50.85,16.79c-9.54,3.15-19.08,6.3-28.62,9.45-1.19.39-2.4,1.34-3.48,1.97-.82.47-1.63.94-2.44,1.42-.31.18-.67.5-1,.61,16.87-5.57,33.74-11.14,50.62-16.72,16.95-5.6,33.9-11.2,50.85-16.79,9.54-3.15,19.08-6.3,28.62-9.45,1.19-.39,2.4-1.34,3.48-1.97.82-.47,1.63-.94,2.44-1.42.31-.18.67-.5,1-.61h0Z"/>
  <path class="cls-8" d="m1575.8,634.07c-17.12,4.79-34.25,9.59-51.37,14.38-17.2,4.82-34.41,9.63-51.61,14.45-9.68,2.71-19.36,5.42-29.05,8.13-1.17.33-2.43,1.36-3.48,1.97-.82.47-1.63.94-2.44,1.42-.29.17-.68.52-1,.61,17.12-4.79,34.25-9.59,51.37-14.38,17.2-4.82,34.41-9.63,51.61-14.45,9.68-2.71,19.36-5.42,29.05-8.13,1.17-.33,2.43-1.36,3.48-1.97.82-.47,1.63-.94,2.44-1.42.29-.17.68-.52,1-.61h0Z"/>
  <path class="cls-8" d="m1590.94,607.86c-18.45,4.67-36.62,10.46-54.37,17.35-17.65,6.85-34.88,14.78-51.56,23.72-10.39,5.57-20.61,11.46-30.64,17.63-.45.27.59-.3.36-.17.7-.38,1.39-.78,2.08-1.18,1.42-.82,2.85-1.63,4.25-2.48,1.9-1.17,3.8-2.32,5.71-3.45.69-.41,1.41-.83,1.99-1.17-.22.13.32-.18.32-.18.27-.15.6-.34.98-.56,3.79-2.15,7.62-4.22,11.48-6.25,7.91-4.16,15.95-8.09,24.09-11.79,16.16-7.34,32.74-13.76,49.64-19.2,9.49-3.06,19.08-5.81,28.74-8.26.31-.08.79-.43,1.03-.56.82-.46,1.64-.93,2.46-1.4s1.63-.94,2.44-1.42c.29-.17.69-.53,1-.61h0Z"/>
  <path class="cls-8" d="m1587.17,588.54c-16.13,6.61-32.27,13.23-48.4,19.84-16.13,6.61-32.27,13.23-48.4,19.84-9.07,3.72-18.13,7.43-27.2,11.15-1.21.49-2.36,1.31-3.48,1.97s-2.25,1.55-3.44,2.03c16.13-6.61,32.27-13.23,48.4-19.84,16.13-6.61,32.27-13.23,48.4-19.84,9.07-3.72,18.13-7.43,27.2-11.15,1.21-.49,2.36-1.31,3.48-1.97s2.25-1.55,3.44-2.03h0Z"/>
  <path class="cls-8" d="m1588.99,570.83c-17.69,6.99-35.39,13.99-53.08,20.98-17.77,7.02-35.54,14.05-53.32,21.07-9.97,3.94-19.94,7.88-29.9,11.82-1.21.48-2.36,1.32-3.48,1.97s-2.25,1.56-3.44,2.03l53.08-20.98c17.77-7.02,35.54-14.05,53.32-21.07,9.97-3.94,19.94-7.88,29.9-11.82,1.21-.48,2.36-1.32,3.48-1.97s2.25-1.56,3.44-2.03h0Z"/>
  <path class="cls-8" d="m1596.4,556.63c-15.81,4.14-31.45,8.94-46.87,14.4-15.41,5.46-30.59,11.56-45.49,18.29-8.27,3.74-16.46,7.67-24.55,11.79-1.46.74-2.86,1.61-4.28,2.44-.69.4-1.38.8-2.06,1.21-.06.04-.68.4-.33.23,14.53-7.39,29.36-14.18,44.46-20.33s30.25-11.59,45.7-16.42c8.77-2.74,17.6-5.28,26.48-7.6.31-.08.79-.42,1.03-.56.82-.46,1.64-.93,2.46-1.4s1.63-.94,2.44-1.42c.29-.17.68-.53,1-.61h0Z"/>
  <path class="cls-7" d="m1574.92,573.77c-15.85,3.8-31.48,8.49-46.79,14.05-15.29,5.55-30.26,11.97-44.83,19.21-8.54,4.24-16.92,8.8-25.19,13.55-1.37.79-3.02,1.48-4.25,2.48-.33.27.41-.2.36-.17.7-.38,1.39-.78,2.08-1.18,13.33-7.65,27.51-14.59,41.75-20.72,14.41-6.2,29.16-11.61,44.15-16.2,8.52-2.61,17.12-4.95,25.78-7.02.31-.07.8-.43,1.03-.56.82-.46,1.64-.93,2.46-1.4s1.63-.94,2.44-1.42c.28-.17.69-.54,1-.61h0Z"/>
  <path class="cls-7" d="m1584.65,590.24c-16.31,2.58-32.44,6.26-48.26,11.02-15.74,4.73-31.16,10.53-46.13,17.33-8.37,3.81-16.59,7.93-24.66,12.35-1.6.87-3.17,1.8-4.75,2.72-.37.22-1.4.59-1.58.94-.1.2.06,0,.36-.17,14.33-7.83,29.2-14.68,44.45-20.51,15.21-5.82,30.81-10.62,46.66-14.36,8.92-2.11,17.92-3.87,26.97-5.31.27-.04.86-.46,1.03-.56.82-.46,1.64-.93,2.46-1.4s1.63-.94,2.44-1.42c.26-.16.72-.57,1-.61h0Z"/>
  <path class="cls-7" d="m1592.25,602.72c-18.7,3.99-37.22,8.8-55.49,14.44s-36.29,12.09-53.98,19.33c-9.97,4.08-19.83,8.41-29.58,12.98-2.41,1.13-4.53,2.87-6.93,4,17.31-8.12,34.98-15.47,52.94-22.02,17.96-6.55,36.22-12.29,54.7-17.21,10.41-2.77,20.88-5.28,31.42-7.52.3-.06.82-.44,1.03-.56.82-.46,1.64-.93,2.46-1.4s1.63-.94,2.44-1.42c.28-.16.7-.55,1-.61h0Z"/>
  <path class="cls-7" d="m1593.42,621.39c-18.64,3.98-37.13,8.68-55.41,14.09-18.28,5.42-36.34,11.54-54.14,18.37-10,3.83-19.92,7.89-29.75,12.16-2.44,1.06-4.51,2.95-6.93,4,17.49-7.59,35.26-14.51,53.29-20.72,18.02-6.21,36.29-11.72,54.74-16.51,10.37-2.69,20.8-5.15,31.28-7.39.3-.06.82-.44,1.03-.56.82-.46,1.64-.93,2.46-1.4s1.63-.94,2.44-1.42c.28-.16.7-.55,1-.61h0Z"/>
  <path class="cls-7" d="m1592.76,637.07c-19.96,5.26-39.93,10.51-59.89,15.77s-39.6,10.43-59.41,15.64c-11.27,2.97-22.54,5.93-33.81,8.9-.31.08-.79.42-1.03.56-.82.46-1.64.93-2.46,1.4s-1.63.94-2.44,1.42c-.29.17-.68.53-1,.61,19.96-5.26,39.93-10.51,59.89-15.77,19.8-5.21,39.6-10.43,59.41-15.64,11.27-2.97,22.54-5.93,33.81-8.9.31-.08.79-.42,1.03-.56.82-.46,1.64-.93,2.46-1.4s1.63-.94,2.44-1.42c.29-.17.68-.53,1-.61h0Z"/>
  <path class="cls-7" d="m1577.29,659.23c-16.75,5.76-33.49,11.51-50.24,17.27-16.75,5.76-33.49,11.51-50.24,17.27-9.43,3.24-18.87,6.49-28.3,9.73-1.2.41-2.39,1.33-3.48,1.97-.82.47-1.63.94-2.44,1.42-.31.18-.67.5-1,.61,16.75-5.76,33.49-11.51,50.24-17.27,16.75-5.76,33.49-11.51,50.24-17.27,9.43-3.24,18.87-6.49,28.3-9.73,1.2-.41,2.39-1.33,3.48-1.97.82-.47,1.63-.94,2.44-1.42.31-.18.67-.5,1-.61h0Z"/>
  <path class="cls-7" d="m1586.01,677.99c-18.43,3.74-36.71,8.2-54.79,13.39s-35.79,11.05-53.32,17.63c-9.95,3.73-19.8,7.69-29.57,11.87-1.21.52-2.35,1.31-3.48,1.97s-2.25,1.52-3.44,2.03c17.29-7.39,34.87-14.1,52.7-20.09s35.74-11.23,53.9-15.77c10.31-2.58,20.67-4.92,31.08-7.03.29-.06.83-.45,1.03-.56.82-.46,1.64-.93,2.46-1.4s1.63-.94,2.44-1.42c.27-.16.7-.55,1-.61h0Z"/>
  <path class="cls-7" d="m1578.21,703.05c-16.43,4.17-32.86,8.33-49.29,12.5-16.35,4.15-32.7,8.29-49.04,12.44-9.26,2.35-18.52,4.7-27.78,7.05-.31.08-.79.43-1.03.56-.82.46-1.64.93-2.46,1.4s-1.63.94-2.44,1.42c-.29.17-.69.53-1,.61,16.43-4.17,32.86-8.33,49.29-12.5,16.35-4.15,32.7-8.29,49.04-12.44,9.26-2.35,18.52-4.7,27.78-7.05.31-.08.79-.43,1.03-.56.82-.46,1.64-.93,2.46-1.4s1.63-.94,2.44-1.42c.29-.17.69-.53,1-.61h0Z"/>
  <path class="cls-7" d="m1578.73,715.71c-29.59,8.31-59.18,16.62-88.77,24.93-8.32,2.34-16.63,4.67-24.95,7.01-1.17.33-2.43,1.36-3.48,1.97-.82.47-1.63.94-2.44,1.42-.29.17-.68.52-1,.61,29.59-8.31,59.18-16.62,88.77-24.93,8.32-2.34,16.63-4.67,24.95-7.01,1.17-.33,2.43-1.36,3.48-1.97.82-.47,1.63-.94,2.44-1.42.29-.17.68-.52,1-.61h0Z"/>
  <path class="cls-8" d="m901.65,534.88c23.32,15.88,48.05,29.67,73.8,41.21,25.75,11.54,52.5,20.84,79.85,27.81,27.26,6.94,55.11,11.56,83.15,13.74,14.06,1.1,28.17,1.58,42.28,1.44,7.01-.07,14.01-.29,21.01-.67,3.54-.19,7.09-.42,10.63-.7,1.63-.13,3.27-.26,4.9-.4.91-.08,1.81-.16,2.72-.25.33-.03.77-.13,1.09-.1.7-.18.73-.05.08.38l-.46.43c-5.97,5.61-11.93,11.22-17.9,16.83.08-.07-.92.86-.92.86.09.09.93-.15,1.08-.19.64-.14,1.27-.31,1.89-.53.98-.35,1.9-.81,2.81-1.32,1.91-1.08,3.72-2.24,5.26-3.84,3.89-4.04,5.92-10,4.4-15.51s-6.1-9.74-11.41-11.41c-2.62-.83-5.37-.98-8.06-.41-.62.13-1.12.87-1.73,1,11.18-2.37,22.45,8.23,19.46,19.58-.71,2.69-2.09,5.19-3.94,7.27-.88.98-1.86,1.87-2.93,2.63-2.05,1.45.81-.22-.53.34-.4.17-.78.37-1.18.52-.68.26-1.38.48-2.09.64-.19.04-.64.19-.86.17-.85-.07-.17-.19.25-.58.69-.65,1.38-1.29,2.06-1.94,1.53-1.44,3.06-2.88,4.59-4.32,2.91-2.73,5.81-5.47,8.72-8.2.69-.65,1.38-1.29,2.06-1.94.34-.32.9-.68,1.15-1.08.3-.48.88-.32-.08-.38-1.75-.11-3.69.34-5.44.49-3.45.29-6.9.54-10.35.75-6.9.43-13.82.7-20.73.82-13.74.25-27.49-.1-41.2-1.03-27.52-1.87-54.87-6.07-81.69-12.53-26.9-6.47-53.27-15.2-78.71-26.09-25.27-10.82-49.62-23.77-72.67-38.75-2.9-1.89-5.78-3.8-8.64-5.75-.25-.17-1.5,1.16-1.73,1h0Z"/>
  <text class="cls-26" transform="translate(254.98 235.19)"><tspan class="cls-12" x="0" y="0">P</tspan><tspan x="23.89" y="0">ositi</tspan><tspan class="cls-18" x="102.83" y="0">v</tspan><tspan class="cls-17" x="123.24" y="0">e cur</tspan><tspan class="cls-24" x="213.18" y="0">r</tspan><tspan x="228.05" y="0">ent </tspan><tspan class="cls-1" x="297.65" y="0">c</tspan><tspan x="316.79" y="0">olle</tspan><tspan class="cls-24" x="384.9" y="0">c</tspan><tspan class="cls-16" x="404.53" y="0">t</tspan><tspan x="418.83" y="0">or</tspan></text>
  <text class="cls-26" transform="translate(250.82 330.3)"><tspan class="cls-12" x="0" y="0">P</tspan><tspan x="23.89" y="0">o</tspan><tspan class="cls-25" x="47.74" y="0">r</tspan><tspan x="62.61" y="0">ous positi</tspan><tspan class="cls-18" x="240.98" y="0">v</tspan><tspan x="261.4" y="0">e ele</tspan><tspan class="cls-24" x="346.89" y="0">c</tspan><tspan x="366.51" y="0">t</tspan><tspan class="cls-24" x="381.43" y="0">r</tspan><tspan x="396.3" y="0">ode</tspan></text>
  <text class="cls-26" transform="translate(391.76 433.88)"><tspan x="0" y="0">Se</tspan><tspan class="cls-16" x="45.32" y="0">p</tspan><tspan x="69.12" y="0">a</tspan><tspan class="cls-11" x="91.3" y="0">r</tspan><tspan class="cls-13" x="105.56" y="0">at</tspan><tspan x="141.42" y="0">or</tspan></text>
  <text class="cls-26" transform="translate(243.42 543.36)"><tspan class="cls-12" x="0" y="0">P</tspan><tspan x="23.89" y="0">o</tspan><tspan class="cls-25" x="47.74" y="0">r</tspan><tspan x="62.61" y="0">ous n</tspan><tspan class="cls-25" x="161.7" y="0">e</tspan><tspan class="cls-14" x="183.08" y="0">g</tspan><tspan class="cls-16" x="204.6" y="0">a</tspan><tspan class="cls-17" x="226.16" y="0">ti</tspan><tspan class="cls-18" x="251.94" y="0">v</tspan><tspan x="272.36" y="0">e ele</tspan><tspan class="cls-25" x="357.85" y="0">c</tspan><tspan x="377.47" y="0">t</tspan><tspan class="cls-24" x="392.39" y="0">r</tspan><tspan x="407.26" y="0">ode</tspan></text>
  <text class="cls-26" transform="translate(245.14 640.49)"><tspan x="0" y="0">N</tspan><tspan class="cls-24" x="28.42" y="0">e</tspan><tspan class="cls-15" x="49.81" y="0">g</tspan><tspan class="cls-13" x="71.32" y="0">a</tspan><tspan x="92.88" y="0">ti</tspan><tspan class="cls-18" x="118.67" y="0">v</tspan><tspan x="139.08" y="0">e cur</tspan><tspan class="cls-24" x="229.02" y="0">r</tspan><tspan x="243.89" y="0">ent </tspan><tspan class="cls-2" x="313.5" y="0">c</tspan><tspan x="332.64" y="0">olle</tspan><tspan class="cls-24" x="400.75" y="0">c</tspan><tspan class="cls-16" x="420.37" y="0">t</tspan><tspan x="434.67" y="0">or</tspan></text>
</svg>