<?xml version="1.0" encoding="UTF-8"?>
<svg id="Layer_1" data-name="Layer 1" xmlns="http://www.w3.org/2000/svg" viewBox="0 0 1601.42 760.11">
  <defs>
    <style>
      .cls-1 {
        fill: #ebebf1;
      }

      .cls-2, .cls-3 {
        fill: #f17457;
      }

      .cls-4, .cls-5 {
        fill: #d1c359;
      }

      .cls-6, .cls-7 {
        fill: #253659;
      }

      .cls-8, .cls-9 {
        fill: #04bf9d;
      }

      .cls-10, .cls-11 {
        fill: #455959;
      }

      .cls-3 {
        stroke: #f17457;
      }

      .cls-3, .cls-5, .cls-7, .cls-9, .cls-11 {
        stroke-miterlimit: 10;
      }

      .cls-5 {
        stroke: #d1c359;
      }

      .cls-7 {
        stroke: #253659;
      }

      .cls-9 {
        stroke: #04bf9d;
      }

      .cls-11 {
        stroke: #455959;
      }
    </style>
  </defs>
  <path class="cls-3" d="m219.24,393.99c-40.26-12.84-26.79-118.33,0-147.07,82.49-88.49,434.96-84.81,529.07-5.27,29.68,25.09,4.63,140.24-32.83,155.97"/>
  <path class="cls-9" d="m232.48,619.48c-36.02-9.12-33.75-166.11-.84-178.32,124.09-46.04,377.72-29.88,487.02-16.58,39.17,4.77,41.36,188.17,1.27,202.03"/>
  <path class="cls-7" d="m239.32,253.28c-32.47-7.8-21.27-41.19,5.05-50.98,78.94-29.34,407.71-26.94,492.5.78,26.06,8.52,29.71,44.14-7.04,46.96"/>
  <path class="cls-5" d="m224.31,444.5c0,35.66,395.27,19.44,489.97-3.19,31.88-7.62,30.18-39.58.84-48.02-88.49-25.45-497.55-33.76-497.55,2.45"/>
  <path class="cls-11" d="m228.06,662.89c0,33.04,386.45,16.35,481.55-3.93,28.48-6.07,34.41-35.34,9.26-39.5-87.71-14.5-445.21-5.47-498.39-2.54"/>
  <path class="cls-4" d="m631.94,408.34c.46,0,1.35-.75,1.74-.98s1.26-1.02,1.72-1.02c-.46,0-1.35.75-1.74.98s-1.26,1.02-1.72,1.02h0Z"/>
  <path class="cls-1" d="m287.08,208.73c-.5,11.61-1.01,23.21-1.51,34.82,0-.16,1.55-.87,1.74-.98.22-.13,1.71-.77,1.72-1.02.5-11.61,1.01-23.21,1.51-34.82,0,.16-1.55.87-1.74.98-.22.13-1.71.77-1.72,1.02h0Z"/>
  <path class="cls-1" d="m265.89,229.93l45.42-10.6c1.25-.29,2.23-1.71,3.46-2l-45.42,10.6c-1.25.29-2.23,1.71-3.46,2h0Z"/>
  <path class="cls-1" d="m317.36,216.3c3.67,7.24,7.33,14.49,11,21.73-.08-.16,3.39-1.64,3.46-2,2.27-10.6,4.54-21.21,6.81-31.81-.05.23-1.51.85-1.74.98-.28.16-1.65.7-1.72,1.02-2.27,10.6-4.54,21.21-6.81,31.81l3.46-2c-3.67-7.24-7.33-14.49-11-21.73.02.04-3.51,1.91-3.46,2h0Z"/>
  <path class="cls-1" d="m351.92,218.94l3.47-9.52c.02-.05.23-.53.2-.56-.03-.04-.31.02-.36.02-.22-.02-.49.04-.71.08-.5.07-1,.19-1.49.34-.93.29-1.77.74-2.61,1.21-2.1,1.19-4.24,2.3-5.86,4.14-1.34,1.52-2.34,3.36-2.89,5.32-1.08,3.84-.27,8.11,2.81,10.8,2.89,2.52,7.07,3.19,10.74,2.37,2.58-.58,4.86-2.04,7.1-3.4,1.83-1.12,3.3-2.63,4.2-4.59-.02.05-.54.29-.51.28-.41.23-.82.47-1.23.7s-.82.47-1.22.71c-.11.07-.45.2-.5.31-.69,1.51-1.73,2.81-3.05,3.81-.22.17-.45.31-.67.47,2.99-2.17,3.07-1.68,1.93-1.16-.38.17-.76.33-1.15.46-.79.27-1.61.47-2.43.59-3.25.47-6.78-.2-9.39-2.27-5.82-4.63-3.99-13.74,1.36-17.95.15-.12.31-.24.47-.35,1.14-.76.41-.35-2.21,1.23.18-.1.37-.19.56-.28.43-.19.87-.35,1.31-.48s.92-.23,1.38-.29c.17-.02.42-.09.6-.06.12,0,.24-.02.36-.02l-.27.75-3.4,9.34s.55-.3.51-.28c.41-.23.82-.47,1.23-.7s.82-.47,1.22-.71c.1-.06.46-.2.5-.31h0Z"/>
  <path class="cls-1" d="m404.15,209.96c-1.45.1-2.78.56-4.04,1.26-1.69.93-3.52,1.84-4.98,3.12-2.2,1.93-3.68,4.76-3.87,7.69-.39,6.04,5.17,10.2,10.86,9.96,1.53-.07,3.02-.46,4.38-1.17,1.84-.97,3.87-1.97,5.38-3.42-.43.41-1.23.69-1.74.98s-1.27.58-1.72,1.02c-.2.19-.4.38-.62.55-.11.09-.22.17-.33.25-1.23.95,2.48-1.35,2.18-1.23-.61.25-1.19.52-1.84.68-1.1.29-2.24.39-3.37.32-2.29-.13-4.58-.93-6.38-2.37-3.99-3.19-4.21-8.76-1.54-12.88.75-1.16,1.71-2.19,2.82-3,.16-.11.32-.21.48-.32.2-.14-3.9,2.07-2.17,1.3.29-.13.6-.25.9-.35.69-.22,1.4-.35,2.13-.4.12,0,.46-.25.51-.28.41-.23.82-.47,1.23-.7s.82-.47,1.22-.71c.12-.07.37-.3.5-.31h0Z"/>
  <path class="cls-1" d="m410.67,214.97c1.4,4.63,2.81,9.26,4.21,13.89-.03-.11,3.16-1.78,3.46-2,5.51-3.85,8.47-10.76,7.45-17.41.01.09-1.59.9-1.74.98-.41.24-.82.47-1.22.71-.1.06-.47.21-.5.31-2.34,6.96,2,15.2,9.06,17.22.29.08,1.47-.83,1.74-.98.41-.24.82-.47,1.22-.71.08-.05.44-.32.5-.31-7.06-2.02-11.4-10.26-9.06-17.22l-3.46,2c1.02,6.65-1.94,13.55-7.45,17.41l3.46-2c-1.4-4.63-2.81-9.26-4.21-13.89.08.26-3.56,1.68-3.46,2h0Z"/>
  <path class="cls-1" d="m437.73,215.55l6.76,11.66,3.46-2c-4.31-3.77-5.68-10.44-3.1-15.58.63-1.24,1.48-2.36,2.49-3.31.25-.24.51-.46.78-.68.47-.38,2.04-1.31-.12-.06s-.57.36,0,.13c.32-.13.65-.25.98-.35,2.71-.86,5.62-.86,8.3.11.25.09,1.5-.84,1.74-.98s1.47-1.11,1.72-1.02c-2.39-.86-4.98-.96-7.44-.35-2.65.66-5.08,2.19-7.36,3.63-4.43,2.79-6.56,7.83-5.63,12.96.52,2.89,1.96,5.56,4.18,7.49.19.17,3.4-2.11,3.46-2l-6.76-11.66s-3.48,1.98-3.46,2h0Z"/>
  <path class="cls-1" d="m459.68,218.55l2.88,6.48,3.46-2c-3-3.56-2.88-8.56-.91-12.59.97-1.99,2.39-3.8,4.17-5.14.12-.09.23-.17.35-.26,1.07-.71.37-.32-2.11,1.18.31-.14.6-.29.91-.42.47-.19.94-.34,1.43-.45,1.15-.27,2.33-.31,3.5-.16.38.05,1.41-.79,1.74-.98.41-.24.82-.47,1.22-.71.09-.06.41-.32.5-.31-1.96-.25-3.9.09-5.68.95-2.16,1.05-4.47,2.3-6.26,3.93-2.95,2.69-4.82,6.76-4.68,10.77.08,2.28.88,4.44,2.35,6.18.07.08,3.47-1.99,3.46-2l-2.88-6.48c.05.1-3.53,1.84-3.46,2h0Z"/>
  <path class="cls-1" d="m477.18,216.85c1.38-.4,2.64-1.33,3.86-2.05.83-.49,1.53-.98,2.03-1.83,1.03-1.76,1-4.21-.07-5.95-.44-.72-1.32-1.66-2.23-1.75-.55-.06-1.04.38-1.52.66-.72.41-1.51.79-2.18,1.28-1.79,1.32-2.83,3.61-3.14,5.75-.65,4.43,1.36,9.55,5.32,11.84,2.04,1.18,4.5,1.45,6.75.76,1.22-.38,2.32-1.05,3.43-1.69s2.32-1.28,3.35-2.11c4.24-3.43,6.25-10.12,2.82-14.77,0,0-3.5,1.86-3.46,2,1.23,4.61,2.45,9.22,3.68,13.83-.08-.3,3.24-1.57,3.46-2,2.55-4.95,5.11-9.89,7.66-14.84l-3.46,2,3.44,11.92.88,3.04c.12.41.17,1.06.4,1.4l.13.47.92-.33c1.99-.7,3.99-1.41,5.98-2.11,1.24-.44,2.23-1.57,3.46-2l-5.98,2.11-.69.24c-.28.19-.41.06-.36-.39-.2-.38-.29-.99-.4-1.4l-.88-3.04c-1.15-3.97-2.29-7.95-3.44-11.92.08.28-3.25,1.58-3.46,2-2.55,4.95-5.11,9.89-7.66,14.84l3.46-2c-1.23-4.61-2.45-9.22-3.68-13.83l-3.46,2c1.91,2.59,2.16,5.88,1.18,8.89-.49,1.51-1.27,2.93-2.28,4.16-.48.59-1.02,1.14-1.61,1.63-.31.26-.64.47-.96.72,3.25-2.46,3.02-1.61,1.93-1.16-.26.11-.52.21-.78.3-6.32,2.07-11.56-3.6-12.24-9.5-.38-3.29.6-6.64,3.18-8.81l-3.46,2c1.98.52,3.08,2.33,3.25,4.29.08.96-.04,1.95-.4,2.84-.18.43-.41.84-.7,1.2-.15.18-.32.32-.47.49-.65.73,3.78-1.72,1.91-1.19-1.25.36-2.23,1.65-3.46,2h0Z"/>
  <path class="cls-1" d="m521.44,202.94c-4.07,7.22,1.86,17.59,10.15,17.75.1,0,.48-.26.51-.28.41-.23.82-.47,1.23-.7s.82-.47,1.22-.71c.11-.06.39-.31.5-.31-8.29-.15-14.22-10.52-10.15-17.75-.03.06-.52.28-.51.28-.41.23-.82.47-1.23.7s-.82.47-1.22.71c-.12.07-.43.19-.5.31h0Z"/>
  <path class="cls-1" d="m521.76,208.73c5.55-1.77,11.1-3.53,16.65-5.3.6-.19,1.2-.67,1.74-.98s1.13-.83,1.72-1.02c-5.55,1.77-11.1,3.53-16.65,5.3-.6.19-1.2.67-1.74.98s-1.13.83-1.72,1.02h0Z"/>
  <path class="cls-1" d="m574.16,206.35c-2.71,1.38-5.6,2.88-7.28,5.51-1.41,2.21-2.03,4.95-1.55,7.54,1.01,5.49,7,9.06,12.34,7.82.57-.13,1.23-.69,1.74-.98s1.15-.88,1.72-1.02c-4.69,1.09-9.93-1.51-11.8-5.98-.9-2.16-.9-4.62-.18-6.84.36-1.13.91-2.2,1.62-3.15.35-.47.75-.92,1.17-1.33.18-.17.37-.34.57-.5.13-.11.27-.21.4-.31,1.15-.77.45-.38-2.1,1.18,1.07-.55,2.49-1.51,3.34-1.94h0Z"/>
  <path class="cls-1" d="m593.22,213.78c-.65-.11-1.3-.09-1.92.12-.26.09-.51.21-.75.34-.98.53-1.95,1.1-2.91,1.67-1.21.71-2.12,1.59-2.69,2.89-1.04,2.36-.79,5.57,1.68,6.93,1.43.78,3.12.74,4.61.14,1.38-.56,2.67-1.42,3.95-2.18.75-.44,1.46-.92,2.07-1.54,1.13-1.15,1.92-2.68,1.97-4.31s-.63-3.15-1.7-4.32c-2.44-2.68-6.67-3.51-9.92-1.9-.73.36-1.43.81-2.14,1.22-.34.2-.69.4-1.03.61-.03.02-.34.2-.17.11,2.63-1.3,5.92-.88,8.32.71s3.85,4.52,2.82,7.35c-.49,1.34-1.43,2.52-2.58,3.35-.1.07-.21.14-.31.21l1.35-.78c1.43-.79,1.82-1.01,1.15-.68-.16.07-.31.14-.47.2-.34.13-.68.23-1.03.3-.67.13-1.36.15-2.03.02-2.61-.5-3.92-2.9-3.64-5.41.15-1.29.66-2.57,1.5-3.56.21-.24.44-.47.69-.67.04-.03.09-.07.13-.1.05-.04.11-.08.17-.12l-2.96,1.71c.15-.06.29-.13.44-.18.62-.21,1.28-.24,1.92-.12.07.01.52-.28.51-.28.41-.23.82-.47,1.23-.7s.82-.47,1.22-.71c.09-.05.42-.32.5-.31h0Z"/>
  <path class="cls-1" d="m604.27,203.44c-1.81,9.48-.48,19.35,3.79,28.01-.03-.05,3.52-1.89,3.46-2-4.27-8.66-5.6-18.53-3.79-28.01-.04.22-1.51.85-1.74.98-.27.15-1.66.7-1.72,1.02h0Z"/>
  <path class="cls-1" d="m614.87,201.92c-2.58,10.41-1.22,21.55,3.79,31.04-.01-.02,3.5-1.93,3.46-2-5-9.49-6.36-20.63-3.79-31.04-.06.24-1.5.84-1.74.98-.29.17-1.64.68-1.72,1.02h0Z"/>
  <path class="cls-1" d="m635.82,218.32l2.32-6.6.1-.29c.19-.27.16-.36-.09-.25-.09-.01-.31.07-.38.09-.37.1-.74.22-1.09.37-.91.38-1.75.92-2.6,1.41-1.54.89-3.05,1.73-4.22,3.1-.92,1.09-1.62,2.36-2.05,3.72-.87,2.77-.53,5.89,1.34,8.19s4.69,3.38,7.5,3.42c1.54.02,3.07-.29,4.45-.97s2.58-1.43,3.83-2.18c.68-.41,1.3-.87,1.86-1.43-.1.1-.43.23-.51.28-.41.23-.82.47-1.23.7-.53.31-1.29.58-1.72,1.02-.66.67-2.72,1.91-.06.37s.48-.35-.43-.11c-1.16.3-2.38.39-3.57.28-2.4-.23-4.78-1.27-6.4-3.09-3.44-3.85-2.21-10,1.48-13.23.3-.26.61-.49.93-.72.99-.7-2.97,1.63-2.51,1.45.21-.09.42-.2.63-.28.36-.14.73-.26,1.1-.35.06-.01.36-.1.38-.08.02.02-.29.81-.3.86l-2.22,6.31s.55-.3.51-.28c.41-.23.82-.47,1.23-.7s.82-.47,1.22-.71c.1-.06.47-.21.5-.31h0Z"/>
  <path class="cls-1" d="m657.25,214.33c-1.37.71-2.73,1.48-4.02,2.32-.7.45-1.33,1.01-1.86,1.65-1.13,1.38-1.82,3.12-1.96,4.9-.3,3.74,2.09,6.98,5.6,8.14,1.92.64,4.02.6,5.89-.21,1.22-.53,2.25-1.47,3.46-2-3.78,1.64-8.64.03-10.62-3.61-.97-1.78-1.12-3.91-.61-5.86.26-1.01.7-1.97,1.29-2.83.29-.43.63-.82,1-1.19.18-.18.38-.35.58-.51.1-.08.2-.16.31-.24,1.11-.75.31-.3-2.4,1.36,1.07-.55,2.5-1.5,3.34-1.94h0Z"/>
  <path class="cls-1" d="m665.71,209.64c1.77,7.82,3.55,15.64,5.32,23.46-.08-.36,3.56-1.59,3.46-2-1.77-7.82-3.55-15.64-5.32-23.46.08.36-3.56,1.59-3.46,2h0Z"/>
  <path class="cls-1" d="m666.22,220.8l9.65-1.35,4.72-.66.9-.13.45-.06c.5-.14.59-.11.25.08-.25.32-.65.55-.91.88-2.09,2.64-.76,6.56,1.28,8.81,1.04,1.14,2.43,2.07,3.99,2.25,1.97.22,3.61-.99,5.23-1.93,1.47-.85,2.79-1.67,3.36-3.36.49-1.45.33-3.07-.14-4.5-1.09-3.28-4.3-6.36-7.94-4.95-1.23.48-2.24,1.52-3.46,2,5.72-2.22,10.99,6.84,7.1,11.14-.22.25-.49.43-.73.65,2.95-2.86,3.25-1.6,2.11-1.3-.18.05-.36.11-.55.15-.71.15-1.44.13-2.14-.04-1.43-.35-2.66-1.29-3.59-2.4-1.82-2.17-2.99-5.72-1.25-8.28.21-.31.46-.59.74-.85.07-.07.44-.28.47-.37.23-.14.11-.14-.35,0l-.9.13-4.72.66-10.1,1.41c-.53.07-1.28.71-1.74.98s-1.19.94-1.72,1.02h0Z"/>
  <path class="cls-1" d="m708.16,223.75c-.76-2.19-.74-4.56-.03-6.77.36-1.09.88-2.14,1.55-3.07.33-.47.71-.9,1.11-1.31.61-.6,2.8-1.97.22-.49s-.39.29.4.06c.55-.16,1.11-.28,1.68-.35,1.14-.14,2.3-.1,3.44.11,2.32.43,4.44,1.59,6.01,3.35.2.22,3.31-2.18,3.46-2-2.78-3.12-7.39-4.33-11.36-3.04-.99.32-1.87.82-2.77,1.33-1.22.69-2.51,1.35-3.62,2.21-1.62,1.26-2.83,3.02-3.5,4.96-.79,2.26-.84,4.73-.05,7-.07-.21,3.56-1.73,3.46-2h0Z"/>
  <path class="cls-1" d="m238.63,317.74h24.22c.46,0,1.35-.75,1.74-.98s1.26-1.02,1.72-1.02h-24.22c-.46,0-1.35.75-1.74.98s-1.26,1.02-1.72,1.02h0Z"/>
  <path class="cls-1" d="m250.75,307.15l5.3,24.98c-.08-.38,3.56-1.57,3.46-2l-5.3-24.98c.08.38-3.56,1.57-3.46,2h0Z"/>
  <path class="cls-1" d="m272.97,312.92l13.86,14.08s3.41-1.75,3.46-2c1.6-7.63,3.2-15.25,4.8-22.88-.05.23-1.51.85-1.74.98-.27.16-1.65.7-1.72,1.02-1.6,7.63-3.2,15.25-4.8,22.88l3.46-2-13.86-14.08c-.25-.26-3.25,2.22-3.46,2h0Z"/>
  <path class="cls-1" d="m306.6,312.22c1.26,1.44,3.07,1.61,4.76.84,1.12-.5,2.17-1.19,3.23-1.81.88-.51,1.71-1.03,2.42-1.77,1.23-1.29,2.12-3.14,1.74-4.96-.41-1.95-2.2-3.32-4.07-3.74s-3.82-.02-5.51.82c-2.05,1.03-4.54,2.23-6.06,4.02-3.45,4.06-1.21,10.03,2.26,13.26,5.33,4.96,13.28,4.4,19.88,3,.57-.12,1.24-.69,1.74-.98s1.16-.9,1.72-1.02c-5.39,1.15-11.38,1.75-16.52-.7-4.04-1.93-7.42-6.19-7.33-10.81.04-1.93.7-3.74,2.05-5.13.3-.31.63-.58.98-.85,1.38-1.09-2.21,1.19-2.07,1.15.3-.09.6-.27.89-.38.8-.29,1.65-.48,2.51-.53,3.3-.18,6.88,2.25,5.98,5.9-.21.84-.62,1.62-1.14,2.31-.29.38-.62.74-.98,1.06-.15.13-.3.26-.46.38-1.78,1.36,3.51-1.59,1.96-1.12-1.73.52-3.27.52-4.55-.93-.19-.22-3.31,2.17-3.46,2h0Z"/>
  <path class="cls-1" d="m396.83,313.86c1.42.07,2.6-.36,3.82-1.04,1.42-.8,3.01-1.54,4.22-2.65,2.06-1.88,3.24-5.05,2.26-7.76-.23-.63-.46-1.27-1.15-1.41-.61-.12-1.24-.15-1.86-.06-1.2.17-2.21.81-3.25,1.4-2.41,1.38-4.36,2.62-5.5,5.26-.98,2.27-1.24,4.96-.46,7.33.86,2.62,3.06,4.35,5.67,5.09,3.13.9,6.5.25,9.37-1.15s5.95-3.13,8.22-5.45c6.45-6.6,6.16-17.05,5.93-25.6,0,.13-1.57.88-1.74.98-.3.18-1.62.67-1.72,1.02-2.72,9.47-4.18,21.87,5.41,28.05,3.4,2.19,7.66,2.82,11.27.79,1.68-.94,3.55-1.82,4.91-3.22,1.14-1.17,1.95-2.65,2.41-4.22,1-3.42.26-7.47-3.13-9.21-.19-.1-1.54.86-1.74.98-.43.25-1.46.58-1.72,1.02-2.95,4.92-1.37,11.98,3.8,14.75,2.52,1.35,5.6,1.59,8.33.77,1.26-.38,2.38-1.03,3.52-1.68,1.34-.77,2.71-1.49,3.87-2.52-.97.86-2.48,1.13-3.46,2-.22.19-.45.37-.67.56-.83.72,2.53-1.2,1.2-.71-.55.2-1.09.4-1.66.53-1.2.28-2.44.35-3.66.24-2.38-.23-4.67-1.23-6.34-2.95-3.3-3.4-3.87-8.94-1.45-12.98l-3.46,2c2.67,1.38,3.77,4.25,3.52,7.15-.13,1.49-.58,2.96-1.31,4.27-.34.62-.75,1.2-1.22,1.72-.23.26-.48.51-.74.74-.13.12-.26.23-.4.33-1.16.9-1.61.21,1.91-1.05-8.33,3-15.9-4.38-17.41-12.18-1.11-5.74.13-11.64,1.72-17.17l-3.46,2c.19,6.93.36,14.28-2.62,20.71-1.2,2.59-2.92,4.83-5.2,6.57-.34.26-.7.49-1.05.74l1.89-1.08c-.28.14-.56.28-.84.4-.6.27-1.23.5-1.86.69-1.33.4-2.73.62-4.12.59-4.8-.1-8.78-3.24-8.9-8.18-.05-2.07.5-4.19,1.58-5.96.49-.79,1.09-1.53,1.82-2.11,1.87-1.5-3.69,1.57-1.74,1.02.51-.14.99-.28,1.52-.31.49-.03,1.21-.05,1.66.16.56.27.82,1.03,1,1.62.39,1.29.3,2.68-.1,3.95s-1.16,2.5-2.15,3.44c-.21.2-.45.37-.66.56,2.61-1.37,3.27-1.76,1.98-1.16-.18.07-.35.13-.54.19-.66.19-1.32.24-2,.21-.42-.02-1.37.77-1.74.98s-1.29,1.04-1.72,1.02h0Z"/>
  <path class="cls-1" d="m472.94,298.9c-1.59.1-2.96.66-4.33,1.43-1.73.98-3.59,1.89-5.01,3.31-2.14,2.14-3.43,5.22-3.31,8.26.26,6.53,7.17,9.63,12.91,7.89,2.08-.63,4.03-1.91,5.85-3.06,1.39-.87,2.52-2.04,3.27-3.5-.03.06-.53.29-.51.28-.41.23-.82.47-1.23.7s-.82.47-1.22.71c-.12.07-.44.19-.5.31-.56,1.09-1.32,2.04-2.28,2.81-.12.1-.25.19-.38.29l-.08.06c-1.06.71-.31.28,2.26-1.28-.3.14-.59.28-.9.4-.6.24-1.22.42-1.85.55-2.39.49-4.98.24-7.17-.86-4.97-2.49-5.8-8.56-3.22-13.12.7-1.24,1.62-2.35,2.74-3.24.13-.1.26-.2.4-.3,1.67-1.19-3.51,1.85-2.15,1.22.35-.16.7-.32,1.07-.44.71-.24,1.44-.36,2.18-.41.12,0,.46-.25.51-.28.41-.23.82-.47,1.23-.7s.82-.47,1.22-.71c.12-.07.38-.3.5-.31h0Z"/>
  <path class="cls-1" d="m484.66,292.01c1.26,8.33,2.52,16.65,3.79,24.98-.01-.09,1.59-.9,1.74-.98.17-.1,1.75-.85,1.72-1.02-1.26-8.33-2.52-16.65-3.79-24.98.01.09-1.59.9-1.74.98-.17.1-1.75.85-1.72,1.02h0Z"/>
  <path class="cls-1" d="m479.98,305.47l21.13-3.14,2.46-.37c.42-.06,1.05-.25,1.47-.22.6.04.5-.05.73.62.55,1.62,1.1,3.23,1.66,4.85,1.16,3.39,2.31,6.77,3.47,10.16-.09-.27,3.54-1.64,3.46-2-1.78-8.7,1.37-18.01,8.06-23.84-.98.86-2.47,1.14-3.46,2-6.7,5.84-9.85,15.14-8.06,23.84l3.46-2c-1.13-3.31-2.26-6.62-3.39-9.93-.55-1.62-1.1-3.23-1.66-4.85-.08-.23-.16-.46-.24-.69-.03-.32-.22-.38-.57-.16-.39-.03-.85.13-1.23.18l-2.7.4-21.13,3.14c-.54.08-1.27.71-1.74.98s-1.18.94-1.72,1.02h0Z"/>
  <path class="cls-1" d="m540.4,299.72c-1.14.19-2.06.76-3.05,1.32-1.13.65-2.4,1.23-3.34,2.16-1.2,1.18-1.86,2.84-2.07,4.5-.43,3.54,1.41,7.41,5.27,7.84,2.73.3,5.08-1.4,7.3-2.72,1.85-1.1,3.4-2.56,4.26-4.56s.85-4.14-.18-6.01c-.93-1.69-2.55-2.87-4.35-3.49-2.02-.7-4.29-.73-6.31-.04-1.63.55-3.12,1.57-4.59,2.44-.98.58-1.86,1.24-2.56,2.14.06-.08.47-.26.51-.28.41-.23.82-.47,1.23-.7s.82-.47,1.22-.71c.14-.08.4-.18.5-.31.53-.69,1.16-1.22,1.87-1.71l-2.78,1.61.14-.07c.13-.06.25-.12.38-.17.17-.07.35-.14.53-.21.41-.14.84-.26,1.26-.34,1.62-.32,3.32-.22,4.89.28,3.27,1.03,5.79,3.98,5.33,7.54-.23,1.78-1.13,3.44-2.36,4.73-.31.33-.65.63-1,.91-.19.15-.4.28-.6.43l1.28-.74c1.38-.76,1.73-.96,1.03-.62-.11.05-.21.09-.32.14-.83.33-1.72.52-2.62.51-3.33-.03-5.57-2.73-5.9-5.88-.17-1.63.11-3.33.85-4.79.36-.71.84-1.37,1.44-1.9.16-.14.32-.26.49-.39.46-.35,1.69-.99-1.32.74-1.57.86-2,1.12-1.3.77l.13-.06c.41-.17.83-.29,1.26-.36.14-.02.42-.23.51-.28.41-.23.82-.47,1.23-.7s.82-.47,1.22-.71c.13-.08.36-.28.5-.31h0Z"/>
  <path class="cls-1" d="m574.64,301.39c-2.12-.76-4.37-.51-6.35.52s-4.44,2.19-5.89,4.02c-2.98,3.76-1.16,9.57,3.07,11.5.21.1,1.52-.86,1.74-.98.47-.27,1.39-.57,1.72-1.02,6.45-8.8,10.63-19.12,12.12-29.93-.03.2-1.53.86-1.74.98-.52.3-1.3.57-1.72,1.02-5.38,5.72-4.57,15.15.24,20.96,2.52,3.04,6.17,4.98,10.16,4.98,4.37,0,8.49-2.39,11.98-4.81s6.34-6.32,7.17-10.63c.19-1.01.28-2.03.24-3.05-.02-.54-.08-1.09-.17-1.62-.04-.25-.06-.58-.16-.81-.22-.47-.05-.53-.62-.32-1.81.66-3.63,1.8-5.21,2.89-5.87,4.05-3.79,13.39.19,17.98,3.53,4.07,9.21,5.04,14.36,4.52,6.57-.66,12.71-3.54,18.56-6.41,1.08-.53,2.49-1.52,3.34-1.94-5.06,2.48-10.28,4.9-15.85,5.97-4.58.88-9.97.85-14.06-1.67-5.21-3.2-8.18-10.86-5.97-16.67.49-1.29,1.28-2.47,2.34-3.36.12-.1.25-.19.37-.29,1.61-1.28-3.72,1.85-2.19,1.25.18-.07.96-.54,1.16-.44.16.07.26,1.12.29,1.29.1.59.15,1.19.17,1.78.1,4-1.66,7.88-4.31,10.8-.67.74-1.4,1.42-2.17,2.03-.41.33-.84.63-1.28.92-1.4.95,3-1.57,1.78-1.03-.38.17-.74.36-1.12.51-1.85.76-3.84,1.16-5.84,1.08-3.61-.14-6.93-1.87-9.31-4.54-5.13-5.78-6.11-15.53-.61-21.39l-3.46,2c-1.49,10.81-5.67,21.13-12.12,29.93l3.46-2c-3.34-1.52-5.28-5.48-4.31-9.05.23-.84.62-1.62,1.14-2.32.26-.34.55-.66.87-.96.17-.15.51-.33.62-.52-.05.09-2.55,1.19-1.48.9,1.86-.51,3.52-.76,5.4-.09.25.09,1.5-.84,1.74-.98s1.47-1.11,1.72-1.02h0Z"/>
  <path class="cls-1" d="m299.92,405.71c-2.2-3.83-7.14-.33-9.57,1.33-1.47,1-2.69,2.55-2.97,4.34-.33,2.09.79,4.25,2.09,5.81,3.19,3.82,8.13,5.35,12.15,8.03,3.12,2.09,7.53,6.31,5.63,10.53-.4.88-1.03,1.53-1.74,2.17-.83.76-1.3-.09,1.89-1.03-.23.07-.45.19-.68.27-.44.15-.9.26-1.37.3-1.76.18-3.26-.61-3.76-2.35.08.28-3.56,1.66-3.46,2,.44,1.52,1.64,2.36,3.21,2.38,1.86.02,3.45-1.02,5-1.92s3.23-1.76,4.16-3.39c.98-1.72.66-3.75-.16-5.48-2.13-4.49-7.12-6.55-11.2-8.82-3.56-1.98-8.56-5.28-8.34-9.97.05-1.03.44-2.01,1.01-2.86.28-.41.6-.8.96-1.15.2-.19.41-.36.61-.54,1.09-.95-3.04,1.4-1.64.95,1.86-.6,3.67-.43,4.72,1.4.01.02,3.48-1.97,3.46-2h0Z"/>
  <path class="cls-1" d="m324.45,417.68c2.4-3.35,4.8-6.7,7.2-10.04l.29-.4c.41-.32.41-.47,0-.44-.2-.09-.61-.06-.83-.07-.54-.02-1.08.01-1.61.09-1.08.16-2.1.52-3.07,1.01-2.23,1.14-4.63,2.41-6.4,4.22-1.6,1.65-2.79,3.71-3.43,5.92-1.25,4.29-.15,9.17,3.86,11.59s8.67,1.37,12.43-.74c2.47-1.39,5.03-2.72,6.81-4.99,1.55-1.97,2.33-4.36,2.1-6.86l-3.46,2c1.56,9.24,3.13,18.47,4.69,27.71-.01-.08,1.59-.9,1.74-.98.16-.09,1.75-.86,1.72-1.02-1.56-9.24-3.13-18.47-4.69-27.71.01.08-1.59.9-1.74.98-.18.1-1.74.83-1.72,1.02.37,4.14-2,7.35-5.21,9.66,2.95-2.13,2.66-1.45,1.5-.93-.17.07-.33.15-.5.21-.46.19-.93.35-1.41.49-.95.27-1.92.44-2.9.5-1.87.11-3.77-.22-5.43-1.09-3.56-1.88-5.2-5.82-4.75-9.71.22-1.91.88-3.77,1.86-5.43.49-.83,1.07-1.61,1.72-2.33.31-.34.63-.65.97-.96.58-.51,2.68-1.8.12-.32s-.42.3.31.07c.51-.16,1.02-.28,1.55-.34s1.08-.09,1.62-.06c.19,0,.52-.02.69.06.4-.03.4.12,0,.44l-.43.6c-2.35,3.28-4.7,6.56-7.05,9.84.28-.39,1.32-.74,1.74-.98.46-.27,1.4-.57,1.72-1.02h0Z"/>
  <path class="cls-1" d="m340.38,414.31c.27-.42.58-.81.95-1.16.18-.17.36-.33.56-.47.1-.07.2-.14.3-.21,1.23-.88-4.09,2.18-2.45,1.43.9-.41,1.88-.63,2.86-.69,2.01-.12,4.1.4,5.76,1.56s2.82,3.08,2.86,5.17c.04,2.34-1.23,4.53-2.98,6.02-.3.25-.61.48-.93.7-1.24.83,3.69-2,2.5-1.44-.22.1-.43.21-.65.3-.59.24-1.2.41-1.83.5-1.33.19-2.65,0-3.86-.59-.04-.02-.56.31-.51.28-.41.23-.82.47-1.23.7s-.82.47-1.22.71c-.06.04-.46.32-.5.31,1.26.61,2.65.79,4.03.56,1.66-.28,3.07-1.17,4.5-1.99,1.51-.87,3.01-1.69,4.17-3.03.87-1,1.53-2.2,1.82-3.5,1.19-5.35-4.36-8.86-9.13-8.2-1.69.23-3.07,1.06-4.52,1.9s-2.98,1.64-3.95,3.13c.05-.07.5-.27.51-.28.41-.23.82-.47,1.23-.7s.82-.47,1.22-.71c.13-.08.42-.18.5-.31h0Z"/>
  <path class="cls-1" d="m372.69,412.7c3.32,2.19,3.61,7.48.8,10.22-.45.44-1.27.85.71-.28s1.14-.61.55-.44c-.48.14-.98.21-1.47.21-1.11.01-2.21-.29-3.18-.81-1.85-.98-3.38-2.78-3.67-4.9-.27-2,.69-3.9,2.23-5.13,1.95-1.56-3.46,1.58-1.35.81.45-.16.91-.29,1.38-.36,1.02-.16,2.07-.1,3.05.24.35.12,1.01.33,1.26.63.29.35.14.29-.02.75-.07.19-.12.39-.15.58-.2,1.09.09,2.2.64,3.14,1.13,1.94,3.33,3.33,5.56,3.51,2.92.24,5.55-1.54,7.95-2.94,2.63-1.54,4.78-3.5,6.85-5.71l-3.46,2c3.18,2.82,6.37,5.63,9.55,8.45.11.1,3.47-1.97,3.46-2-1.3-4.03-.59-8.38,1.51-12.01,1.04-1.78,2.4-3.38,4.01-4.67.21-.17.43-.33.65-.49,1.51-1.07-1.7.93-1.76.95.57-.24,1.11-.54,1.7-.75,1.02-.37,2.08-.6,3.15-.72.52-.06,1.29-.72,1.74-.98s1.2-.96,1.72-1.02c-2.6.29-4.76,1.38-6.99,2.67s-4.41,2.67-6.11,4.73c-3.25,3.94-4.69,9.35-3.09,14.29l3.46-2c-3.18-2.82-6.37-5.63-9.55-8.45-.13-.12-3.22,1.74-3.46,2-1.01,1.07-2.03,2.13-3.14,3.1-.5.44-1.02.86-1.56,1.24-2.23,1.6,3.26-1.51.77-.45-.47.2-.96.37-1.45.5-2.49.64-5,.02-6.88-1.77-.82-.78-1.49-1.76-1.76-2.87-.12-.48-.16-.97-.11-1.46.03-.3.1-.59.2-.88.14-.41.3-.41.02-.75-.56-.68-2.08-.91-2.9-.95-1.09-.06-2.19.17-3.19.6-1.08.46-2.08,1.12-3.1,1.7s-2.01,1.14-2.81,1.99c-1.49,1.6-1.96,3.86-1.11,5.9s2.83,3.61,4.97,4.11c2.7.63,4.8-.89,7.02-2.2,1.98-1.17,3.22-2.86,3.46-5.2s-.63-4.81-2.67-6.15c-.14-.09-1.56.88-1.74.98s-1.59,1.1-1.72,1.02h0Z"/>
  <path class="cls-1" d="m430.83,410.48c-1.05-.47-2.08-.39-3.1.13-1.3.66-2.67,1.4-3.85,2.25-1.92,1.38-3.03,4.3-1.66,6.42s4.39,2.74,6.79,2.11c1.38-.36,2.6-1.15,3.82-1.86s2.4-1.34,3.32-2.4c2.46-2.83,2.79-6.85,2.24-10.41.04.29-3.13,1.66-3.46,2-4.47,4.57.07,12.48,5.73,13.16,3.88.46,7.21-1.66,10.38-3.61s5.6-5.07,6.88-8.65c1.77-4.92,1.72-10.25,1.68-15.41,0,.14-1.57.88-1.74.98-.25.14-1.69.73-1.72,1.02-1.39,10.72,5.15,21.71,15.24,25.61.24.09,1.5-.85,1.74-.98s1.48-1.11,1.72-1.02c-10.09-3.9-16.62-14.89-15.24-25.61l-3.46,2c.07,7.56.04,16.25-5.78,21.91-.62.6-1.29,1.12-1.98,1.63-1.15.84,2-1.08,1.8-1.01-.31.1-.62.29-.93.42-.39.16-.79.29-1.19.4-1.58.44-3.28.54-4.88.15-2.58-.63-4.67-2.67-5.75-5.05-1.2-2.64-1.13-5.78.98-7.93l-3.46,2c.47,3.04.31,6.36-1.28,9.07-.4.68-.88,1.31-1.45,1.86-.98.94-1.82.75,1.79-.82-.36.16-.7.32-1.07.44-1.2.39-2.51.5-3.75.25-2.41-.48-4.42-2.45-4.03-5.03.17-1.16.76-2.27,1.59-3.09,1.04-1.03.55.43-1.91.97.25-.06.49-.16.75-.19.64-.09,1.23.05,1.81.31.21.1,1.52-.85,1.74-.98s1.51-1.11,1.72-1.02h0Z"/>
  <path class="cls-1" d="m455.72,406.05c8.05-.78,16.11-1.56,24.16-2.35l5.92-.57,2.96-.29c.79-.08,1.48-.31,2.25-.43,1.99-.33,3.96.34,5.55,1.54,3.2,2.43,5.34,7.17,4.04,11.14-.31.94-.82,1.81-1.51,2.52-.18.19-.38.37-.58.53-1.22,1-1.52.12,1.88-1.02-.48.16-.94.35-1.45.44-2.12.38-4.29-.3-6.06-1.45-3.93-2.53-6.79-7.95-3.79-12.24-.27.39-1.33.74-1.74.98-.46.26-1.41.57-1.72,1.02-2.82,4.04-.44,9.12,3.14,11.78,1.77,1.32,3.99,2.2,6.23,1.97,1.06-.11,2-.5,2.92-1.02,1.29-.72,2.68-1.4,3.86-2.3,3.83-2.91,3.05-8.42.57-11.94-1.24-1.77-3.03-3.29-5.16-3.84-1.05-.27-2.15-.28-3.19-.02-1.85.45-3.79.53-5.69.71-9.7.94-19.39,1.88-29.09,2.82-.51.05-1.3.73-1.74.98s-1.21.97-1.72,1.02h0Z"/>
  <path class="cls-1" d="m517.05,412.19l-.69,2.99,3.46-2c-.32-3.34.43-6.68,2.07-9.59.82-1.45,1.84-2.78,3.04-3.94.56-.53,1.15-1.03,1.78-1.48,2.35-1.67-3.19,1.54-.85.49.38-.17.77-.32,1.16-.46,6.29-2.19,13.67-.08,17.93,5.01.17.2,3.34-2.15,3.46-2-4.87-5.82-13.6-7.58-20.29-3.95-3.44,1.86-6.71,3.8-8.95,7.1s-3.19,6.99-2.82,10.81c-.01-.11,1.58-.89,1.74-.98.28-.16,1.65-.69,1.72-1.02l.69-2.99c-.06.24-1.5.84-1.74.98-.28.16-1.65.69-1.72,1.02h0Z"/>
  <path class="cls-1" d="m274.81,540.21c7.67-.77,15.33-1.53,23-2.3.51-.05,1.3-.73,1.74-.98s1.21-.97,1.72-1.02c-7.67.77-15.33,1.53-23,2.3-.51.05-1.3.73-1.74.98s-1.21.97-1.72,1.02h0Z"/>
  <path class="cls-1" d="m307.77,531.77c3.49,7.75,9.46,14.19,16.93,18.26.17.09,3.41-1.77,3.46-2,2.02-8.39,4.05-16.77,6.07-25.16-.06.24-1.5.84-1.74.98-.29.17-1.64.68-1.72,1.02-2.02,8.39-4.05,16.77-6.07,25.16l3.46-2c-7.47-4.07-13.44-10.51-16.93-18.26.04.09-3.53,1.85-3.46,2h0Z"/>
  <path class="cls-1" d="m343.82,535.32c2.77.05,4.93-1.18,7.26-2.52,2.21-1.28,4.18-2.66,5.44-4.96.3-.56.56-1.14.74-1.75.09-.27.51-1.43.36-1.7-.18-.32-1.26-.53-1.59-.63-.64-.17-1.29-.26-1.96-.28-2.34-.05-4.33.91-6.31,2.04-2.14,1.22-4.25,2.39-5.79,4.37s-2.26,4.24-2.18,6.68c.16,5.32,3.93,10.06,8.55,12.4,6.45,3.26,14.2,1.96,20.58-.76,1.22-.52,2.25-1.48,3.46-2-5.01,2.14-10.61,3.35-16.03,2.29-4.69-.92-8.91-3.71-11.32-7.89-2.15-3.73-2.52-8.4-.07-12.07.53-.8,1.17-1.52,1.88-2.16.36-.32.75-.59,1.12-.9-2.2,1.86-2.66,1.41-1.55.9.28-.13.58-.24.87-.35,1.83-.64,3.86-.76,5.71-.14.22.07.53.15.72.29.4.29.45.17.35.72-.11.63-.28,1.24-.51,1.83-.42,1.08-1.04,2.07-1.8,2.94-.46.53-.96,1.01-1.51,1.44-.26.2-.53.37-.79.56,2.56-1.39,3.28-1.82,2.15-1.28-.2.1-.4.18-.6.26-1.2.47-2.45.67-3.73.65-.45,0-1.36.76-1.74.98s-1.27,1.02-1.72,1.02h0Z"/>
  <path class="cls-1" d="m430.56,538.35c3.21.8,6.02-1.17,8.62-2.8,2.37-1.48,4.18-4.1,3.86-7-.12-1.07-1.97-1.21-2.88-1.12-1.04.1-1.92.6-2.82,1.11-2.35,1.34-4.49,2.49-5.78,4.98-1.04,2.02-1.49,4.51-.74,6.69.85,2.49,3.32,4.07,5.81,4.58,2.66.54,5.45-.05,7.87-1.21,2.62-1.27,5.45-2.81,7.54-4.88,5.88-5.84,5.67-15.32,5.51-22.98,0,.14-1.57.88-1.74.98-.45.26-1.43.58-1.72,1.02-3.81,5.73-2.23,13.69,2.41,18.47,2.39,2.47,5.64,4.03,9.1,4.02,3.94,0,7.37-2.1,10.59-4.13s5.64-4.99,6.84-8.52c.6-1.77.87-3.66.69-5.53-.04-.44-.11-.88-.2-1.32-.02-.1-.11-.63-.16-.66-.05-.03-.28.15-.35.16-.32.07-.71.37-1,.54-.7.39-1.4.8-2.1,1.21-3,1.76-5.2,4.15-6.19,7.56s-.6,7.14,1.47,10c2.36,3.25,6.51,4.8,10.44,4.54,1.88-.12,3.65-.68,5.29-1.58,1.93-1.06,3.99-2.09,5.57-3.67-.9.91-2.55,1.08-3.46,2-.26.26-.52.51-.81.74-.16.13-.34.24-.49.38-.56.52,2.11-1.14,1.94-1.08-.81.31-1.56.67-2.41.88-1.47.36-3.01.44-4.52.27-2.99-.34-5.91-1.73-7.81-4.11-3.8-4.74-2.61-12.27,1.84-16.18.37-.33.77-.58,1.16-.88l-1.27.73c-1.37.75-1.71.95-1.03.61l.25-.12.08.33c.35.71.32,1.86.33,2.64.02,1.6-.26,3.19-.8,4.69-1.08,3.05-3.15,5.75-5.76,7.66-1.1.81-2.39,1,1.27-.65-.43.2-.85.41-1.3.58-.77.3-1.56.53-2.37.68-1.57.3-3.18.29-4.74-.03-2.8-.58-5.28-2.18-7.16-4.31-4.25-4.82-5.58-12.41-1.91-17.93l-3.46,2c.13,6.03.24,12.41-2.24,18.04-1.03,2.35-2.48,4.42-4.5,6.03-.21.17-.43.34-.66.49-1.93,1.37,3.05-1.5.91-.53-.49.22-1,.42-1.51.59-1.1.36-2.25.59-3.41.64-4.17.2-8.58-2.23-8.76-6.77-.07-1.88.5-3.79,1.49-5.38.5-.81,1.12-1.45,1.81-2.1.12-.11.27-.19.38-.29-2.84,2.65-3.24,1.6-2.02,1.24.44-.13.87-.24,1.33-.27.86-.04,2.34.12,2.63.97.39,1.15-.18,2.82-.7,3.84-.3.6-.69,1.15-1.13,1.65-.22.25-.46.49-.71.71-1.32,1.17.84-.59,1.21-.57-.55-.02-1.31.44-1.91.5-.78.09-1.54.01-2.3-.18-.31-.08-1.46.82-1.74.98s-1.41,1.1-1.72,1.02h0Z"/>
  <path class="cls-1" d="m511.11,524.03c-1.02.2-1.93.6-2.83,1.1-1.34.75-2.76,1.47-4,2.39-1.73,1.29-2.99,3.19-3.54,5.27-1.14,4.32,1.33,8.45,5.41,10.04,2.2.85,4.66.89,6.82-.08,1.21-.54,2.26-1.46,3.46-2-3.42,1.53-7.59.52-10.18-2.11-2.75-2.78-2.97-6.96-1.03-10.27.54-.91,1.22-1.75,2.02-2.44.19-.17.39-.32.6-.47.13-.09.26-.18.39-.27.32-.23-3.38,1.77-2.25,1.35.55-.21,1.09-.39,1.67-.51s1.25-.7,1.74-.98c.41-.24.82-.47,1.22-.71.14-.08.35-.28.5-.31h0Z"/>
  <path class="cls-1" d="m517.05,513.38c-.48,10.58,2.5,21.12,8.43,29.9.07.1,3.43-2.05,3.46-2-5.94-8.77-8.91-19.32-8.43-29.9,0,.16-1.55.87-1.74.98-.22.13-1.71.77-1.72,1.02h0Z"/>
  <path class="cls-1" d="m516.18,530.5c7.65-1.59,15.31-3.19,22.96-4.78.56-.12,1.24-.7,1.74-.98s1.16-.9,1.72-1.02c-7.65,1.59-15.31,3.19-22.96,4.78-.56.12-1.24.7-1.74.98s-1.16.9-1.72,1.02h0Z"/>
  <path class="cls-1" d="m542.35,535.61l5.1,5.71c.19.21,3.33-2.17,3.46-2-3.37-4.04-3.76-10.24-.81-14.63.7-1.04,1.57-1.95,2.57-2.7.19-.15.39-.28.59-.42-2.35,1.29-2.94,1.64-1.78,1.06.24-.11.49-.21.74-.31.58-.22,1.18-.4,1.78-.54,2.53-.58,5.17-.37,7.55.66.22.1,1.52-.85,1.74-.98s1.5-1.11,1.72-1.02c-2.09-.9-4.39-1.18-6.64-.84-2.61.4-4.78,1.7-7.03,3.01-2.01,1.17-3.8,2.5-5.02,4.53s-1.76,4.38-1.69,6.71c.09,2.72,1.04,5.36,2.79,7.46l3.46-2-5.1-5.71c-.2-.22-3.3,2.18-3.46,2h0Z"/>
  <path class="cls-1" d="m579.61,527.49c-.79.03-1.51.22-2.21.58-1.38.71-2.88,1.47-4.11,2.43s-2.01,2.5-2.32,4.03c-.67,3.25.69,7.01,4.24,7.73,2.39.48,4.37-.74,6.35-1.89,2.11-1.22,4.02-2.45,5.13-4.7.91-1.83,1.09-3.95.24-5.83-.77-1.71-2.23-3-3.93-3.75-1.96-.87-4.22-1.08-6.3-.58-1.27.3-2.37.93-3.49,1.57-1.34.77-2.77,1.47-3.88,2.57.1-.1.42-.23.51-.28.41-.23.82-.47,1.23-.7.53-.31,1.28-.58,1.72-1.02.27-.27.56-.53.87-.76.11-.08.23-.16.35-.24l-1.32.76c-1.41.77-1.77.99-1.09.65.2-.09.4-.17.61-.25.77-.29,1.59-.46,2.41-.53,1.62-.14,3.27.11,4.77.74,3.07,1.3,5.2,4.37,4.49,7.77-.35,1.69-1.29,3.23-2.54,4.41-.33.31-.69.59-1.06.86-.81.59,2.92-1.61,2.48-1.42-.13.06-.26.13-.4.19-.21.09-.42.17-.64.24-.8.26-1.64.37-2.48.29-3.07-.29-4.9-2.92-5-5.85-.05-1.55.33-3.14,1.14-4.46.39-.63.88-1.14,1.45-1.61.41-.34,1.85-1.08-1.32.74-2.54,1.46-1.72.93-1.13.68.16-.07.33-.13.5-.17.4-.11.81-.17,1.23-.18.11,0,.47-.26.51-.28.41-.23.82-.47,1.23-.7s.82-.47,1.22-.71c.11-.07.38-.3.5-.31h0Z"/>
  <path class="cls-1" d="m601.59,528.06c-1.83-.29-3.24.78-4.76,1.66-1.42.82-2.62,1.58-3.37,3.1-1.25,2.53-1.04,6.24,1.94,7.39.24.09,1.5-.85,1.74-.98.48-.28,1.38-.57,1.72-1.02,6.93-8.98,11-19.95,11.61-31.27,0,.17-1.55.87-1.74.98-.53.31-1.28.58-1.72,1.02-5.11,5.09-5.2,13.52-1.6,19.5,1.81,3.01,4.63,5.4,8.05,6.34,3.76,1.04,7.71.24,11.09-1.59,3.64-1.97,7.19-4.06,9.55-7.57,1.1-1.63,1.91-3.47,2.29-5.4.18-.89.26-1.8.25-2.71,0-.23.05-.6-.04-.81-.17-.41.23-.21-.34-.25-.44-.03-1.1.34-1.48.51-3.54,1.52-7.18,3.8-9.14,7.19s-2.47,7.47-.89,11c1.73,3.87,5.72,6.31,9.85,6.81,4.44.54,8.47-1.54,11.97-4.09-1.07.78-2.39,1.22-3.46,2s2.1-1.1,1.84-1-.51.24-.76.34c-.37.15-.76.28-1.14.39-.78.22-1.58.36-2.39.42-1.63.12-3.28-.07-4.84-.53-3.01-.9-5.75-2.86-7.26-5.65-1.61-2.98-1.59-6.58-.4-9.7.58-1.52,1.43-2.95,2.51-4.16.52-.58,1.09-1.13,1.71-1.6.23-.18.47-.33.7-.5-3.1,2.25-2.85,1.55-1.76,1.08.41-.17.89-.41,1.33-.47.58-.08.48-.04.51.53.02.43.02.86,0,1.29-.04.85-.17,1.7-.37,2.52-.41,1.65-1.13,3.23-2.06,4.65s-2.13,2.74-3.46,3.84c-.29.24-.59.47-.9.7-.24.18-.5.34-.75.51-.99.71,2.89-1.52,1.54-.91-.83.37-1.64.73-2.51.99-6.46,1.93-12.93-.93-16.13-6.79s-2.98-13.96,1.96-18.88l-3.46,2c-.61,11.33-4.68,22.29-11.61,31.27l3.46-2c-2.31-.89-2.99-3.37-2.53-5.64.22-1.12.71-2.21,1.46-3.07.17-.19.37-.35.54-.54.93-.74.14-.3-2.38,1.33.13-.06.26-.1.4-.14.61-.12,1.15-.18,1.78-.08.36.06,1.42-.8,1.74-.98s1.36-1.08,1.72-1.02h0Z"/>
  <path class="cls-1" d="m255.64,649.83l15.33-.77c.11,0,.46-.25.51-.28.41-.23.82-.47,1.23-.7s.82-.47,1.22-.71c.12-.07.38-.3.5-.31l-15.33.77c-.11,0-.46.25-.51.28-.41.23-.82.47-1.23.7s-.82.47-1.22.71c-.12.07-.38.3-.5.31h0Z"/>
  <path class="cls-1" d="m280.38,645.69l9.7,11.87s3.4-1.73,3.46-2c1.3-5.9,2.6-11.8,3.9-17.69,0,.03-.57.31-.51.28-.41.23-.82.47-1.23.7s-.82.47-1.22.71c-.09.05-.48.22-.5.31-1.3,5.9-2.6,11.8-3.9,17.69l3.46-2-9.7-11.87c-.15-.19-3.35,2.14-3.46,2h0Z"/>
  <path class="cls-1" d="m306.33,645.45c.34,1.54,1.55,2.34,3.1,2.3,2.02-.06,3.82-1.38,5.48-2.36,1.34-.78,2.76-1.67,3.2-3.26s-.59-3.37-2.02-4.2c-1.53-.88-3.46-.88-5.12-.38-.91.28-1.73.74-2.55,1.21-1.12.64-2.33,1.24-3.36,2.03-4.02,3.09-2.41,8.84.63,11.99,4.88,5.07,12.5,4.5,18.89,3.76.52-.06,1.29-.72,1.74-.98s1.2-.96,1.72-1.02c-5.15.59-10.89,1.15-15.66-1.34-3.67-1.91-6.81-6.02-6.21-10.34.25-1.82,1.15-3.07,2.53-4.21-2.75,2.27-3.16,1.65-1.86,1.12.18-.07.36-.14.54-.19.36-.12.73-.21,1.11-.27.77-.13,1.56-.14,2.33-.01,2.86.48,5.14,3.55,3.12,6.16-.21.27-.45.52-.71.74-.15.13-.31.23-.45.35,2.73-2.36,3.38-1.78,2.1-1.26-.69.28-1.43.45-2.18.44-1.48-.01-2.6-.83-2.92-2.3.01.07-1.6.9-1.74.98-.15.09-1.75.88-1.72,1.02h0Z"/>
  <path class="cls-1" d="m357.59,642.92c-3.78,4.2-.76,11.23,3.98,13.26,1.4.6,2.93.71,4.4.31.59-.16,1.22-.68,1.74-.98.41-.24.82-.47,1.22-.71.15-.09.34-.26.5-.31-5.45,1.5-10.37-4.36-10.07-9.49.09-1.52.67-2.94,1.69-4.07-.08.09-.44.24-.51.28-.41.23-.82.47-1.23.7s-.82.47-1.22.71c-.15.09-.39.18-.5.31h0Z"/>
  <path class="cls-1" d="m370.35,649.15c-.23,4.36,4.4,8.07,8.61,6.91.59-.16,1.22-.68,1.74-.98.41-.24.82-.47,1.22-.71.07-.04.5-.24.5-.31.36-4.86.72-9.72,1.08-14.59,0,.02-.58.32-.51.28-.41.23-.82.47-1.23.7s-.82.47-1.22.71c-.07.04-.5.24-.5.31-.36,4.86-.72,9.72-1.08,14.59l3.46-2c-4.21,1.17-8.83-2.55-8.61-6.91,0,.02-.58.32-.51.28-.41.23-.82.47-1.23.7s-.82.47-1.22.71c-.07.04-.5.24-.5.31h0Z"/>
  <path class="cls-1" d="m393.58,649.7c-2.51-1.86-3.38-5.38-2.4-8.29.24-.72.61-1.41,1.08-2,.24-.3.51-.58.8-.83.14-.12.28-.23.43-.33.52-.37,1.31-.78-1.22.68-1.49.83-1.93,1.08-1.32.77l.18-.08c1.42-.65,3.05-.79,4.58-.5,1.72.33,3.29,1.23,4.34,2.64.11.15,3.39-2.1,3.46-2-2.04-2.75-6.07-3.52-9.1-2.05-.74.36-1.44.79-2.15,1.2s-1.49.82-2.18,1.31-1.24,1.06-1.67,1.75c-.92,1.45-1.24,3.24-1.02,4.94.25,1.89,1.18,3.66,2.72,4.81.02.02.58-.32.51-.28.41-.23.82-.47,1.23-.7s.82-.47,1.22-.71c.06-.03.48-.32.5-.31h0Z"/>
  <path class="cls-1" d="m406.43,647.83c0-2.56,1.1-4.99,2.87-6.82.43-.44.89-.85,1.39-1.22.14-.1.28-.2.43-.3,1.17-.79-3.65,1.99-2.22,1.29.3-.15.6-.28.91-.39,1.2-.44,2.47-.64,3.75-.56.09,0,.5-.27.51-.28.41-.23.82-.47,1.23-.7s.82-.47,1.22-.71c.1-.06.4-.31.5-.31-1.53-.09-3.04.21-4.43.84-1.22.56-2.38,1.29-3.53,1.96-.75.44-1.51.88-2.19,1.43-2.35,1.88-3.91,4.73-3.91,7.77,0-.01.59-.32.51-.28.41-.23.82-.47,1.23-.7s.82-.47,1.22-.71c.07-.04.5-.25.5-.31h0Z"/>
  <path class="cls-1" d="m420.62,649.71c1.68-.83,3.88-1.79,5.07-3.29,1.11-1.39,1.48-3.36,1.01-5.07-.15-.56-.6-1.84-1.21-2.09s-2.25,1.07-2.8,1.39c-1.51.87-2.87,1.7-3.76,3.25-1.62,2.8-1.53,6.7.42,9.31,2.32,3.11,6.24,2.98,9.35,1.25,2-1.12,4.22-2.18,5.7-4,1.38-1.7,2.04-3.83,1.6-5.99l-3.46,2c.87,3.79,1.73,7.59,2.6,11.38-.08-.36,3.25-1.52,3.46-2,1.94-4.41,3.89-8.82,5.83-13.23l-3.46,2c-.02,5.73,5.68,10.59,11.34,9.96,1.23-.14,2.36-.56,3.44-1.16,1.37-.76,2.8-1.49,4.06-2.42,2.08-1.54,3.42-3.95,3.9-6.47.56-2.94-.07-6.04-2.06-8.32,0,0-3.46,1.78-3.46,2-.08,7.41,3.92,14.5,10.29,18.26.16.1,1.55-.87,1.74-.98s1.57-1.11,1.72-1.02c-6.38-3.77-10.37-10.86-10.29-18.26l-3.46,2c1.96,2.25,2.6,5.27,2.09,8.18-.26,1.44-.79,2.84-1.58,4.08-.42.65-.91,1.26-1.46,1.79-.28.27-.57.52-.88.74-1.81,1.33,3.49-1.55,1.56-.94-3.15.98-6.25.54-8.99-1.35s-4.5-4.79-4.48-8.09c0,.15-1.56.88-1.74.98-.37.21-1.55.62-1.72,1.02-1.94,4.41-3.89,8.82-5.83,13.23l3.46-2c-.87-3.79-1.73-7.59-2.6-11.38.08.37-3.55,1.57-3.46,2,.61,3-.87,5.48-3.04,7.41-.43.38-1.38.85.79-.38s1.2-.65.67-.42c-.33.14-.67.27-1.01.37-.68.2-1.39.31-2.1.3-1.38,0-2.74-.46-3.83-1.31-1.97-1.53-2.83-4.12-2.73-6.55.05-1.26.35-2.52.93-3.64.26-.51.58-.99.95-1.43.17-.2.36-.39.55-.57.13-.12.28-.22.41-.34.46-.35.11-.15-1.04.58-1.12.16-1.47.41-1.04.76.08.28.54.63.71.9.19.33.35.68.46,1.04.21.69.28,1.42.22,2.14-.07.77-.28,1.53-.64,2.22-.85,1.62-2.97,2.26,1.18.2-1.08.53-2.49,1.52-3.34,1.94h0Z"/>
  <path class="cls-1" d="m458.03,644.47c5.37-.77,10.73-1.53,16.1-2.3.13-.02.43-.24.51-.28.41-.23.82-.47,1.23-.7s.82-.47,1.22-.71c.13-.08.36-.29.5-.31-5.37.77-10.73,1.53-16.1,2.3-.13.02-.43.24-.51.28-.41.23-.82.47-1.23.7s-.82.47-1.22.71c-.13.08-.36.29-.5.31h0Z"/>
  <path class="cls-1" d="m512.88,638.69c-1.27.58-2.47,1.35-3.67,2.06-.65.39-1.28.79-1.81,1.34-1,1.04-1.61,2.39-1.89,3.79-.56,2.83.14,6.06,2.05,8.27,1.08,1.25,2.53,2.05,4.16,2.27.08.01.51-.28.51-.28.41-.23.82-.47,1.23-.7s.82-.47,1.22-.71c.09-.05.41-.32.5-.31-5.46-.73-7.68-7.7-5.68-12.28.28-.64.64-1.24,1.1-1.77.23-.27.48-.51.75-.74.14-.11.28-.22.42-.32.47-.35,1.65-.97-1.27.72-2.64,1.53-1.72.95-1.1.67,1.21-.55,2.26-1.45,3.46-2h0Z"/>
  <path class="cls-1" d="m526.41,641.75c-.81.23-1.52.64-2.25,1.05-1.14.65-2.37,1.24-3.4,2.07-1.12.89-1.93,2.14-2.36,3.51-.87,2.8.12,5.76,2.65,7.3,1.2.74,2.63,1.12,4.04,1.08,1.97-.05,3.51-1.08,5.16-2.04.52-.3,1.09-.58,1.58-.94.28-.21.41-.51.55-.83.26-.6.41-1.24.45-1.9.09-1.35-.27-2.7-.9-3.88-1.42-2.67-4.37-4.69-7.47-4.01-.15.03-.41.22-.51.28-.41.23-.82.47-1.23.7s-.82.47-1.22.71c-.14.08-.35.27-.5.31,4.79-1.05,9.36,4.33,8.21,8.93-.14.58-.37,1.19-.76,1.63l-.09.06,2.82-1.64c-.09.04-.18.08-.27.12-.14.06-.27.11-.41.16-.3.1-.61.18-.93.24-1.24.22-2.54.09-3.73-.34-2.38-.86-4.17-2.92-4.3-5.5-.07-1.4.31-2.82,1.02-4.02.36-.6.8-1.16,1.31-1.63.13-.12.26-.23.4-.34.06-.05.12-.09.18-.13.05-.04.1-.07.15-.11.55-.36.11-.11-1.32.75l-1.41.82.2-.1c.09-.04.18-.08.28-.12.19-.07.38-.13.57-.19.59-.17,1.21-.68,1.74-.98.41-.24.82-.47,1.22-.71.15-.09.34-.26.5-.31h0Z"/>
  <path class="cls-1" d="m536.99,635.27c-.38,8.32,2.37,16.57,7.67,23,.16.19,3.34-2.15,3.46-2-5.29-6.43-8.04-14.68-7.67-23,0,.16-1.55.87-1.74.98-.22.13-1.71.77-1.72,1.02h0Z"/>
  <path class="cls-1" d="m549.25,629.13c2.04,9.97,4.09,19.93,6.13,29.9-.08-.38,3.55-1.56,3.46-2-2.04-9.97-4.09-19.93-6.13-29.9.08.38-3.55,1.56-3.46,2h0Z"/>
  <path class="cls-1" d="m574.59,646.55l5.87-4.82,1.36-1.12s.75-.53.73-.6c-.02-.09-.5-.27-.58-.31-.67-.32-1.4-.51-2.15-.58-1.47-.14-2.96.2-4.29.83s-2.48,1.37-3.69,2.08c-.69.41-1.35.83-1.96,1.36-2.24,1.98-3.45,5.1-2.27,7.98,1.05,2.56,3.64,4.22,6.29,4.71,1.51.28,3.12.19,4.55-.39,1.33-.54,2.58-1.38,3.81-2.11.73-.43,1.41-.88,1.99-1.5-.09.09-.44.24-.51.28-.41.23-.82.47-1.23.7s-.82.47-1.22.71c-.15.09-.38.18-.5.31-.21.22-.42.43-.65.62-.11.09-.23.18-.35.27-1.36.99,3.99-2.11,2.46-1.42-.58.26-1.17.45-1.8.56-1.19.21-2.43.14-3.6-.14-2.34-.57-4.57-2.05-5.63-4.27-1.15-2.41-.58-5.17,1.06-7.2.37-.47.8-.89,1.25-1.27.28-.23.57-.44.86-.64,1.24-.86-3.85,2.08-2.49,1.44.22-.11.45-.22.68-.31,1.24-.5,2.59-.74,3.92-.58.69.08,1.36.27,1.99.56.12.05.35.13.44.23.22.07.19.15-.07.26l-.42.34-1.47,1.2-5.87,4.82c.48-.4,1.2-.67,1.74-.98s1.22-.6,1.72-1.02h0Z"/>
  <path class="cls-1" d="m597.92,638.87c-2.68-.3-4.78,1.01-7.01,2.31-2.03,1.18-3.82,2.47-4.85,4.65-1.89,3.96.07,8.3,3.84,10.22,2.01,1.03,4.37,1.28,6.5.48.6-.23,1.19-.66,1.74-.98s1.13-.79,1.72-1.02c-3.34,1.26-7.22-.11-9.42-2.83-2.49-3.08-2.02-7.29.62-10.12.38-.4.79-.77,1.23-1.1.13-.09.26-.18.39-.27.27-.2-3.75,2.01-2.26,1.33.23-.11.47-.2.71-.28,1.07-.37,2.2-.5,3.32-.37.08,0,.51-.28.51-.28.41-.23.82-.47,1.23-.7s.82-.47,1.22-.71c.09-.06.41-.32.5-.31h0Z"/>
  <path class="cls-1" d="m608.65,633.76c.53,7.41,1.05,14.82,1.58,22.23,0-.12,1.58-.89,1.74-.98.19-.11,1.74-.82,1.72-1.02-.53-7.41-1.05-14.82-1.58-22.23,0,.12-1.58.89-1.74.98-.19.11-1.74.82-1.72,1.02h0Z"/>
  <path class="cls-1" d="m606.75,643.7c8.82-.81,17.65-1.62,26.47-2.42.51-.05,1.3-.73,1.74-.98.23-.13,1.49-1.11,1.72-1.02-1.5-.61-2.85-.31-4.22.46-1.67.93-3.62,1.8-4.85,3.32-2.04,2.52-2.44,6.61.7,8.45,3.42,2,7.19-.59,10.05-2.38s4.5-5.32,2.74-8.6c-1.99-3.71-6.97-5.42-10.8-3.76-1.22.53-2.25,1.48-3.46,2,5.33-2.3,13.91,2.68,11.09,9.06-.26.59-.62,1.14-1.04,1.63-.24.28-.51.55-.79.8-.11.09-.22.18-.33.27-1.7,1.32,2.06-1.12,2.09-1.13-1.47.41-2.61,1-4.2.76-2.86-.42-4.61-2.98-4.11-5.8.27-1.51,1.06-2.95,2.17-3.99.1-.09.21-.17.3-.26.99-1-1.99,1.13-2.04,1.13.32-.06.63-.22.96-.27.79-.12,1.55,0,2.29.31l3.46-2c-8.82.81-17.65,1.62-26.47,2.42-.51.05-1.3.73-1.74.98s-1.21.97-1.72,1.02h0Z"/>
  <path class="cls-1" d="m656.13,647.08c-.79-4.9,1.86-9.5,5.76-12.31.28-.2.57-.39.86-.58-2.37,1.32-3.05,1.72-2.06,1.2.2-.1.4-.2.6-.29.52-.23,1.05-.44,1.59-.62,1.14-.37,2.33-.61,3.53-.68,2.42-.14,4.79.44,6.83,1.75.15.09,1.56-.88,1.74-.98s1.58-1.11,1.72-1.02c-3.74-2.39-8.38-2.16-12.29-.3-4.13,1.96-8.43,4.55-10.59,8.74-1.13,2.19-1.56,4.64-1.16,7.07-.01-.09,1.59-.9,1.74-.98.17-.1,1.75-.86,1.72-1.02h0Z"/>
  <path class="cls-1" d="m0,291.59c.58,0,1.16-1,1.73-1-.58,0-1.16,1-1.73,1h0Z"/>
  <path class="cls-6" d="m1033.86,433.69c.58,0,1.16-1,1.73-1-.58,0-1.16,1-1.73,1h0Z"/>
  <path class="cls-6" d="m883.21,290.61c14.93-15.58,30.92-30.14,47.83-43.56,17.1-13.57,35.11-25.99,53.87-37.15,19.34-11.51,39.56-21.58,60.32-30.26s40.21-15.3,60.96-20.93,42.03-9.9,63.43-12.67c2.63-.34,5.26-.66,7.89-.96.32-.04,1.52-1.13,1.73-1-7.72-4.69-15.43-9.38-23.15-14.07l-1.73,1c8.48-.54,16.7,6.28,17.59,14.78.44,4.2-1.07,8.38-3.72,11.61-2.97,3.63-6.23,5.32-11.1,5.31-.58,0-1.16,1-1.73,1,6.28,0,12.92-4.16,16.1-9.5,4.04-6.8,2.24-15.07-3.68-20.14-3.25-2.78-7.42-4.34-11.72-4.06-.34.02-1.51,1.14-1.73,1,7.72,4.69,15.43,9.38,23.15,14.07l1.73-1c-22.16,2.51-44.14,6.58-65.73,12.15-21.59,5.58-42.8,12.65-63.43,21.11-20.12,8.26-39.68,17.87-58.56,28.67-18.75,10.74-36.83,22.61-54.04,35.68s-34.59,28.2-50.29,44.04c-1.92,1.94-3.82,3.89-5.71,5.86.44-.46,1.29-.54,1.73-1h0Z"/>
  <path class="cls-6" d="m1412.64,59.7c4.93-1.18,9.92-2.27,14.62-4.2,3.99-1.64,8.18-3.92,11.11-7.14,3.69-4.05,5.15-9.67,3.64-14.97s-5.65-10.09-9.98-13.67c-4.66-3.86-10.09-6.82-15.57-9.34-5.92-2.72-12.11-4.85-18.42-6.46-12.65-3.23-25.83-4.41-38.86-3.73-15.93.83-31.65,4.61-46.11,11.36-.6.28-1.13.72-1.73,1,23.91-11.15,51.31-14.16,77.19-9.34,12.23,2.28,24.22,6.38,34.93,12.75,8.55,5.09,19.26,14.21,17.21,25.41-1.06,5.79-5.36,10.33-10.62,12.68s-10.38,3.39-15.67,4.65c-.63.15-1.12.85-1.73,1h0Z"/>
  <path class="cls-6" d="m1354.28,4.46c-17.11-1.31-34.39-.06-51.14,3.65-12.01,2.66-23.73,6.61-34.95,11.62-8.48,3.79-17.19,8.22-24.24,14.36-3.08,2.68-6.01,5.89-7.42,9.78s-.81,7.59,1.19,10.96c3.27,5.5,8.92,9.15,14.93,11.02,3.73,1.16,7.6,1.76,11.47,2.28,4.49.6,9.01,1.06,13.52,1.44,2.3.19,4.6.37,6.9.54.56.04,1.19-1.04,1.73-1-8.51-.62-17.1-1.25-25.51-2.75-6.85-1.22-13.37-3.54-18.29-8.65-2.83-2.94-5.09-6.67-4.98-10.87.1-3.7,1.97-7.05,4.29-9.83,6.14-7.33,15.2-11.98,23.75-15.86,10.37-4.71,21.19-8.49,32.25-11.19,15.91-3.88,32.36-5.55,48.73-4.86,2.02.09,4.03.21,6.04.36.56.04,1.19-1.04,1.73-1h0Z"/>
  <path class="cls-6" d="m1233.79,50.9c3.34,37.62,6.68,75.25,10.02,112.87,3.34,37.62,6.68,75.25,10.02,112.87,1.87,21.12,3.75,42.23,5.62,63.35-.02-.27,1.76-.71,1.73-1-3.34-37.62-6.68-75.25-10.02-112.87-3.34-37.62-6.68-75.25-10.02-112.87-1.87-21.12-3.75-42.23-5.62-63.35.02.27-1.76.71-1.73,1h0Z"/>
  <path class="cls-6" d="m1444.27,45.38c1.24,36.86,3.5,73.68,6.79,110.41,3.28,36.55,7.57,73,12.87,109.31,2.98,20.43,6.29,40.82,9.91,61.15-.04-.21,1.77-.76,1.73-1-6.46-36.31-11.92-72.79-16.35-109.4-4.41-36.43-7.8-72.97-10.18-109.59-1.34-20.61-2.35-41.24-3.04-61.87.01.3-1.74.67-1.73,1h0Z"/>
  <path class="cls-6" d="m1461.01,350.22c2.46-1.64,4.87-3.35,7.24-5.12-.53.4-1.2.6-1.73,1-2.34,1.76-4.74,3.46-7.18,5.08.4-.26,1.17-.62,1.67-.96h0Z"/>
  <path class="cls-6" d="m1264.82,345.89c14.04,10.91,30.05,18.97,46.97,24.33,4.84,1.54,9.75,2.85,14.71,3.98.49.11,1.27-1.11,1.73-1-17.28-3.94-34.03-10.28-49.14-19.61-4.33-2.67-8.52-5.59-12.54-8.71-.21-.16-1.54,1.15-1.73,1h0Z"/>
  <path class="cls-6" d="m1334.66,37.73c.58,0,1.16-1,1.73-1-.58,0-1.16,1-1.73,1h0Z"/>
  <path class="cls-6" d="m1307.19,56.56c10-6.61,20-13.21,29.99-19.82-.4.26-1.17.63-1.67.96-10,6.61-20,13.21-29.99,19.82.4-.26,1.17-.63,1.67-.96h0Z"/>
  <path class="cls-6" d="m1339.55,38.52c16.64,4.93,33.29,9.87,49.93,14.8.45.13,1.3-1.13,1.73-1-16.64-4.93-33.29-9.87-49.93-14.8-.45-.13-1.3,1.13-1.73,1h0Z"/>
  <path class="cls-6" d="m1288.39,81.53c4.95,36.17,10.41,72.27,15.95,108.35,5.55,36.17,11.18,72.33,16.45,108.54,2.97,20.36,5.82,40.73,8.49,61.13-.03-.24,1.77-.73,1.73-1-4.76-36.38-10.11-72.69-15.63-108.96s-11.15-72.23-16.55-108.37c-3.02-20.22-5.95-40.44-8.72-60.69.03.24-1.77.74-1.73,1h0Z"/>
  <path class="cls-6" d="m1404.14,79.2c1.29,17.54,2.92,35.04,4.92,52.51,1.99,17.47,4.34,34.9,7.03,52.27,2.66,17.16,5.66,34.28,9.01,51.32,3.36,17.13,7.06,34.19,11.1,51.18s8.43,33.92,13.15,50.74c.58,2.08,1.17,4.16,1.77,6.24-.04-.14,1.78-.83,1.73-1-4.8-16.8-9.28-33.7-13.41-50.67-4.13-16.96-7.91-34.01-11.35-51.13-3.43-17.03-6.51-34.13-9.26-51.28-2.78-17.35-5.21-34.75-7.28-52.19-2.08-17.46-3.81-34.96-5.18-52.49-.17-2.17-.33-4.34-.49-6.51.02.28-1.75.7-1.73,1h0Z"/>
  <path class="cls-6" d="m1293.24,66.85c14.65-9.22,29.29-18.44,43.94-27.67-.4.25-1.16.64-1.67.96-14.65,9.22-29.29,18.44-43.94,27.67.4-.25,1.16-.64,1.67-.96h0Z"/>
  <path class="cls-6" d="m1286.65,76.78c1.63,7.32,3.25,14.65,4.88,21.97-.04-.18,1.78-.79,1.73-1-1.63-7.32-3.25-14.65-4.88-21.97.04.18-1.78.79-1.73,1h0Z"/>
  <path class="cls-6" d="m1329.78,361.58c.59,5.38,1.19,10.76,1.78,16.14l1.73-1c-3.03-1.04-6.07-2.08-9.1-3.12-.13-.04-.75.42-.87.49s-.73.55-.86.51c3.03,1.04,6.07,2.08,9.1,3.12.12.04,1.74-.95,1.73-1-.59-5.38-1.19-10.76-1.78-16.14.03.25-1.76.72-1.73,1h0Z"/>
  <path class="cls-6" d="m1451.02,342.86c1.08,2.44,2.17,4.88,3.25,7.32-.02-.05,1.77-.92,1.73-1-1.08-2.44-2.17-4.88-3.25-7.32.02.05-1.77.92-1.73,1h0Z"/>
  <path class="cls-6" d="m1457.52,351.77c4.24-1.05,8.41-3.33,11.73-6.15,3.68-3.13,6.45-7.28,7.81-11.92-.04.13-.74.42-.87.49-.15.09-.81.33-.86.51-1.12,3.81-3.18,7.29-5.93,10.15-2.97,3.09-6,4.89-10.15,5.92-.63.16-1.11.85-1.73,1h0Z"/>
  <path class="cls-6" d="m1474.62,324.96c.27,4.61.54,9.22.81,13.83,0-.06.79-.44.87-.49.09-.05.87-.41.86-.51-.27-4.61-.54-9.22-.81-13.83,0,.06-.79.44-.87.49-.09.05-.87.41-.86.51h0Z"/>
  <path class="cls-6" d="m1336.05,49.95c1.63,17.93,3.5,35.83,5.61,53.71s4.46,35.73,7.04,53.54c2.59,17.82,5.41,35.6,8.47,53.34,3.08,17.83,6.39,35.61,9.94,53.35,3.54,17.65,7.31,35.26,11.31,52.81.5,2.17,1,4.34,1.5,6.51-.04-.18,1.78-.8,1.73-1-4.06-17.54-7.89-35.13-11.49-52.77s-6.95-35.33-10.07-53.06c-3.12-17.73-6.01-35.5-8.65-53.31-2.66-17.89-5.08-35.82-7.26-53.78-2.17-17.87-4.1-35.77-5.79-53.69-.21-2.22-.41-4.44-.62-6.66.02.27-1.76.71-1.73,1h0Z"/>
  <path class="cls-6" d="m1338.02,375.22c11.93-15.73,23.87-31.46,35.8-47.19-.37.48-1.36.51-1.73,1-11.93,15.73-23.87,31.46-35.8,47.19.37-.48,1.36-.51,1.73-1h0Z"/>
  <path class="cls-6" d="m1389.29,321.47c15.87,7.58,31.74,15.16,47.61,22.74,4.49,2.14,8.98,4.29,13.47,6.43.35.17,1.4-1.16,1.73-1-15.87-7.58-31.74-15.16-47.61-22.74l-13.47-6.43c-.35-.17-1.4,1.16-1.73,1h0Z"/>
  <path class="cls-8" d="m1342.85,363.97c-5.49-39.07-10.98-78.14-16.47-117.21s-10.98-78.14-16.47-117.21c-3.09-22.01-6.19-44.03-9.28-66.04.03.23-1.77.74-1.73,1,5.49,39.07,10.98,78.14,16.47,117.21,5.49,39.07,10.98,78.14,16.47,117.21,3.09,22.01,6.19,44.03,9.28,66.04-.03-.23,1.77-.74,1.73-1h0Z"/>
  <path class="cls-8" d="m1356.17,345.7c-3.64-17.86-7.1-35.75-10.37-53.68s-6.32-35.71-9.2-53.61-5.61-36.01-8.12-54.06c-2.51-17.96-4.83-35.94-6.96-53.95-2.14-18.1-4.1-36.22-5.86-54.35-.22-2.26-.44-4.51-.65-6.77.02.26-1.76.71-1.73,1,1.72,18.14,3.62,36.27,5.72,54.37,2.09,18.01,4.36,36,6.82,53.97,2.47,18.06,5.13,36.08,7.98,54.08,2.84,17.91,5.86,35.79,9.07,53.64s6.64,35.84,10.23,53.7c.45,2.22.9,4.44,1.35,6.66-.04-.19,1.78-.78,1.73-1h0Z"/>
  <path class="cls-8" d="m1367.88,333.39c.58,0,1.16-1,1.73-1-.58,0-1.16,1-1.73,1h0Z"/>
  <path class="cls-8" d="m1367.19,330.47c-4.93-17.87-9.45-35.85-13.54-53.93-4.09-18.08-7.75-36.26-10.98-54.51s-6.03-36.58-8.4-54.97-4.3-36.83-5.8-55.3c-1.49-18.39-2.55-36.81-3.18-55.24-.08-2.35-.15-4.7-.22-7.05,0,.3-1.74.67-1.73,1,.52,18.53,1.47,37.05,2.86,55.53,1.39,18.48,3.22,36.94,5.48,55.33,2.26,18.4,4.96,36.74,8.08,55.01,3.13,18.27,6.68,36.47,10.66,54.57,3.96,18.02,8.35,35.94,13.16,53.75.61,2.27,1.23,4.54,1.86,6.8-.04-.15,1.78-.82,1.73-1h0Z"/>
  <path class="cls-8" d="m1377,320.51c-5.59-16.82-10.7-33.8-15.33-50.92-4.62-17.11-8.76-34.36-12.4-51.71-3.63-17.27-6.76-34.63-9.41-52.08s-4.82-35.13-6.48-52.78c-1.66-17.65-2.81-35.35-3.46-53.06-.08-2.2-.15-4.41-.22-6.61,0,.3-1.74.67-1.73,1,.53,17.72,1.55,35.42,3.09,53.08,1.53,17.66,3.57,35.28,6.1,52.82,2.52,17.46,5.54,34.85,9.04,52.14,3.52,17.37,7.54,34.65,12.04,51.79s9.49,34.16,14.97,51.02c.68,2.1,1.37,4.19,2.07,6.29-.04-.11,1.78-.86,1.73-1h0Z"/>
  <path class="cls-8" d="m1338.25,363.81c-6.38-37.17-12.31-74.42-17.79-111.74-5.48-37.32-10.51-74.7-15.08-112.14-2.57-21.07-5-42.16-7.29-63.26.03.25-1.76.72-1.73,1,4.07,37.5,8.58,74.95,13.55,112.33s10.39,74.72,16.27,111.97c3.31,20.97,6.76,41.92,10.35,62.84-.04-.21,1.77-.76,1.73-1h0Z"/>
  <path class="cls-8" d="m1386.51,314.71c-5.34-35.17-10.68-70.34-16.02-105.51-5.31-34.99-10.63-69.98-15.94-104.98-2.99-19.72-5.99-39.43-8.98-59.15.03.23-1.77.75-1.73,1,5.34,35.17,10.68,70.34,16.02,105.51,5.31,34.99,10.63,69.98,15.94,104.98,2.99,19.72,5.99,39.43,8.98,59.15-.03-.23,1.77-.75,1.73-1h0Z"/>
  <path class="cls-8" d="m1398.94,319.39c-5.53-35.35-11.07-70.69-16.6-106.04s-11.07-70.69-16.6-106.04c-3.1-19.81-6.2-39.63-9.31-59.44.03.22-1.77.75-1.73,1,5.53,35.35,11.07,70.69,16.6,106.04s11.07,70.69,16.6,106.04c3.1,19.81,6.2,39.63,9.31,59.44-.03-.22,1.77-.75,1.73-1h0Z"/>
  <path class="cls-8" d="m1407.8,319.57c-5.51-35.74-11.03-71.49-16.54-107.23-5.49-35.56-10.97-71.12-16.46-106.69-3.09-20.04-6.18-40.08-9.27-60.11.03.22-1.77.75-1.73,1,5.51,35.74,11.03,71.49,16.54,107.23,5.49,35.56,10.97,71.12,16.46,106.69,3.09,20.04,6.18,40.08,9.27,60.11-.03-.22,1.77-.75,1.73-1h0Z"/>
  <path class="cls-8" d="m1420.91,328.63c-5.63-35.19-11.26-70.39-16.9-105.58-5.63-35.19-11.26-70.39-16.9-105.58-3.16-19.73-6.31-39.46-9.47-59.19.04.22-1.77.75-1.73,1,5.63,35.19,11.26,70.39,16.9,105.58s11.26,70.39,16.9,105.58c3.16,19.73,6.31,39.46,9.47,59.19-.04-.22,1.77-.75,1.73-1h0Z"/>
  <path class="cls-8" d="m1435.2,335.75c-5.74-36.7-11.48-73.4-17.21-110.1-5.74-36.7-11.48-73.4-17.21-110.1-3.22-20.57-6.43-41.15-9.65-61.72.03.22-1.77.75-1.73,1,5.74,36.7,11.48,73.4,17.21,110.1,5.74,36.7,11.48,73.4,17.21,110.1,3.22,20.57,6.43,41.15,9.65,61.72-.03-.22,1.77-.75,1.73-1h0Z"/>
  <path class="cls-2" d="m1350.19,352.88c-5.55-36.53-11.09-73.06-16.64-109.6-5.52-36.35-11.04-72.7-16.56-109.04-3.11-20.48-6.22-40.96-9.33-61.44.03.23-1.77.75-1.73,1,5.55,36.53,11.09,73.06,16.64,109.6,5.52,36.35,11.04,72.7,16.56,109.04,3.11,20.48,6.22,40.96,9.33,61.44-.03-.23,1.77-.75,1.73-1h0Z"/>
  <path class="cls-2" d="m1362.76,338.64c-3.93-17.9-7.64-35.85-11.15-53.83s-6.83-36.2-9.93-54.35c-3.08-18.07-5.95-36.17-8.6-54.3-2.65-18.13-5.09-36.3-7.32-54.49-2.24-18.28-4.26-36.59-6.06-54.92-.22-2.27-.44-4.54-.66-6.81.03.26-1.76.71-1.73,1,1.74,18.24,3.7,36.46,5.87,54.66,2.18,18.29,4.58,36.55,7.19,54.78s5.41,36.25,8.44,54.32c3.03,18.07,6.26,36.11,9.72,54.11s7.15,36.13,11.04,54.13c.48,2.23.97,4.45,1.46,6.68-.04-.18,1.78-.79,1.73-1h0Z"/>
  <path class="cls-2" d="m1374.14,327.92c-5.34-17.35-10.19-34.84-14.53-52.46s-8.19-35.37-11.52-53.21-6.17-35.77-8.49-53.77c-2.31-17.91-4.11-35.89-5.4-53.91s-2.08-36.24-2.35-54.39c-.03-2.28-.06-4.56-.08-6.84,0,.32-1.73.66-1.73,1,.14,18.15.79,36.29,1.96,54.4,1.17,18.11,2.85,36.19,5.05,54.2s4.9,35.97,8.12,53.83,6.9,35.46,11.1,53.03,8.94,35.18,14.15,52.57c.66,2.18,1.32,4.36,1.99,6.54-.04-.13,1.78-.84,1.73-1h0Z"/>
  <path class="cls-2" d="m1342.01,364.37c-3.8-19.43-7.36-38.92-10.65-58.45-3.29-19.53-6.32-39.1-9.09-58.71-2.79-19.71-5.31-39.45-7.57-59.22-2.25-19.68-4.24-39.38-5.96-59.11s-3.19-39.48-4.39-59.25c-.15-2.47-.3-4.94-.44-7.41.02.29-1.75.69-1.73,1,1.14,19.77,2.54,39.53,4.2,59.26,1.66,19.73,3.58,39.45,5.77,59.13s4.65,39.53,7.37,59.25c2.71,19.62,5.67,39.2,8.9,58.74s6.71,39.04,10.45,58.48c.47,2.43.94,4.86,1.42,7.29-.04-.2,1.78-.77,1.73-1h0Z"/>
  <path class="cls-2" d="m1394.02,316.32c-4.46-16.95-8.54-33.99-12.21-51.12-3.68-17.13-6.96-34.35-9.85-51.63-2.89-17.28-5.38-34.63-7.47-52.03-2.09-17.4-3.79-34.84-5.08-52.32-1.29-17.47-2.19-34.98-2.67-52.49-.06-2.23-.12-4.46-.17-6.7,0,.31-1.74.67-1.73,1,.39,17.52,1.17,35.03,2.37,52.51s2.78,34.94,4.78,52.34c1.99,17.41,4.38,34.77,7.17,52.07,2.79,17.3,5.97,34.53,9.55,51.69,3.58,17.15,7.55,34.22,11.91,51.19.56,2.16,1.12,4.32,1.69,6.48-.04-.16,1.78-.82,1.73-1h0Z"/>
  <path class="cls-2" d="m1401.3,316.53c-4.58-35.08-9.16-70.17-13.74-105.25-4.58-35.08-9.16-70.17-13.74-105.25-2.58-19.77-5.16-39.54-7.74-59.3.03.24-1.77.73-1.73,1,4.58,35.08,9.16,70.17,13.74,105.25,4.58,35.08,9.16,70.17,13.74,105.25,2.58,19.77,5.16,39.54,7.74,59.3-.03-.24,1.77-.73,1.73-1h0Z"/>
  <path class="cls-2" d="m1415.41,327.42c-4.97-35.24-9.93-70.47-14.9-105.71s-9.93-70.47-14.9-105.71c-2.8-19.85-5.6-39.71-8.39-59.56.03.23-1.77.74-1.73,1,4.97,35.24,9.93,70.47,14.9,105.71s9.93,70.47,14.9,105.71c2.8,19.85,5.6,39.71,8.39,59.56-.03-.23,1.77-.74,1.73-1h0Z"/>
  <path class="cls-2" d="m1427.32,333.59c-4.16-17.5-8.04-35.06-11.63-52.69-3.57-17.54-6.84-35.13-9.83-52.78s-5.71-35.52-8.13-53.34c-2.4-17.73-4.51-35.51-6.33-53.31s-3.36-35.82-4.59-53.76c-.15-2.21-.3-4.42-.44-6.63.02.28-1.75.69-1.73,1,1.16,17.95,2.62,35.88,4.37,53.78s3.78,35.59,6.11,53.34c2.34,17.83,4.98,35.63,7.91,53.37,2.92,17.66,6.12,35.27,9.62,52.82,3.51,17.64,7.32,35.22,11.41,52.73.5,2.16,1.01,4.31,1.53,6.47-.04-.17,1.78-.8,1.73-1h0Z"/>
  <path class="cls-6" d="m1349.92,358.91c-3.84-18.11-7.49-36.27-10.93-54.47-3.44-18.2-6.68-36.43-9.72-54.7-3.04-18.27-5.87-36.57-8.5-54.9-2.63-18.33-5.06-36.69-7.28-55.07s-4.24-36.79-6.05-55.22c-.23-2.29-.45-4.58-.67-6.88.03.26-1.76.71-1.73,1,1.76,18.43,3.73,36.85,5.9,55.24,2.17,18.39,4.55,36.76,7.12,55.09,2.58,18.34,5.36,36.65,8.35,54.92,2.99,18.28,6.17,36.52,9.56,54.72s6.98,36.37,10.78,54.5c.47,2.25.95,4.51,1.43,6.76-.04-.19,1.78-.78,1.73-1h0Z"/>
  <path class="cls-6" d="m1361.34,341.05c-5.32-16.79-10.25-33.7-14.77-50.72s-8.58-33.99-12.26-51.12-6.98-34.52-9.85-51.9c-2.86-17.29-5.3-34.65-7.33-52.06-2.04-17.49-3.66-35.03-4.85-52.6-.15-2.2-.29-4.39-.43-6.59.02.28-1.75.69-1.73,1,1.09,17.58,2.6,35.13,4.54,52.63s4.27,34.79,7.02,52.1c2.77,17.39,5.95,34.72,9.54,51.96s7.56,34.23,11.96,51.2c4.41,17.05,9.23,33.99,14.46,50.81.65,2.1,1.31,4.2,1.98,6.3-.04-.12,1.78-.85,1.73-1h0Z"/>
  <path class="cls-6" d="m1369.03,330.18c-4.94-15.99-9.54-32.09-13.79-48.28s-8.14-32.47-11.67-48.83c-3.55-16.44-6.75-32.95-9.59-49.53s-5.29-33.06-7.39-49.66-3.85-33.25-5.22-49.93c-.17-2.1-.34-4.19-.5-6.29.02.27-1.76.7-1.73,1,1.29,16.69,2.94,33.35,4.95,49.96s4.39,33.19,7.12,49.7,5.85,33.12,9.32,49.58c3.45,16.38,7.25,32.68,11.41,48.89,4.16,16.21,8.66,32.33,13.52,48.35.61,2.01,1.23,4.02,1.85,6.03-.04-.13,1.78-.84,1.73-1h0Z"/>
  <path class="cls-6" d="m1379.06,324.43c-5.6-15.99-10.81-32.12-15.63-48.37s-9.29-32.76-13.34-49.3c-4.03-16.46-7.67-33.01-10.9-49.65-3.24-16.63-6.07-33.34-8.51-50.11-2.44-16.85-4.48-33.76-6.11-50.71-.2-2.09-.39-4.18-.58-6.27.02.27-1.76.71-1.73,1,1.52,16.88,3.44,33.72,5.77,50.5,2.34,16.86,5.09,33.67,8.24,50.4,3.14,16.65,6.67,33.23,10.61,49.71,3.93,16.48,8.26,32.87,12.98,49.15,4.74,16.35,9.88,32.59,15.41,48.69.68,1.98,1.37,3.97,2.06,5.95-.04-.1,1.78-.87,1.73-1h0Z"/>
  <path class="cls-6" d="m1400.69,321.15c-3.99-16.07-7.76-32.2-11.3-48.38-3.55-16.26-6.87-32.57-9.96-48.92-3.07-16.27-5.91-32.59-8.51-48.95s-4.97-32.75-7.11-49.17-4.06-33.04-5.73-49.6c-.2-2.03-.41-4.06-.6-6.09.03.26-1.76.71-1.73,1,1.61,16.48,3.45,32.94,5.52,49.37s4.41,32.99,6.97,49.44c2.55,16.36,5.33,32.69,8.34,48.98,3.01,16.28,6.26,32.53,9.73,48.72,3.49,16.27,7.22,32.49,11.18,48.66.49,1.98.97,3.96,1.47,5.94-.04-.17,1.78-.81,1.73-1h0Z"/>
  <path class="cls-6" d="m1411.58,323.09c-6.06-34.53-12.12-69.07-18.18-103.6-6.03-34.36-12.06-68.72-18.09-103.08-3.38-19.26-6.76-38.53-10.14-57.79.04.21-1.77.76-1.73,1,6.06,34.53,12.12,69.07,18.18,103.6s12.06,68.72,18.09,103.08c3.38,19.26,6.76,38.53,10.14,57.79-.04-.21,1.77-.76,1.73-1h0Z"/>
  <path class="cls-6" d="m1422.21,319.96c-6.36-34.08-12.71-68.16-19.07-102.25-6.32-33.91-12.65-67.82-18.97-101.73-3.58-19.18-7.15-38.36-10.73-57.55.04.2-1.78.77-1.73,1,6.36,34.08,12.71,68.16,19.07,102.25,6.32,33.91,12.65,67.82,18.97,101.73,3.58,19.18,7.15,38.36,10.73,57.55-.04-.2,1.78-.77,1.73-1h0Z"/>
  <path class="cls-6" d="m1434.7,343.39c-4.1-18.95-7.99-37.96-11.65-57-3.68-19.14-7.13-38.32-10.35-57.54-3.21-19.13-6.19-38.29-8.95-57.49-2.76-19.2-5.29-38.42-7.6-57.68s-4.41-38.73-6.27-58.13c-.23-2.4-.46-4.8-.68-7.2.02.26-1.76.71-1.73,1,1.8,19.31,3.82,38.6,6.07,57.86,2.26,19.36,4.75,38.69,7.46,57.99,2.7,19.2,5.63,38.38,8.78,57.51,3.15,19.14,6.53,38.23,10.13,57.29s7.46,38.26,11.53,57.32c.5,2.36,1.01,4.72,1.52,7.07-.04-.19,1.78-.79,1.73-1h0Z"/>
  <path class="cls-4" d="m1424.9,239.82c.58,0,1.16-1,1.73-1-.58,0-1.16,1-1.73,1h0Z"/>
  <path class="cls-4" d="m1406.66,318.55c-6.25-33.23-11.74-66.6-16.46-100.09-4.72-33.48-8.68-67.07-11.87-100.73-1.79-18.85-3.33-37.72-4.63-56.61.02.28-1.75.69-1.73,1,2.33,33.73,5.42,67.41,9.29,101,3.87,33.59,8.5,67.09,13.89,100.47,3.02,18.69,6.29,37.35,9.78,55.96-.04-.2,1.78-.77,1.73-1h0Z"/>
  <path class="cls-4" d="m1424.12,319.01c-10.22-29.34-18.83-59.24-25.77-89.53-6.91-30.13-12.17-60.64-15.76-91.34-2.02-17.32-3.51-34.7-4.46-52.11.02.29-1.75.69-1.73,1,1.7,31.02,5.1,61.95,10.19,92.6,5.06,30.49,11.78,60.71,20.13,90.48,4.71,16.79,9.94,33.43,15.68,49.9-.04-.1,1.78-.87,1.73-1h0Z"/>
  <path class="cls-4" d="m1428.53,325.13c-4.16-16.38-8.05-32.82-11.66-49.33-3.59-16.43-6.92-32.91-9.97-49.45s-5.85-33.29-8.36-49.99-4.74-33.46-6.7-50.24c-1.95-16.78-3.63-33.6-5.02-50.44-.17-2.06-.34-4.13-.5-6.19.02.27-1.76.7-1.73,1,1.33,16.84,2.93,33.67,4.82,50.46,1.88,16.71,4.03,33.39,6.46,50.03,2.44,16.72,5.16,33.4,8.15,50.03,2.99,16.63,6.26,33.21,9.81,49.73s7.36,32.98,11.46,49.38c.5,2.01,1.01,4.02,1.52,6.02-.04-.16,1.78-.81,1.73-1h0Z"/>
  <path class="cls-4" d="m1395.49,317.47c-4.28-17.48-8.13-35.06-11.53-52.73-3.4-17.67-6.35-35.43-8.86-53.25-2.51-17.82-4.56-35.7-6.17-53.62s-2.76-35.89-3.47-53.87-.95-35.98-.75-53.97c.03-2.22.06-4.43.1-6.65,0,.33-1.73.64-1.73,1-.31,17.99-.18,35.99.41,53.98.59,17.98,1.64,35.95,3.13,53.89,1.5,17.93,3.44,35.83,5.84,53.66,2.4,17.83,5.24,35.61,8.53,53.3,3.29,17.69,7.02,35.3,11.2,52.8.51,2.16,1.04,4.31,1.56,6.46-.04-.17,1.78-.8,1.73-1h0Z"/>
  <path class="cls-4" d="m1368.3,319.89c-5.66-31.11-11.32-62.22-16.98-93.33-5.66-31.11-11.32-62.22-16.98-93.33-3.19-17.52-6.37-35.04-9.56-52.56.04.21-1.77.76-1.73,1,5.66,31.11,11.32,62.22,16.98,93.33,5.66,31.11,11.32,62.22,16.98,93.33,3.19,17.52,6.37,35.04,9.56,52.56-.04-.21,1.77-.76,1.73-1h0Z"/>
  <path class="cls-4" d="m1366.29,260.41c-6.74-28.02-12.65-56.24-17.74-84.6-5.08-28.37-9.33-56.88-12.74-85.5-1.93-16.17-3.58-32.37-4.97-48.59.02.27-1.76.7-1.73,1,2.46,28.71,5.75,57.35,9.89,85.87s9.11,56.92,14.92,85.15c3.28,15.95,6.83,31.84,10.63,47.67-.04-.17,1.78-.8,1.73-1h0Z"/>
  <path class="cls-4" d="m1360.69,342.5c-4.36-17.8-8.48-35.67-12.33-53.59s-7.45-35.9-10.78-53.92c-3.34-18.02-6.41-36.1-9.23-54.21-2.82-18.11-5.37-36.26-7.67-54.45-2.29-18.19-4.33-36.4-6.1-54.65-.22-2.25-.43-4.49-.64-6.74.02.26-1.76.71-1.73,1,1.71,18.25,3.67,36.48,5.9,54.67s4.72,36.36,7.47,54.48,5.77,36.2,9.04,54.24c3.27,18.04,6.8,36.02,10.59,53.96,3.79,17.93,7.84,35.81,12.14,53.63.53,2.19,1.06,4.39,1.6,6.58-.04-.17,1.78-.8,1.73-1h0Z"/>
  <path class="cls-4" d="m1348.14,338.46c-5.65-34.09-11.3-68.17-16.95-102.26s-11.3-68.17-16.95-102.26c-3.17-19.11-6.34-38.22-9.5-57.33.04.22-1.77.75-1.73,1,5.65,34.09,11.3,68.17,16.95,102.26,5.65,34.09,11.3,68.17,16.95,102.26,3.17,19.11,6.34,38.22,9.5,57.33-.04-.22,1.77-.75,1.73-1h0Z"/>
  <path class="cls-4" d="m1344.06,365.73c-3.97-19.43-7.78-38.89-11.44-58.38-3.64-19.39-7.11-38.82-10.44-58.27-3.34-19.55-6.52-39.12-9.54-58.72-3-19.5-5.85-39.03-8.54-58.58-2.7-19.65-5.24-39.31-7.63-59-.3-2.45-.59-4.9-.88-7.35.03.25-1.76.73-1.73,1,2.34,19.69,4.84,39.36,7.51,59.02s5.46,39.09,8.42,58.59c2.98,19.61,6.12,39.19,9.42,58.74,3.28,19.46,6.72,38.89,10.32,58.29,3.61,19.5,7.39,38.97,11.32,58.41.49,2.42.98,4.83,1.47,7.25-.04-.19,1.78-.78,1.73-1h0Z"/>
  <path class="cls-4" d="m1442.34,335.86c-6-35.28-11.99-70.56-17.99-105.84s-11.93-70.21-17.89-105.31c-3.34-19.68-6.69-39.36-10.03-59.04.04.21-1.77.76-1.73,1,6,35.28,11.99,70.56,17.99,105.84,5.96,35.1,11.93,70.21,17.89,105.31,3.34,19.68,6.69,39.36,10.03,59.04-.04-.21,1.77-.76,1.73-1h0Z"/>
  <path class="cls-4" d="m1387.34,315.77c-4.23-17.79-8.25-35.63-12.04-53.52s-7.34-35.65-10.68-53.54-6.5-35.99-9.42-54.05c-2.91-17.96-5.59-35.96-8.06-53.99-2.48-18.12-4.74-36.27-6.78-54.44-.25-2.24-.5-4.48-.74-6.72.03.25-1.76.72-1.73,1,1.98,18.18,4.19,36.34,6.61,54.46s5.05,36.04,7.9,54.02,5.95,36.09,9.26,54.08c3.29,17.9,6.8,35.76,10.52,53.57,3.74,17.9,7.7,35.76,11.88,53.56.51,2.19,1.03,4.38,1.55,6.58-.04-.17,1.78-.8,1.73-1h0Z"/>
  <path class="cls-10" d="m1450.49,344.55c-4.64-18.54-9.15-37.12-13.52-55.73-4.35-18.52-8.56-37.07-12.63-55.65-4.1-18.67-8.05-37.37-11.87-56.1-3.8-18.64-7.46-37.3-10.99-56s-6.95-37.6-10.21-56.43c-.4-2.32-.8-4.64-1.2-6.96.04.21-1.77.76-1.73,1,3.23,18.84,6.6,37.66,10.11,56.45,3.49,18.7,7.12,37.37,10.89,56.02,3.78,18.74,7.71,37.45,11.77,56.13s8.22,37.15,12.53,55.67c4.34,18.62,8.81,37.2,13.42,55.75.57,2.28,1.14,4.57,1.71,6.85-.04-.16,1.78-.81,1.73-1h0Z"/>
  <path class="cls-10" d="m1436.21,328.57c-3-18.51-6.16-36.99-9.48-55.44-3.34-18.54-6.85-37.06-10.52-55.54-3.65-18.39-7.47-36.75-11.44-55.07-3.98-18.32-8.12-36.61-12.42-54.86-4.32-18.34-8.81-36.64-13.46-54.9-.57-2.24-1.14-4.47-1.72-6.71.04.16-1.78.81-1.73,1,4.66,18.16,9.17,36.36,13.51,54.6,4.36,18.33,8.56,36.7,12.6,55.1,4.02,18.31,7.87,36.66,11.56,55.05s7.22,36.8,10.59,55.24,6.6,37.1,9.65,55.69c.37,2.28.75,4.56,1.11,6.84-.04-.22,1.77-.75,1.73-1h0Z"/>
  <path class="cls-10" d="m1421.01,327.09c-7.11-35.46-14.22-70.92-21.33-106.39-7.11-35.46-14.22-70.92-21.33-106.39-4-19.96-8-39.92-12.01-59.88.04.2-1.78.78-1.73,1,7.11,35.46,14.22,70.92,21.33,106.39,7.11,35.46,14.22,70.92,21.33,106.39,4,19.96,8,39.92,12.01,59.88-.04-.2,1.78-.78,1.73-1h0Z"/>
  <path class="cls-10" d="m1408.88,320.76c-2.38-17.94-4.95-35.86-7.69-53.75s-5.64-35.58-8.72-53.33-6.38-35.64-9.84-53.4c-3.44-17.68-7.06-35.32-10.86-52.93-3.82-17.69-7.81-35.35-11.98-52.96-.51-2.17-1.03-4.34-1.55-6.51.04.17-1.78.8-1.73,1,4.21,17.6,8.25,35.25,12.11,52.93,3.84,17.6,7.51,35.23,10.99,52.9,3.5,17.76,6.83,35.55,9.98,53.38s6.08,35.51,8.86,53.3c2.79,17.88,5.4,35.8,7.82,53.74.3,2.21.59,4.42.89,6.63-.03-.24,1.77-.73,1.73-1h0Z"/>
  <path class="cls-10" d="m1398.21,315.82c-3.81-16.57-7.42-33.2-10.81-49.86-3.39-16.66-6.58-33.37-9.55-50.12-2.97-16.74-5.74-33.53-8.29-50.34-2.57-16.9-4.92-33.83-7.06-50.78-2.13-16.87-4.05-33.77-5.75-50.69-.21-2.09-.42-4.19-.62-6.28.03.26-1.76.71-1.73,1,1.65,16.93,3.52,33.83,5.59,50.71,2.08,16.88,4.36,33.73,6.86,50.56,2.5,16.82,5.21,33.61,8.13,50.37s6.08,33.64,9.44,50.4c3.34,16.68,6.89,33.31,10.65,49.89.47,2.05.93,4.1,1.41,6.16-.04-.18,1.78-.8,1.73-1h0Z"/>
  <path class="cls-10" d="m1372.22,313.04c-5.84-33.32-11.68-66.64-17.53-99.95s-11.63-66.3-17.44-99.45l-9.78-55.75c.04.21-1.77.76-1.73,1,5.84,33.32,11.68,66.64,17.53,99.95,5.81,33.15,11.63,66.3,17.44,99.45,3.26,18.58,6.52,37.17,9.78,55.75-.04-.21,1.77-.76,1.73-1h0Z"/>
  <path class="cls-10" d="m1367.44,327.06c-6.46-32.87-12.92-65.74-19.38-98.61s-12.92-65.74-19.38-98.61c-3.64-18.5-7.27-37-10.91-55.5.04.2-1.78.77-1.73,1,6.46,32.87,12.92,65.74,19.38,98.61,6.46,32.87,12.92,65.74,19.38,98.61,3.64,18.5,7.27,37,10.91,55.5-.04-.2,1.78-.77,1.73-1h0Z"/>
  <path class="cls-10" d="m1357.42,326.97c-7.19-31.91-13.7-63.97-19.51-96.16-5.78-32.03-10.88-64.18-15.28-96.42-2.48-18.15-4.74-36.33-6.78-54.53.03.25-1.76.72-1.73,1,3.65,32.5,7.99,64.93,13.03,97.25,5.01,32.16,10.72,64.2,17.11,96.12,3.59,17.96,7.41,35.88,11.43,53.75-.04-.18,1.78-.79,1.73-1h0Z"/>
  <path class="cls-10" d="m1346.9,353.55c-3.74-34.06-7.48-68.12-11.21-102.17s-7.44-67.77-11.16-101.65c-2.11-19.19-4.21-38.38-6.32-57.57.03.25-1.76.72-1.73,1,3.74,34.06,7.48,68.12,11.21,102.17,3.72,33.88,7.44,67.77,11.16,101.65,2.11,19.19,4.21,38.38,6.32,57.57-.03-.25,1.76-.72,1.73-1h0Z"/>
  <path class="cls-10" d="m1336.3,366.17c-5.33-37.73-10.66-75.47-15.98-113.2-5.33-37.73-10.66-75.47-15.98-113.2-3-21.26-6-42.52-9.01-63.78.03.23-1.77.74-1.73,1,5.33,37.73,10.66,75.47,15.98,113.2,5.33,37.73,10.66,75.47,15.98,113.2,3,21.26,6,42.52,9.01,63.78-.03-.23,1.77-.74,1.73-1h0Z"/>
  <path class="cls-6" d="m1147.26,680.9c.58,0,1.16-1,1.73-1-.58,0-1.16,1-1.73,1h0Z"/>
  <path class="cls-6" d="m1455.8,593.16c17.8-8.56,36.02-16.22,54.59-22.94,18.57-6.72,37.48-12.5,56.63-17.31,10.82-2.72,21.71-5.12,32.66-7.22.32-.06,1.51-1.12,1.73-1-24.39-13.54-49.63-25.52-75.54-35.84-25.77-10.26-52.19-18.89-79.05-25.82-15.12-3.9-30.38-7.24-45.74-10.05-.51-.09-1.24,1.09-1.73,1,27.44,5.01,54.55,11.77,81.13,20.24,26.43,8.42,52.33,18.51,77.48,30.21,14.16,6.58,28.08,13.68,41.73,21.26l1.73-1c-19.4,3.71-38.6,8.4-57.53,14.05-18.92,5.65-37.56,12.25-55.82,19.78-10.31,4.25-20.49,8.8-30.55,13.63-.6.29-1.13.71-1.73,1h0Z"/>
  <path class="cls-6" d="m1450.07,588.54c-18.51-12.68-37.02-25.36-55.53-38.05-18.37-12.59-36.74-25.18-55.12-37.77-10.42-7.14-20.84-14.28-31.26-21.42l-1.73,1c24.45-5.81,48.9-11.62,73.35-17.43,6.96-1.65,13.93-3.31,20.89-4.96.63-.15,1.12-.85,1.73-1-24.45,5.81-48.9,11.62-73.35,17.43-6.96,1.65-13.93,3.31-20.89,4.96-.27.06-1.57,1.11-1.73,1,18.51,12.68,37.02,25.36,55.53,38.05,18.37,12.59,36.74,25.18,55.12,37.77,10.42,7.14,20.84,14.28,31.26,21.42.25.17,1.51-1.15,1.73-1h0Z"/>
  <path class="cls-6" d="m1453.46,603.67c-1.38,20.34-2.77,40.69-4.15,61.03-1.38,20.34-2.77,40.69-4.15,61.03-.78,11.46-1.56,22.92-2.34,34.38l1.73-1c-19.78-9.85-38.58-21.64-56.07-35.15s-33.57-28.6-48.1-45.16c-8.19-9.34-15.86-19.13-22.97-29.31-.04-.06-1.71,1.03-1.73,1,12.66,18.11,27.09,34.97,43.02,50.29,15.88,15.26,33.23,28.99,51.75,40.92,10.44,6.73,21.25,12.87,32.37,18.41.09.05,1.73-.91,1.73-1,1.38-20.34,2.77-40.69,4.15-61.03,1.38-20.34,2.77-40.69,4.15-61.03.78-11.46,1.56-22.92,2.34-34.38-.02.36-1.71.62-1.73,1h0Z"/>
  <path class="cls-6" d="m1312.15,505.12c.88,19.6,1.76,39.2,2.63,58.81l2.62,58.56c.49,11.05.99,22.09,1.48,33.14-.01-.29,1.75-.68,1.73-1-.88-19.6-1.76-39.2-2.63-58.81-.87-19.52-1.75-39.04-2.62-58.56-.49-11.05-.99-22.09-1.48-33.14.01.29-1.75.68-1.73,1h0Z"/>
  <path class="cls-6" d="m1451.77,758.05c31.47-9.22,62.94-18.43,94.41-27.65,8.79-2.57,17.57-5.15,26.36-7.72,1.18-.35,2.42-1.35,3.48-1.97.82-.47,1.63-.94,2.44-1.42.3-.18.68-.52,1-.61-31.47,9.22-62.94,18.43-94.41,27.65-8.79,2.57-17.57,5.15-26.36,7.72-1.18.35-2.42,1.35-3.48,1.97-.82.47-1.63.94-2.44,1.42-.3.18-.68.52-1,.61h0Z"/>
  <path class="cls-6" d="m1598.11,565.76c-1.65,19.66-3.3,39.33-4.95,58.99-1.65,19.66-3.3,39.33-4.95,58.99-.93,11.12-1.87,22.23-2.8,33.35.03-.37,1.7-.61,1.73-1,1.65-19.66,3.3-39.33,4.95-58.99l4.95-58.99c.93-11.12,1.87-22.23,2.8-33.35-.03.37-1.7.61-1.73,1h0Z"/>
  <path class="cls-10" d="m1589.56,564.28c-30.95,10.6-61.91,21.2-92.86,31.8-8.8,3.01-17.6,6.03-26.4,9.04-1.2.41-2.39,1.33-3.48,1.97-.82.47-1.63.94-2.44,1.42-.31.18-.67.5-1,.61,30.95-10.6,61.91-21.2,92.86-31.8,8.8-3.01,17.6-6.03,26.4-9.04,1.2-.41,2.39-1.33,3.48-1.97.82-.47,1.63-.94,2.44-1.42.31-.18.67-.5,1-.61h0Z"/>
  <path class="cls-10" d="m1597.19,569.95c-18.6,8.16-37.21,16.33-55.81,24.49s-37.21,16.33-55.81,24.49c-10.52,4.62-21.04,9.24-31.56,13.85-2.43,1.07-4.51,2.94-6.93,4,18.6-8.16,37.21-16.33,55.81-24.49s37.21-16.33,55.81-24.49c10.52-4.62,21.04-9.24,31.56-13.85,2.43-1.07,4.51-2.94,6.93-4h0Z"/>
  <path class="cls-10" d="m1594.99,588.01c-18.02,7.33-36.03,14.66-54.05,22-18.02,7.33-36.03,14.66-54.05,22-10.16,4.14-20.33,8.27-30.49,12.41-1.21.49-2.36,1.31-3.48,1.97s-2.25,1.55-3.44,2.03c18.02-7.33,36.03-14.66,54.05-22,18.02-7.33,36.03-14.66,54.05-22,10.16-4.14,20.33-8.27,30.49-12.41,1.21-.49,2.36-1.31,3.48-1.97s2.25-1.55,3.44-2.03h0Z"/>
  <path class="cls-10" d="m1598.65,618.37c-18.86,3.62-37.6,7.81-56.21,12.56-18.6,4.75-37.06,10.06-55.34,15.93-10.36,3.32-20.66,6.83-30.9,10.5-1.2.43-2.38,1.33-3.48,1.97s-2.26,1.61-3.44,2.03c18.07-6.48,36.34-12.43,54.77-17.82,18.43-5.38,37.02-10.21,55.74-14.48,10.61-2.42,21.26-4.65,31.94-6.7.29-.06.83-.45,1.03-.56.82-.46,1.64-.93,2.46-1.4s1.63-.94,2.44-1.42c.27-.16.7-.55,1-.61h0Z"/>
  <path class="cls-10" d="m1591.09,640.07c-18.04,4.63-36.08,9.25-54.12,13.88s-36.08,9.25-54.12,13.88c-10.15,2.6-20.3,5.21-30.44,7.81-.31.08-.79.43-1.03.56-.82.46-1.64.93-2.46,1.4s-1.63.94-2.44,1.42c-.29.17-.69.53-1,.61,18.04-4.63,36.08-9.25,54.12-13.88s36.08-9.25,54.12-13.88c10.15-2.6,20.3-5.21,30.44-7.81.31-.08.79-.43,1.03-.56.82-.46,1.64-.93,2.46-1.4s1.63-.94,2.44-1.42c.29-.17.69-.53,1-.61h0Z"/>
  <path class="cls-10" d="m1588.62,662.15c.58,0,1.16-1,1.73-1-.58,0-1.16,1-1.73,1h0Z"/>
  <path class="cls-10" d="m1593.27,653.79c-19.23,6.17-38.47,12.35-57.7,18.52-19.16,6.15-38.31,12.3-57.47,18.44-10.84,3.48-21.69,6.96-32.53,10.44-1.19.38-2.4,1.34-3.48,1.97-.82.47-1.63.94-2.44,1.42-.3.18-.67.5-1,.61,19.23-6.17,38.47-12.35,57.7-18.52s38.31-12.3,57.47-18.44c10.84-3.48,21.69-6.96,32.53-10.44,1.19-.38,2.4-1.34,3.48-1.97.82-.47,1.63-.94,2.44-1.42.3-.18.67-.5,1-.61h0Z"/>
  <path class="cls-10" d="m1578.37,670.81c-17.09,6.22-34.19,12.44-51.28,18.65-17.09,6.22-34.19,12.44-51.28,18.65-9.68,3.52-19.36,7.04-29.04,10.56-1.2.44-2.38,1.33-3.48,1.97s-2.25,1.6-3.44,2.03c17.09-6.22,34.19-12.44,51.28-18.65,17.09-6.22,34.19-12.44,51.28-18.65,9.68-3.52,19.36-7.04,29.04-10.56,1.2-.44,2.38-1.33,3.48-1.97s2.25-1.6,3.44-2.03h0Z"/>
  <path class="cls-10" d="m1587.61,681.48c-17.25,6.84-34.49,13.69-51.74,20.53s-34.49,13.69-51.74,20.53c-9.74,3.87-19.49,7.73-29.23,11.6-1.21.48-2.36,1.32-3.48,1.97s-2.25,1.56-3.44,2.03c17.25-6.84,34.49-13.69,51.74-20.53s34.49-13.69,51.74-20.53c9.74-3.87,19.49-7.73,29.23-11.6,1.21-.48,2.36-1.32,3.48-1.97s2.25-1.56,3.44-2.03h0Z"/>
  <path class="cls-2" d="m1591.92,593.72c-17.72,8.06-35.44,16.13-53.16,24.19-17.72,8.06-35.44,16.13-53.16,24.19-10,4.55-19.99,9.1-29.99,13.65-2.42,1.1-4.52,2.9-6.93,4,17.72-8.06,35.44-16.13,53.16-24.19,17.72-8.06,35.44-16.13,53.16-24.19,10-4.55,19.99-9.1,29.99-13.65,2.42-1.1,4.52-2.9,6.93-4h0Z"/>
  <path class="cls-2" d="m1594.48,576.75c-17.24,5.68-34.23,12.13-50.9,19.32-16.64,7.18-32.97,15.09-48.91,23.71-9.92,5.37-19.71,10.99-29.4,16.77.1-.06-.75.39-.33.23.53-.2,1.12-.62,1.6-.9,1.59-.9,3.17-1.81,4.73-2.75s3.22-1.92,4.7-2.77c.5-.29.18-.1.68-.39-.42.24.64-.37.66-.38.71-.4,1.54-.87,2.29-1.3,3.66-2.06,7.34-4.07,11.04-6.05,7.62-4.07,15.33-7.99,23.12-11.74,15.25-7.34,30.81-14.04,46.61-20.08,8.98-3.44,18.04-6.66,27.17-9.67,1.19-.39,2.4-1.34,3.48-1.97.82-.47,1.63-.94,2.44-1.42.31-.18.67-.5,1-.61h0Z"/>
  <path class="cls-2" d="m1585.61,569.87c-15.48,4.84-30.65,10.64-45.41,17.36-15.67,7.13-30.78,15.38-45.55,24.23-7.72,4.63-15.28,9.51-22.68,14.65,2.18-1.51,4.74-2.48,6.93-4,6.22-4.32,12.57-8.47,19.03-12.42,1.49-.91,2.99-1.82,4.5-2.7.13-.07,1.22-.71.51-.3.53-.31,1.16-.66,1.82-1.03,3.14-1.76,6.31-3.47,9.51-5.14,13.2-6.9,26.8-13.04,40.71-18.39,7.81-3,15.72-5.75,23.71-8.25,1.19-.37,2.41-1.34,3.48-1.97.82-.47,1.63-.94,2.44-1.42.3-.18.67-.51,1-.61h0Z"/>
  <path class="cls-2" d="m1587.82,556.14c-29.69,6.67-58.71,16.23-86.53,28.55-7.67,3.39-15.25,7-22.72,10.8-1.46.74-2.86,1.61-4.28,2.44-.69.4-1.38.8-2.06,1.21-.06.04-.68.4-.33.23,26.94-13.69,55.22-24.75,84.3-32.97,8.17-2.31,16.41-4.39,24.7-6.25.3-.07.81-.44,1.03-.56.82-.46,1.64-.93,2.46-1.4s1.63-.94,2.44-1.42c.28-.17.69-.54,1-.61h0Z"/>
  <path class="cls-2" d="m1579.15,631.97c-29.23,8.06-58.46,16.12-87.69,24.17-8.19,2.26-16.38,4.52-24.57,6.77-1.17.32-2.43,1.36-3.48,1.97-.82.47-1.63.94-2.44,1.42-.29.17-.68.52-1,.61,29.23-8.06,58.46-16.12,87.69-24.17,8.19-2.26,16.38-4.52,24.57-6.77,1.17-.32,2.43-1.36,3.48-1.97.82-.47,1.63-.94,2.44-1.42.29-.17.68-.52,1-.61h0Z"/>
  <path class="cls-2" d="m1593.79,641.79c-18.86,6.47-37.72,12.95-56.58,19.42-18.78,6.45-37.57,12.89-56.35,19.34-10.61,3.64-21.22,7.28-31.83,10.93-1.2.41-2.39,1.33-3.48,1.97-.82.47-1.63.94-2.44,1.42-.31.18-.67.5-1,.61,18.86-6.47,37.72-12.95,56.58-19.42,18.78-6.45,37.57-12.89,56.35-19.34,10.61-3.64,21.22-7.28,31.83-10.93,1.2-.41,2.39-1.33,3.48-1.97.82-.47,1.63-.94,2.44-1.42.31-.18.67-.5,1-.61h0Z"/>
  <path class="cls-2" d="m1582.32,665.13c-17.66,4.83-35.16,10.25-52.46,16.28s-34.23,12.59-50.99,19.76c-9.51,4.06-18.93,8.32-28.28,12.74-2.4,1.14-4.53,2.86-6.93,4,16.55-7.84,33.36-15.12,50.41-21.81s34.17-12.74,51.56-18.22c9.86-3.11,19.78-6.02,29.76-8.75,1.17-.32,2.44-1.36,3.48-1.97.82-.47,1.63-.94,2.44-1.42.29-.17.68-.52,1-.61h0Z"/>
  <path class="cls-2" d="m1587.59,674.76c-15.46,6.29-30.93,12.58-46.39,18.87-15.46,6.29-30.93,12.58-46.39,18.87-8.77,3.57-17.54,7.14-26.31,10.7-1.21.49-2.36,1.31-3.48,1.97s-2.25,1.55-3.44,2.03c15.46-6.29,30.93-12.58,46.39-18.87s30.93-12.58,46.39-18.87c8.77-3.57,17.54-7.14,26.31-10.7,1.21-.49,2.36-1.31,3.48-1.97s2.25-1.55,3.44-2.03h0Z"/>
  <path class="cls-2" d="m1587,698.79c-19.24,4.05-38.28,9.04-57.04,14.95-18.68,5.89-37.07,12.69-55.08,20.38-10.08,4.3-20.05,8.88-29.88,13.73-1.47.72-2.86,1.62-4.28,2.44-.69.4-1.38.8-2.06,1.21-.06.04-.68.4-.33.23,17.6-8.66,35.62-16.47,53.98-23.37,18.26-6.86,36.85-12.84,55.7-17.89,10.62-2.85,21.31-5.4,32.07-7.67.29-.06.82-.44,1.03-.56.82-.46,1.64-.93,2.46-1.4s1.63-.94,2.44-1.42c.28-.16.7-.55,1-.61h0Z"/>
  <path class="cls-6" d="m1573.08,717.21c-30.44,2.45-60.49,9.32-88.96,20.36-7.87,3.05-15.61,6.43-23.22,10.1-1.47.71-2.87,1.62-4.28,2.44-.69.4-1.38.8-2.06,1.21-.06.04-.68.4-.33.23,27.31-13.19,56.53-22.39,86.47-27.26,8.44-1.37,16.93-2.4,25.45-3.08.24-.02.91-.49,1.03-.56.82-.46,1.64-.93,2.46-1.4s1.63-.94,2.44-1.42c.24-.14.74-.59,1-.61h0Z"/>
  <path class="cls-6" d="m1580.3,691.8c-16.47,5.52-32.94,11.04-49.41,16.56-16.47,5.52-32.94,11.04-49.41,16.56-9.3,3.12-18.6,6.23-27.89,9.35-1.2.4-2.39,1.34-3.48,1.97-.82.47-1.63.94-2.44,1.42-.31.18-.67.5-1,.61,16.47-5.52,32.94-11.04,49.41-16.56,16.47-5.52,32.94-11.04,49.41-16.56,9.3-3.12,18.6-6.23,27.89-9.35,1.2-.4,2.39-1.34,3.48-1.97.82-.47,1.63-.94,2.44-1.42.31-.18.67-.5,1-.61h0Z"/>
  <path class="cls-6" d="m1591.68,669.42c-18.12,6.95-36.24,13.91-54.36,20.86s-36.24,13.91-54.36,20.86c-10.27,3.94-20.53,7.88-30.8,11.82-1.21.46-2.37,1.32-3.48,1.97s-2.25,1.58-3.44,2.03c18.12-6.95,36.24-13.91,54.36-20.86s36.24-13.91,54.36-20.86c10.27-3.94,20.53-7.88,30.8-11.82,1.21-.46,2.37-1.32,3.48-1.97s2.25-1.58,3.44-2.03h0Z"/>
  <path class="cls-6" d="m1578.32,665.14c-17.15,6.24-34.29,12.48-51.44,18.71s-34.29,12.48-51.44,18.71c-9.71,3.53-19.42,7.06-29.12,10.6-1.2.44-2.38,1.33-3.48,1.97s-2.25,1.6-3.44,2.03c17.15-6.24,34.29-12.48,51.44-18.71s34.29-12.48,51.44-18.71c9.71-3.53,19.42-7.06,29.12-10.6,1.2-.44,2.38-1.33,3.48-1.97s2.25-1.6,3.44-2.03h0Z"/>
  <path class="cls-6" d="m1583.42,645.22c-18.02,6.87-36.05,13.74-54.07,20.6-17.95,6.84-35.89,13.68-53.84,20.52-10.18,3.88-20.35,7.76-30.53,11.63-1.21.46-2.37,1.32-3.48,1.97s-2.25,1.58-3.44,2.03c18.02-6.87,36.05-13.74,54.07-20.6,17.95-6.84,35.89-13.68,53.84-20.52,10.18-3.88,20.35-7.76,30.53-11.63,1.21-.46,2.37-1.32,3.48-1.97s2.25-1.58,3.44-2.03h0Z"/>
  <path class="cls-6" d="m1574.8,643.26c-16.87,5.57-33.74,11.14-50.62,16.72s-33.9,11.2-50.85,16.79c-9.54,3.15-19.08,6.3-28.62,9.45-1.19.39-2.4,1.34-3.48,1.97-.82.47-1.63.94-2.44,1.42-.31.18-.67.5-1,.61,16.87-5.57,33.74-11.14,50.62-16.72,16.95-5.6,33.9-11.2,50.85-16.79,9.54-3.15,19.08-6.3,28.62-9.45,1.19-.39,2.4-1.34,3.48-1.97.82-.47,1.63-.94,2.44-1.42.31-.18.67-.5,1-.61h0Z"/>
  <path class="cls-6" d="m1575.8,634.07c-17.12,4.79-34.25,9.59-51.37,14.38-17.2,4.82-34.41,9.63-51.61,14.45-9.68,2.71-19.36,5.42-29.05,8.13-1.17.33-2.43,1.36-3.48,1.97-.82.47-1.63.94-2.44,1.42-.29.17-.68.52-1,.61,17.12-4.79,34.25-9.59,51.37-14.38,17.2-4.82,34.41-9.63,51.61-14.45,9.68-2.71,19.36-5.42,29.05-8.13,1.17-.33,2.43-1.36,3.48-1.97.82-.47,1.63-.94,2.44-1.42.29-.17.68-.52,1-.61h0Z"/>
  <path class="cls-6" d="m1590.94,607.86c-18.45,4.67-36.62,10.46-54.37,17.35-17.65,6.85-34.88,14.78-51.56,23.72-10.39,5.57-20.61,11.46-30.64,17.63-.45.27.59-.3.36-.17.7-.38,1.39-.78,2.08-1.18,1.42-.82,2.85-1.63,4.25-2.48,1.9-1.17,3.8-2.32,5.71-3.45.69-.41,1.41-.83,1.99-1.17-.22.13.32-.18.32-.18.27-.15.6-.34.98-.56,3.79-2.15,7.62-4.22,11.48-6.25,7.91-4.16,15.95-8.09,24.09-11.79,16.16-7.34,32.74-13.76,49.64-19.2,9.49-3.06,19.08-5.81,28.74-8.26.31-.08.79-.43,1.03-.56.82-.46,1.64-.93,2.46-1.4s1.63-.94,2.44-1.42c.29-.17.69-.53,1-.61h0Z"/>
  <path class="cls-6" d="m1587.17,588.54c-16.13,6.61-32.27,13.23-48.4,19.84-16.13,6.61-32.27,13.23-48.4,19.84-9.07,3.72-18.13,7.43-27.2,11.15-1.21.49-2.36,1.31-3.48,1.97s-2.25,1.55-3.44,2.03c16.13-6.61,32.27-13.23,48.4-19.84,16.13-6.61,32.27-13.23,48.4-19.84,9.07-3.72,18.13-7.43,27.2-11.15,1.21-.49,2.36-1.31,3.48-1.97s2.25-1.55,3.44-2.03h0Z"/>
  <path class="cls-6" d="m1588.99,570.83c-17.69,6.99-35.39,13.99-53.08,20.98-17.77,7.02-35.54,14.05-53.32,21.07-9.97,3.94-19.94,7.88-29.9,11.82-1.21.48-2.36,1.32-3.48,1.97s-2.25,1.56-3.44,2.03l53.08-20.98c17.77-7.02,35.54-14.05,53.32-21.07,9.97-3.94,19.94-7.88,29.9-11.82,1.21-.48,2.36-1.32,3.48-1.97s2.25-1.56,3.44-2.03h0Z"/>
  <path class="cls-6" d="m1596.4,556.63c-15.81,4.14-31.45,8.94-46.87,14.4-15.41,5.46-30.59,11.56-45.49,18.29-8.27,3.74-16.46,7.67-24.55,11.79-1.46.74-2.86,1.61-4.28,2.44-.69.4-1.38.8-2.06,1.21-.06.04-.68.4-.33.23,14.53-7.39,29.36-14.18,44.46-20.33s30.25-11.59,45.7-16.42c8.77-2.74,17.6-5.28,26.48-7.6.31-.08.79-.42,1.03-.56.82-.46,1.64-.93,2.46-1.4s1.63-.94,2.44-1.42c.29-.17.68-.53,1-.61h0Z"/>
  <path class="cls-4" d="m1574.92,573.77c-15.85,3.8-31.48,8.49-46.79,14.05-15.29,5.55-30.26,11.97-44.83,19.21-8.54,4.24-16.92,8.8-25.19,13.55-1.37.79-3.02,1.48-4.25,2.48-.33.27.41-.2.36-.17.7-.38,1.39-.78,2.08-1.18,13.33-7.65,27.51-14.59,41.75-20.72,14.41-6.2,29.16-11.61,44.15-16.2,8.52-2.61,17.12-4.95,25.78-7.02.31-.07.8-.43,1.03-.56.82-.46,1.64-.93,2.46-1.4s1.63-.94,2.44-1.42c.28-.17.69-.54,1-.61h0Z"/>
  <path class="cls-4" d="m1584.65,590.24c-16.31,2.58-32.44,6.26-48.26,11.02-15.74,4.73-31.16,10.53-46.13,17.33-8.37,3.81-16.59,7.93-24.66,12.35-1.6.87-3.17,1.8-4.75,2.72-.37.22-1.4.59-1.58.94-.1.2.06,0,.36-.17,14.33-7.83,29.2-14.68,44.45-20.51,15.21-5.82,30.81-10.62,46.66-14.36,8.92-2.11,17.92-3.87,26.97-5.31.27-.04.86-.46,1.03-.56.82-.46,1.64-.93,2.46-1.4s1.63-.94,2.44-1.42c.26-.16.72-.57,1-.61h0Z"/>
  <path class="cls-4" d="m1592.25,602.72c-18.7,3.99-37.22,8.8-55.49,14.44s-36.29,12.09-53.98,19.33c-9.97,4.08-19.83,8.41-29.58,12.98-2.41,1.13-4.53,2.87-6.93,4,17.31-8.12,34.98-15.47,52.94-22.02,17.96-6.55,36.22-12.29,54.7-17.21,10.41-2.77,20.88-5.28,31.42-7.52.3-.06.82-.44,1.03-.56.82-.46,1.64-.93,2.46-1.4s1.63-.94,2.44-1.42c.28-.16.7-.55,1-.61h0Z"/>
  <path class="cls-4" d="m1593.42,621.39c-18.64,3.98-37.13,8.68-55.41,14.09-18.28,5.42-36.34,11.54-54.14,18.37-10,3.83-19.92,7.89-29.75,12.16-2.44,1.06-4.51,2.95-6.93,4,17.49-7.59,35.26-14.51,53.29-20.72,18.02-6.21,36.29-11.72,54.74-16.51,10.37-2.69,20.8-5.15,31.28-7.39.3-.06.82-.44,1.03-.56.82-.46,1.64-.93,2.46-1.4s1.63-.94,2.44-1.42c.28-.16.7-.55,1-.61h0Z"/>
  <path class="cls-4" d="m1592.76,637.07c-19.96,5.26-39.93,10.51-59.89,15.77s-39.6,10.43-59.41,15.64c-11.27,2.97-22.54,5.93-33.81,8.9-.31.08-.79.42-1.03.56-.82.46-1.64.93-2.46,1.4s-1.63.94-2.44,1.42c-.29.17-.68.53-1,.61,19.96-5.26,39.93-10.51,59.89-15.77,19.8-5.21,39.6-10.43,59.41-15.64,11.27-2.97,22.54-5.93,33.81-8.9.31-.08.79-.42,1.03-.56.82-.46,1.64-.93,2.46-1.4s1.63-.94,2.44-1.42c.29-.17.68-.53,1-.61h0Z"/>
  <path class="cls-4" d="m1577.29,659.23c-16.75,5.76-33.49,11.51-50.24,17.27-16.75,5.76-33.49,11.51-50.24,17.27-9.43,3.24-18.87,6.49-28.3,9.73-1.2.41-2.39,1.33-3.48,1.97-.82.47-1.63.94-2.44,1.42-.31.18-.67.5-1,.61,16.75-5.76,33.49-11.51,50.24-17.27,16.75-5.76,33.49-11.51,50.24-17.27,9.43-3.24,18.87-6.49,28.3-9.73,1.2-.41,2.39-1.33,3.48-1.97.82-.47,1.63-.94,2.44-1.42.31-.18.67-.5,1-.61h0Z"/>
  <path class="cls-4" d="m1586.01,677.99c-18.43,3.74-36.71,8.2-54.79,13.39s-35.79,11.05-53.32,17.63c-9.95,3.73-19.8,7.69-29.57,11.87-1.21.52-2.35,1.31-3.48,1.97s-2.25,1.52-3.44,2.03c17.29-7.39,34.87-14.1,52.7-20.09s35.74-11.23,53.9-15.77c10.31-2.58,20.67-4.92,31.08-7.03.29-.06.83-.45,1.03-.56.82-.46,1.64-.93,2.46-1.4s1.63-.94,2.44-1.42c.27-.16.7-.55,1-.61h0Z"/>
  <path class="cls-4" d="m1578.21,703.05c-16.43,4.17-32.86,8.33-49.29,12.5-16.35,4.15-32.7,8.29-49.04,12.44-9.26,2.35-18.52,4.7-27.78,7.05-.31.08-.79.43-1.03.56-.82.46-1.64.93-2.46,1.4s-1.63.94-2.44,1.42c-.29.17-.69.53-1,.61,16.43-4.17,32.86-8.33,49.29-12.5,16.35-4.15,32.7-8.29,49.04-12.44,9.26-2.35,18.52-4.7,27.78-7.05.31-.08.79-.43,1.03-.56.82-.46,1.64-.93,2.46-1.4s1.63-.94,2.44-1.42c.29-.17.69-.53,1-.61h0Z"/>
  <path class="cls-4" d="m1578.73,715.71c-29.59,8.31-59.18,16.62-88.77,24.93-8.32,2.34-16.63,4.67-24.95,7.01-1.17.33-2.43,1.36-3.48,1.97-.82.47-1.63.94-2.44,1.42-.29.17-.68.52-1,.61,29.59-8.31,59.18-16.62,88.77-24.93,8.32-2.34,16.63-4.67,24.95-7.01,1.17-.33,2.43-1.36,3.48-1.97.82-.47,1.63-.94,2.44-1.42.29-.17.68-.52,1-.61h0Z"/>
  <path class="cls-6" d="m901.65,534.88c23.32,15.88,48.05,29.67,73.8,41.21,25.75,11.54,52.5,20.84,79.85,27.81,27.26,6.94,55.11,11.56,83.15,13.74,14.06,1.1,28.17,1.58,42.28,1.44,7.01-.07,14.01-.29,21.01-.67,3.54-.19,7.09-.42,10.63-.7,1.63-.13,3.27-.26,4.9-.4.91-.08,1.81-.16,2.72-.25.33-.03.77-.13,1.09-.1.7-.18.73-.05.08.38l-.46.43c-5.97,5.61-11.93,11.22-17.9,16.83.08-.07-.92.86-.92.86.09.09.93-.15,1.08-.19.64-.14,1.27-.31,1.89-.53.98-.35,1.9-.81,2.81-1.32,1.91-1.08,3.72-2.24,5.26-3.84,3.89-4.04,5.92-10,4.4-15.51s-6.1-9.74-11.41-11.41c-2.62-.83-5.37-.98-8.06-.41-.62.13-1.12.87-1.73,1,11.18-2.37,22.45,8.23,19.46,19.58-.71,2.69-2.09,5.19-3.94,7.27-.88.98-1.86,1.87-2.93,2.63-2.05,1.45.81-.22-.53.34-.4.17-.78.37-1.18.52-.68.26-1.38.48-2.09.64-.19.04-.64.19-.86.17-.85-.07-.17-.19.25-.58.69-.65,1.38-1.29,2.06-1.94,1.53-1.44,3.06-2.88,4.59-4.32,2.91-2.73,5.81-5.47,8.72-8.2.69-.65,1.38-1.29,2.06-1.94.34-.32.9-.68,1.15-1.08.3-.48.88-.32-.08-.38-1.75-.11-3.69.34-5.44.49-3.45.29-6.9.54-10.35.75-6.9.43-13.82.7-20.73.82-13.74.25-27.49-.1-41.2-1.03-27.52-1.87-54.87-6.07-81.69-12.53-26.9-6.47-53.27-15.2-78.71-26.09-25.27-10.82-49.62-23.77-72.67-38.75-2.9-1.89-5.78-3.8-8.64-5.75-.25-.17-1.5,1.16-1.73,1h0Z"/>
</svg>